M48
; DRILL file {KiCad 5.1.9+dfsg1-1+deb11u1} date Sun Oct 22 21:49:37 2023
; FORMAT={-:-/ absolute / inch / decimal}
; #@! TF.CreationDate,2023-10-22T21:49:37+02:00
; #@! TF.GenerationSoftware,Kicad,Pcbnew,5.1.9+dfsg1-1+deb11u1
; #@! TF.FileFunction,Plated,1,2,PTH
FMAT,2
INCH
T1C0.0394
T2C0.0394
T3C0.1260
%
G90
G05
T1
X4.34Y-2.49
X4.34Y-2.59
X4.34Y-2.69
X4.34Y-3.14
X4.34Y-3.64
X4.34Y-3.74
X4.34Y-3.84
X4.34Y-3.94
X4.34Y-4.04
X4.34Y-4.14
X4.34Y-4.34
X4.34Y-4.44
X4.34Y-4.54
X4.34Y-4.79
X4.34Y-4.89
X4.94Y-4.89
X5.19Y-4.89
X5.44Y-4.89
X5.54Y-4.89
X5.64Y-4.89
X5.79Y-3.14
X5.79Y-3.24
X5.89Y-4.89
T2
X4.64Y-2.69
X4.64Y-3.14
X4.64Y-3.39
X4.64Y-3.64
X4.64Y-3.89
X4.64Y-4.14
X4.64Y-4.39
X4.64Y-4.64
X4.64Y-4.89
X4.74Y-2.69
X4.74Y-3.14
X4.74Y-3.39
X4.74Y-3.64
X4.74Y-3.89
X4.74Y-4.14
X4.74Y-4.39
X4.74Y-4.64
X4.74Y-4.89
X4.94Y-2.4901
X4.94Y-2.69
X4.94Y-3.14
X4.94Y-3.39
X4.94Y-3.64
X4.94Y-3.89
X4.94Y-4.14
X4.94Y-4.64
X4.9494Y-4.39
X5.34Y-2.4901
X5.5306Y-2.69
X5.5306Y-3.14
X5.5306Y-3.39
X5.5306Y-3.64
X5.5306Y-3.89
X5.5306Y-4.14
X5.5306Y-4.64
X5.54Y-4.39
X5.7899Y-3.64
X5.7899Y-4.04
X5.7901Y-4.24
X5.7901Y-4.64
T3
X4.34Y-3.38
X7.08Y-2.5
X7.08Y-4.88
T0
M30
