%TF.GenerationSoftware,KiCad,Pcbnew,5.1.9+dfsg1-1+deb11u1*%
%TF.CreationDate,2023-10-22T15:59:23+02:00*%
%TF.ProjectId,display,64697370-6c61-4792-9e6b-696361645f70,231022*%
%TF.SameCoordinates,Original*%
%TF.FileFunction,Copper,L2,Bot*%
%TF.FilePolarity,Positive*%
%FSLAX46Y46*%
G04 Gerber Fmt 4.6, Leading zero omitted, Abs format (unit mm)*
G04 Created by KiCad (PCBNEW 5.1.9+dfsg1-1+deb11u1) date 2023-10-22 15:59:23*
%MOMM*%
%LPD*%
G01*
G04 APERTURE LIST*
%TA.AperFunction,NonConductor*%
%ADD10C,0.300000*%
%TD*%
%TA.AperFunction,Profile*%
%ADD11C,0.150000*%
%TD*%
%TA.AperFunction,ComponentPad*%
%ADD12C,6.400000*%
%TD*%
%TA.AperFunction,ComponentPad*%
%ADD13R,1.900000X2.000000*%
%TD*%
%TA.AperFunction,ComponentPad*%
%ADD14C,1.900000*%
%TD*%
%TA.AperFunction,ComponentPad*%
%ADD15C,1.998980*%
%TD*%
%TA.AperFunction,ComponentPad*%
%ADD16R,1.998980X1.998980*%
%TD*%
%TA.AperFunction,ComponentPad*%
%ADD17R,1.700000X1.700000*%
%TD*%
%TA.AperFunction,ComponentPad*%
%ADD18O,1.700000X1.700000*%
%TD*%
%TA.AperFunction,Conductor*%
%ADD19C,1.270000*%
%TD*%
G04 APERTURE END LIST*
D10*
X171175142Y-125138571D02*
X171175142Y-123638571D01*
X170675142Y-124710000D01*
X170175142Y-123638571D01*
X170175142Y-125138571D01*
X169460857Y-125138571D02*
X169460857Y-123638571D01*
X168960857Y-124710000D01*
X168460857Y-123638571D01*
X168460857Y-125138571D01*
X166960857Y-125138571D02*
X167818000Y-125138571D01*
X167389428Y-125138571D02*
X167389428Y-123638571D01*
X167532285Y-123852857D01*
X167675142Y-123995714D01*
X167818000Y-124067142D01*
X165675142Y-123638571D02*
X165960857Y-123638571D01*
X166103714Y-123710000D01*
X166175142Y-123781428D01*
X166318000Y-123995714D01*
X166389428Y-124281428D01*
X166389428Y-124852857D01*
X166318000Y-124995714D01*
X166246571Y-125067142D01*
X166103714Y-125138571D01*
X165818000Y-125138571D01*
X165675142Y-125067142D01*
X165603714Y-124995714D01*
X165532285Y-124852857D01*
X165532285Y-124495714D01*
X165603714Y-124352857D01*
X165675142Y-124281428D01*
X165818000Y-124210000D01*
X166103714Y-124210000D01*
X166246571Y-124281428D01*
X166318000Y-124352857D01*
X166389428Y-124495714D01*
X164889428Y-125138571D02*
X164889428Y-123638571D01*
X164532285Y-123638571D01*
X164318000Y-123710000D01*
X164175142Y-123852857D01*
X164103714Y-123995714D01*
X164032285Y-124281428D01*
X164032285Y-124495714D01*
X164103714Y-124781428D01*
X164175142Y-124924285D01*
X164318000Y-125067142D01*
X164532285Y-125138571D01*
X164889428Y-125138571D01*
X160032285Y-123781428D02*
X159960857Y-123710000D01*
X159818000Y-123638571D01*
X159460857Y-123638571D01*
X159318000Y-123710000D01*
X159246571Y-123781428D01*
X159175142Y-123924285D01*
X159175142Y-124067142D01*
X159246571Y-124281428D01*
X160103714Y-125138571D01*
X159175142Y-125138571D01*
X158246571Y-123638571D02*
X158103714Y-123638571D01*
X157960857Y-123710000D01*
X157889428Y-123781428D01*
X157818000Y-123924285D01*
X157746571Y-124210000D01*
X157746571Y-124567142D01*
X157818000Y-124852857D01*
X157889428Y-124995714D01*
X157960857Y-125067142D01*
X158103714Y-125138571D01*
X158246571Y-125138571D01*
X158389428Y-125067142D01*
X158460857Y-124995714D01*
X158532285Y-124852857D01*
X158603714Y-124567142D01*
X158603714Y-124210000D01*
X158532285Y-123924285D01*
X158460857Y-123781428D01*
X158389428Y-123710000D01*
X158246571Y-123638571D01*
X157175142Y-123781428D02*
X157103714Y-123710000D01*
X156960857Y-123638571D01*
X156603714Y-123638571D01*
X156460857Y-123710000D01*
X156389428Y-123781428D01*
X156318000Y-123924285D01*
X156318000Y-124067142D01*
X156389428Y-124281428D01*
X157246571Y-125138571D01*
X156318000Y-125138571D01*
X155818000Y-123638571D02*
X154889428Y-123638571D01*
X155389428Y-124210000D01*
X155175142Y-124210000D01*
X155032285Y-124281428D01*
X154960857Y-124352857D01*
X154889428Y-124495714D01*
X154889428Y-124852857D01*
X154960857Y-124995714D01*
X155032285Y-125067142D01*
X155175142Y-125138571D01*
X155603714Y-125138571D01*
X155746571Y-125067142D01*
X155818000Y-124995714D01*
D11*
X185166000Y-129286000D02*
X148336000Y-129286000D01*
X185166000Y-58166000D02*
X185166000Y-129286000D01*
X105156000Y-58166000D02*
X185166000Y-58166000D01*
X105156000Y-63246000D02*
X105156000Y-58166000D01*
X105156000Y-63246000D02*
X105156000Y-129286000D01*
X105156000Y-129286000D02*
X148336000Y-129286000D01*
X105156000Y-124206000D02*
X105156000Y-129286000D01*
D12*
%TO.P,REF\u002A\u002A,1*%
%TO.N,N/C*%
X179832000Y-63500000D03*
%TD*%
D13*
%TO.P,D201,1*%
%TO.N,Net-(D201-Pad1)*%
X117856000Y-68326000D03*
D14*
%TO.P,D201,2*%
%TO.N,Net-(D201-Pad2)*%
X120396000Y-68326000D03*
%TD*%
D13*
%TO.P,D202,1*%
%TO.N,Net-(D202-Pad1)*%
X117856000Y-79756000D03*
D14*
%TO.P,D202,2*%
%TO.N,Net-(D202-Pad2)*%
X120396000Y-79756000D03*
%TD*%
D13*
%TO.P,D203,1*%
%TO.N,Net-(BT201-Pad2)*%
X117856000Y-86106000D03*
D14*
%TO.P,D203,2*%
%TO.N,Net-(D203-Pad2)*%
X120396000Y-86106000D03*
%TD*%
D13*
%TO.P,D204,1*%
%TO.N,Net-(D204-Pad1)*%
X117856000Y-92456000D03*
D14*
%TO.P,D204,2*%
%TO.N,Net-(D204-Pad2)*%
X120396000Y-92456000D03*
%TD*%
D13*
%TO.P,D205,1*%
%TO.N,Net-(D205-Pad1)*%
X117856000Y-98806000D03*
D14*
%TO.P,D205,2*%
%TO.N,Net-(D205-Pad2)*%
X120396000Y-98806000D03*
%TD*%
D13*
%TO.P,D206,1*%
%TO.N,Net-(D206-Pad1)*%
X117856000Y-105156000D03*
D14*
%TO.P,D206,2*%
%TO.N,Net-(D206-Pad2)*%
X120396000Y-105156000D03*
%TD*%
D13*
%TO.P,D207,1*%
%TO.N,Net-(BT201-Pad2)*%
X117856000Y-111506000D03*
D14*
%TO.P,D207,2*%
%TO.N,Net-(D207-Pad2)*%
X120396000Y-111506000D03*
%TD*%
D13*
%TO.P,D208,1*%
%TO.N,Net-(BT201-Pad2)*%
X117856000Y-117856000D03*
D14*
%TO.P,D208,2*%
%TO.N,Net-(D208-Pad2)*%
X120396000Y-117856000D03*
%TD*%
D13*
%TO.P,D209,1*%
%TO.N,Net-(D209-Pad1)*%
X117856000Y-124206000D03*
D14*
%TO.P,D209,2*%
%TO.N,Net-(D209-Pad2)*%
X120396000Y-124206000D03*
%TD*%
D15*
%TO.P,D210,2*%
%TO.N,/+12V*%
X147068540Y-117856000D03*
D16*
%TO.P,D210,1*%
%TO.N,Net-(D210-Pad1)*%
X147068540Y-107696000D03*
%TD*%
D15*
%TO.P,D211,2*%
%TO.N,Net-(BT201-Pad1)*%
X147063460Y-92456000D03*
D16*
%TO.P,D211,1*%
%TO.N,Net-(D210-Pad1)*%
X147063460Y-102616000D03*
%TD*%
D15*
%TO.P,D212,2*%
%TO.N,Net-(D212-Pad2)*%
X125476000Y-63248540D03*
D16*
%TO.P,D212,1*%
%TO.N,Net-(D212-Pad1)*%
X135636000Y-63248540D03*
%TD*%
D15*
%TO.P,R201,1*%
%TO.N,Net-(D201-Pad2)*%
X125476000Y-68326000D03*
%TO.P,R201,2*%
%TO.N,Net-(D212-Pad1)*%
X140476000Y-68326000D03*
%TD*%
%TO.P,R202,1*%
%TO.N,Net-(D202-Pad2)*%
X125476000Y-79756000D03*
%TO.P,R202,2*%
%TO.N,/+12V*%
X140476000Y-79756000D03*
%TD*%
%TO.P,R203,1*%
%TO.N,Net-(D203-Pad2)*%
X125476000Y-86106000D03*
%TO.P,R203,2*%
%TO.N,/+12V*%
X140476000Y-86106000D03*
%TD*%
%TO.P,R204,1*%
%TO.N,Net-(D204-Pad2)*%
X125476000Y-92456000D03*
%TO.P,R204,2*%
%TO.N,/+12V*%
X140476000Y-92456000D03*
%TD*%
%TO.P,R205,1*%
%TO.N,Net-(D205-Pad2)*%
X125476000Y-98806000D03*
%TO.P,R205,2*%
%TO.N,/+12V*%
X140476000Y-98806000D03*
%TD*%
%TO.P,R206,1*%
%TO.N,Net-(D206-Pad2)*%
X125476000Y-105156000D03*
%TO.P,R206,2*%
%TO.N,/+12V*%
X140476000Y-105156000D03*
%TD*%
%TO.P,R207,1*%
%TO.N,Net-(P208-Pad1)*%
X140716000Y-111506000D03*
%TO.P,R207,2*%
%TO.N,Net-(D207-Pad2)*%
X125716000Y-111506000D03*
%TD*%
%TO.P,R208,1*%
%TO.N,Net-(D208-Pad2)*%
X125476000Y-117856000D03*
%TO.P,R208,2*%
%TO.N,Net-(P209-Pad1)*%
X140476000Y-117856000D03*
%TD*%
D12*
%TO.P,REF\u002A\u002A,1*%
%TO.N,N/C*%
X179832000Y-123952000D03*
%TD*%
%TO.P,REF\u002A\u002A,1*%
%TO.N,N/C*%
X110236000Y-85852000D03*
%TD*%
D17*
%TO.P,BT201,1*%
%TO.N,Net-(BT201-Pad1)*%
X147066000Y-82296000D03*
D18*
%TO.P,BT201,2*%
%TO.N,Net-(BT201-Pad2)*%
X147066000Y-79756000D03*
%TD*%
%TO.P,P201,2*%
%TO.N,Net-(D209-Pad2)*%
X110236000Y-121666000D03*
D17*
%TO.P,P201,1*%
%TO.N,Net-(D209-Pad1)*%
X110236000Y-124206000D03*
%TD*%
%TO.P,P202,1*%
%TO.N,Net-(D210-Pad1)*%
X149606000Y-124206000D03*
%TD*%
%TO.P,P203,1*%
%TO.N,Net-(D202-Pad1)*%
X110236000Y-79756000D03*
%TD*%
%TO.P,P204,1*%
%TO.N,Net-(D204-Pad1)*%
X110236000Y-92456000D03*
D18*
%TO.P,P204,2*%
X110236000Y-94996000D03*
%TO.P,P204,3*%
%TO.N,Net-(D205-Pad1)*%
X110236000Y-97536000D03*
%TO.P,P204,4*%
X110236000Y-100076000D03*
%TO.P,P204,5*%
%TO.N,Net-(D206-Pad1)*%
X110236000Y-102616000D03*
%TO.P,P204,6*%
X110236000Y-105156000D03*
%TD*%
D17*
%TO.P,P205,1*%
%TO.N,Net-(D201-Pad1)*%
X110236000Y-68326000D03*
D18*
%TO.P,P205,2*%
%TO.N,Net-(P205-Pad2)*%
X110236000Y-65786000D03*
%TO.P,P205,3*%
%TO.N,Net-(D212-Pad2)*%
X110236000Y-63246000D03*
%TD*%
%TO.P,P206,3*%
%TO.N,/+12V*%
X143256000Y-124206000D03*
%TO.P,P206,2*%
X140716000Y-124206000D03*
D17*
%TO.P,P206,1*%
X138176000Y-124206000D03*
%TD*%
%TO.P,P207,1*%
%TO.N,Net-(BT201-Pad2)*%
X110236000Y-110236000D03*
D18*
%TO.P,P207,2*%
X110236000Y-112776000D03*
%TO.P,P207,3*%
X110236000Y-115316000D03*
%TD*%
D17*
%TO.P,P208,1*%
%TO.N,Net-(P208-Pad1)*%
X125476000Y-124206000D03*
%TD*%
%TO.P,P209,1*%
%TO.N,Net-(P209-Pad1)*%
X131826000Y-124206000D03*
%TD*%
D19*
%TO.N,Net-(BT201-Pad1)*%
X147063460Y-92456000D02*
X147063460Y-82298540D01*
X147063460Y-82298540D02*
X147066000Y-82296000D01*
%TO.N,Net-(BT201-Pad2)*%
X126746000Y-83566000D02*
X129286000Y-83566000D01*
X129286000Y-86106000D02*
X129286000Y-83566000D01*
X129286000Y-83566000D02*
X129286000Y-77216000D01*
X129286000Y-77216000D02*
X130556000Y-75946000D01*
X130556000Y-75946000D02*
X145796000Y-75946000D01*
X145796000Y-75946000D02*
X147066000Y-77216000D01*
X147066000Y-77216000D02*
X147066000Y-79756000D01*
X117856000Y-111506000D02*
X110236000Y-111506000D01*
X110236000Y-115316000D02*
X110236000Y-111506000D01*
X110236000Y-111506000D02*
X110236000Y-110236000D01*
X117856000Y-86106000D02*
X117856000Y-84836000D01*
X117856000Y-108966000D02*
X117856000Y-117856000D01*
X119126000Y-107696000D02*
X117856000Y-108966000D01*
X128016000Y-107696000D02*
X119126000Y-107696000D01*
X129286000Y-106426000D02*
X128016000Y-107696000D01*
X129286000Y-86106000D02*
X129286000Y-106426000D01*
X119126000Y-83566000D02*
X126746000Y-83566000D01*
X117856000Y-84836000D02*
X119126000Y-83566000D01*
%TO.N,Net-(D201-Pad1)*%
X110236000Y-68326000D02*
X117856000Y-68326000D01*
%TO.N,Net-(D201-Pad2)*%
X120396000Y-68326000D02*
X125476000Y-68326000D01*
%TO.N,Net-(D202-Pad1)*%
X117856000Y-79756000D02*
X110236000Y-79756000D01*
%TO.N,Net-(D202-Pad2)*%
X120396000Y-79756000D02*
X125476000Y-79756000D01*
%TO.N,Net-(D203-Pad2)*%
X120396000Y-86106000D02*
X125476000Y-86106000D01*
%TO.N,Net-(D204-Pad1)*%
X110236000Y-94996000D02*
X110236000Y-92456000D01*
X110236000Y-92456000D02*
X117856000Y-92456000D01*
%TO.N,Net-(D204-Pad2)*%
X125476000Y-92456000D02*
X120396000Y-92456000D01*
%TO.N,Net-(D205-Pad1)*%
X117856000Y-98806000D02*
X110236000Y-98806000D01*
X110236000Y-100076000D02*
X110236000Y-98806000D01*
X110236000Y-98806000D02*
X110236000Y-97536000D01*
%TO.N,Net-(D205-Pad2)*%
X125476000Y-98806000D02*
X120396000Y-98806000D01*
%TO.N,Net-(D206-Pad1)*%
X117856000Y-105156000D02*
X110236000Y-105156000D01*
X110236000Y-105156000D02*
X110236000Y-102616000D01*
%TO.N,Net-(D206-Pad2)*%
X120396000Y-105156000D02*
X125476000Y-105156000D01*
%TO.N,Net-(D207-Pad2)*%
X125716000Y-111506000D02*
X120396000Y-111506000D01*
%TO.N,Net-(D208-Pad2)*%
X125476000Y-117856000D02*
X120396000Y-117856000D01*
%TO.N,Net-(D209-Pad1)*%
X110236000Y-124206000D02*
X117856000Y-124206000D01*
%TO.N,Net-(D209-Pad2)*%
X110236000Y-121666000D02*
X119126000Y-121666000D01*
X119126000Y-121666000D02*
X120396000Y-122936000D01*
X120396000Y-122936000D02*
X120396000Y-124206000D01*
%TO.N,/+12V*%
X147068540Y-117856000D02*
X143256000Y-117856000D01*
X143256000Y-124206000D02*
X143256000Y-117856000D01*
X143256000Y-117856000D02*
X143256000Y-107936000D01*
X143256000Y-107936000D02*
X140476000Y-105156000D01*
X138176000Y-124206000D02*
X143256000Y-124206000D01*
X140476000Y-79756000D02*
X140476000Y-102616000D01*
X140476000Y-102616000D02*
X140476000Y-105156000D01*
%TO.N,Net-(D210-Pad1)*%
X147068540Y-107696000D02*
X148336000Y-107696000D01*
X149606000Y-108966000D02*
X149606000Y-124206000D01*
X148336000Y-107696000D02*
X149606000Y-108966000D01*
X147068540Y-107696000D02*
X147068540Y-102621080D01*
X147068540Y-102621080D02*
X147063460Y-102616000D01*
%TO.N,Net-(D212-Pad2)*%
X110236000Y-63246000D02*
X125473460Y-63246000D01*
X125473460Y-63246000D02*
X125476000Y-63248540D01*
X125473460Y-63246000D02*
X125476000Y-63248540D01*
%TO.N,Net-(D212-Pad1)*%
X135636000Y-63248540D02*
X139443460Y-63248540D01*
X140710920Y-64516000D02*
X140710920Y-68091080D01*
X139443460Y-63248540D02*
X140710920Y-64516000D01*
X140710920Y-68091080D02*
X140476000Y-68326000D01*
%TO.N,Net-(P208-Pad1)*%
X125476000Y-124206000D02*
X125476000Y-122936000D01*
X136906000Y-111506000D02*
X140716000Y-111506000D01*
X125476000Y-122936000D02*
X136906000Y-111506000D01*
%TO.N,Net-(P209-Pad1)*%
X131826000Y-124206000D02*
X131826000Y-120396000D01*
X134366000Y-117856000D02*
X140476000Y-117856000D01*
X131826000Y-120396000D02*
X134366000Y-117856000D01*
%TD*%
M02*
