<?xml version="1.0" standalone="no"?>
 <!DOCTYPE svg PUBLIC "-//W3C//DTD SVG 1.1//EN" 
 "http://www.w3.org/Graphics/SVG/1.1/DTD/svg11.dtd"> 
<svg
  xmlns:svg="http://www.w3.org/2000/svg"
  xmlns="http://www.w3.org/2000/svg"
  xmlns:xlink="http://www.w3.org/1999/xlink"
  version="1.1"
  width="29.700220cm" height="21.000720cm" viewBox="0 0 116930 82680">
<title>SVG Picture created as display-F_SilkS.svg date 2023/10/22 15:57:59 </title>
  <desc>Picture generated by PCBNEW </desc>
<g style="fill:#000000; fill-opacity:1;stroke:#000000; stroke-opacity:1;
stroke-linecap:round; stroke-linejoin:round;"
 transform="translate(0 0) scale(1 1)">
</g>
<g style="fill:#000000; fill-opacity:0.0; 
stroke:#000000; stroke-width:-0.000393701; stroke-opacity:1; 
stroke-linecap:round; stroke-linejoin:round;">
</g>
<g style="fill:#000000; fill-opacity:0.0; 
stroke:#000000; stroke-width:39.3701; stroke-opacity:1; 
stroke-linecap:round; stroke-linejoin:round;">
</g>
<g style="fill:#000000; fill-opacity:0.0; 
stroke:#000000; stroke-width:59.0551; stroke-opacity:1; 
stroke-linecap:round; stroke-linejoin:round;">
<rect x="69685.9" y="65357.2" width="42519.7" height="12598.4" rx="0" />
</g>
<g style="fill:#000000; fill-opacity:0.0; 
stroke:#000000; stroke-width:39.3701; stroke-opacity:1; 
stroke-linecap:round; stroke-linejoin:round;">
</g>
<g style="fill:#000000; fill-opacity:0.0; 
stroke:#000000; stroke-width:59.0551; stroke-opacity:1; 
stroke-linecap:round; stroke-linejoin:round;">
<rect x="3937.01" y="3937.01" width="109056" height="74806" rx="0" />
</g>
<g style="fill:#000000; fill-opacity:0.0; 
stroke:#000000; stroke-width:39.3701; stroke-opacity:1; 
stroke-linecap:round; stroke-linejoin:round;">
</g>
<g style="fill:#000000; fill-opacity:0.0; 
stroke:#000000; stroke-width:59.0551; stroke-opacity:1; 
stroke-linecap:round; stroke-linejoin:round;">
<rect x="4724.41" y="4724.41" width="107481" height="73231.2" rx="0" />
</g>
<g style="fill:#000000; fill-opacity:0.0; 
stroke:#000000; stroke-width:39.3701; stroke-opacity:1; 
stroke-linecap:round; stroke-linejoin:round;">
</g>
<g style="fill:#000000; fill-opacity:0.0; 
stroke:#000000; stroke-width:59.0551; stroke-opacity:1; 
stroke-linecap:round; stroke-linejoin:round;">
<path d="M23622 4724
L23622 3937
" />
</g>
<g style="fill:#000000; fill-opacity:0.0; 
stroke:#000000; stroke-width:39.3701; stroke-opacity:1; 
stroke-linecap:round; stroke-linejoin:round;">
</g>
<g style="fill:#000000; fill-opacity:0.0; 
stroke:#000000; stroke-width:59.0551; stroke-opacity:1; 
stroke-linecap:round; stroke-linejoin:round;">
<path d="M43307 4724
L43307 3937
" />
</g>
<g style="fill:#000000; fill-opacity:0.0; 
stroke:#000000; stroke-width:39.3701; stroke-opacity:1; 
stroke-linecap:round; stroke-linejoin:round;">
</g>
<g style="fill:#000000; fill-opacity:0.0; 
stroke:#000000; stroke-width:59.0551; stroke-opacity:1; 
stroke-linecap:round; stroke-linejoin:round;">
<path d="M62992 4724
L62992 3937
" />
</g>
<g style="fill:#000000; fill-opacity:0.0; 
stroke:#000000; stroke-width:39.3701; stroke-opacity:1; 
stroke-linecap:round; stroke-linejoin:round;">
</g>
<g style="fill:#000000; fill-opacity:0.0; 
stroke:#000000; stroke-width:59.0551; stroke-opacity:1; 
stroke-linecap:round; stroke-linejoin:round;">
<path d="M82677 4724
L82677 3937
" />
</g>
<g style="fill:#000000; fill-opacity:0.0; 
stroke:#000000; stroke-width:39.3701; stroke-opacity:1; 
stroke-linecap:round; stroke-linejoin:round;">
</g>
<g style="fill:#000000; fill-opacity:0.0; 
stroke:#000000; stroke-width:59.0551; stroke-opacity:1; 
stroke-linecap:round; stroke-linejoin:round;">
<path d="M102362 4724
L102362 3937
" />
</g>
<g style="fill:#000000; fill-opacity:0.0; 
stroke:#000000; stroke-width:39.3701; stroke-opacity:1; 
stroke-linecap:round; stroke-linejoin:round;">
</g>
<g style="fill:#000000; fill-opacity:0.0; 
stroke:#000000; stroke-width:59.0551; stroke-opacity:1; 
stroke-linecap:round; stroke-linejoin:round;">
<text x="13779.5" y="4586.61"
textLength="564.211" font-size="682.415" lengthAdjust="spacingAndGlyphs"
text-anchor="start" opacity="0">1</text>
<path d="M14199 4562
L13906 4562
" />
<path d="M14052 4562
L14052 4050
L14004 4123
L13955 4172
L13906 4196
" />
</g>
<g style="fill:#000000; fill-opacity:0.0; 
stroke:#000000; stroke-width:39.3701; stroke-opacity:1; 
stroke-linecap:round; stroke-linejoin:round;">
</g>
<g style="fill:#000000; fill-opacity:0.0; 
stroke:#000000; stroke-width:59.0551; stroke-opacity:1; 
stroke-linecap:round; stroke-linejoin:round;">
<text x="33464.6" y="4586.61"
textLength="546.494" font-size="682.415" lengthAdjust="spacingAndGlyphs"
text-anchor="start" opacity="0">2</text>
<path d="M33591 4099
L33615 4074
L33664 4050
L33786 4050
L33835 4074
L33859 4099
L33884 4147
L33884 4196
L33859 4269
L33567 4562
L33884 4562
" />
</g>
<g style="fill:#000000; fill-opacity:0.0; 
stroke:#000000; stroke-width:39.3701; stroke-opacity:1; 
stroke-linecap:round; stroke-linejoin:round;">
</g>
<g style="fill:#000000; fill-opacity:0.0; 
stroke:#000000; stroke-width:59.0551; stroke-opacity:1; 
stroke-linecap:round; stroke-linejoin:round;">
<text x="53149.6" y="4586.61"
textLength="546.494" font-size="682.415" lengthAdjust="spacingAndGlyphs"
text-anchor="start" opacity="0">3</text>
<path d="M53252 4050
L53569 4050
L53398 4245
L53471 4245
L53520 4269
L53544 4294
L53569 4342
L53569 4464
L53544 4513
L53520 4537
L53471 4562
L53325 4562
L53276 4537
L53252 4513
" />
</g>
<g style="fill:#000000; fill-opacity:0.0; 
stroke:#000000; stroke-width:39.3701; stroke-opacity:1; 
stroke-linecap:round; stroke-linejoin:round;">
</g>
<g style="fill:#000000; fill-opacity:0.0; 
stroke:#000000; stroke-width:59.0551; stroke-opacity:1; 
stroke-linecap:round; stroke-linejoin:round;">
<text x="72834.6" y="4586.61"
textLength="546.494" font-size="682.415" lengthAdjust="spacingAndGlyphs"
text-anchor="start" opacity="0">4</text>
<path d="M73205 4221
L73205 4562
" />
<path d="M73083 4026
L72961 4391
L73278 4391
" />
</g>
<g style="fill:#000000; fill-opacity:0.0; 
stroke:#000000; stroke-width:39.3701; stroke-opacity:1; 
stroke-linecap:round; stroke-linejoin:round;">
</g>
<g style="fill:#000000; fill-opacity:0.0; 
stroke:#000000; stroke-width:59.0551; stroke-opacity:1; 
stroke-linecap:round; stroke-linejoin:round;">
<text x="92519.7" y="4586.61"
textLength="546.494" font-size="682.415" lengthAdjust="spacingAndGlyphs"
text-anchor="start" opacity="0">5</text>
<path d="M92914 4050
L92671 4050
L92646 4294
L92671 4269
L92719 4245
L92841 4245
L92890 4269
L92914 4294
L92939 4342
L92939 4464
L92914 4513
L92890 4537
L92841 4562
L92719 4562
L92671 4537
L92646 4513
" />
</g>
<g style="fill:#000000; fill-opacity:0.0; 
stroke:#000000; stroke-width:39.3701; stroke-opacity:1; 
stroke-linecap:round; stroke-linejoin:round;">
</g>
<g style="fill:#000000; fill-opacity:0.0; 
stroke:#000000; stroke-width:59.0551; stroke-opacity:1; 
stroke-linecap:round; stroke-linejoin:round;">
<text x="112205" y="4586.61"
textLength="546.494" font-size="682.415" lengthAdjust="spacingAndGlyphs"
text-anchor="start" opacity="0">6</text>
<path d="M112575 4050
L112477 4050
L112429 4074
L112404 4099
L112356 4172
L112331 4269
L112331 4464
L112356 4513
L112380 4537
L112429 4562
L112526 4562
L112575 4537
L112599 4513
L112624 4464
L112624 4342
L112599 4294
L112575 4269
L112526 4245
L112429 4245
L112380 4269
L112356 4294
L112331 4342
" />
</g>
<g style="fill:#000000; fill-opacity:0.0; 
stroke:#000000; stroke-width:39.3701; stroke-opacity:1; 
stroke-linecap:round; stroke-linejoin:round;">
</g>
<g style="fill:#000000; fill-opacity:0.0; 
stroke:#000000; stroke-width:59.0551; stroke-opacity:1; 
stroke-linecap:round; stroke-linejoin:round;">
<path d="M23622 77955
L23622 78742
" />
</g>
<g style="fill:#000000; fill-opacity:0.0; 
stroke:#000000; stroke-width:39.3701; stroke-opacity:1; 
stroke-linecap:round; stroke-linejoin:round;">
</g>
<g style="fill:#000000; fill-opacity:0.0; 
stroke:#000000; stroke-width:59.0551; stroke-opacity:1; 
stroke-linecap:round; stroke-linejoin:round;">
<path d="M43307 77955
L43307 78742
" />
</g>
<g style="fill:#000000; fill-opacity:0.0; 
stroke:#000000; stroke-width:39.3701; stroke-opacity:1; 
stroke-linecap:round; stroke-linejoin:round;">
</g>
<g style="fill:#000000; fill-opacity:0.0; 
stroke:#000000; stroke-width:59.0551; stroke-opacity:1; 
stroke-linecap:round; stroke-linejoin:round;">
<path d="M62992 77955
L62992 78742
" />
</g>
<g style="fill:#000000; fill-opacity:0.0; 
stroke:#000000; stroke-width:39.3701; stroke-opacity:1; 
stroke-linecap:round; stroke-linejoin:round;">
</g>
<g style="fill:#000000; fill-opacity:0.0; 
stroke:#000000; stroke-width:59.0551; stroke-opacity:1; 
stroke-linecap:round; stroke-linejoin:round;">
<path d="M82677 77955
L82677 78742
" />
</g>
<g style="fill:#000000; fill-opacity:0.0; 
stroke:#000000; stroke-width:39.3701; stroke-opacity:1; 
stroke-linecap:round; stroke-linejoin:round;">
</g>
<g style="fill:#000000; fill-opacity:0.0; 
stroke:#000000; stroke-width:59.0551; stroke-opacity:1; 
stroke-linecap:round; stroke-linejoin:round;">
<path d="M102362 77955
L102362 78742
" />
</g>
<g style="fill:#000000; fill-opacity:0.0; 
stroke:#000000; stroke-width:39.3701; stroke-opacity:1; 
stroke-linecap:round; stroke-linejoin:round;">
</g>
<g style="fill:#000000; fill-opacity:0.0; 
stroke:#000000; stroke-width:59.0551; stroke-opacity:1; 
stroke-linecap:round; stroke-linejoin:round;">
<text x="13779.5" y="78605.2"
textLength="546.494" font-size="682.415" lengthAdjust="spacingAndGlyphs"
text-anchor="start" opacity="0">1</text>
<path d="M14199 78580
L13906 78580
" />
<path d="M14052 78580
L14052 78069
L14004 78142
L13955 78190
L13906 78215
" />
</g>
<g style="fill:#000000; fill-opacity:0.0; 
stroke:#000000; stroke-width:39.3701; stroke-opacity:1; 
stroke-linecap:round; stroke-linejoin:round;">
</g>
<g style="fill:#000000; fill-opacity:0.0; 
stroke:#000000; stroke-width:59.0551; stroke-opacity:1; 
stroke-linecap:round; stroke-linejoin:round;">
<text x="33464.6" y="78605.2"
textLength="546.494" font-size="682.415" lengthAdjust="spacingAndGlyphs"
text-anchor="start" opacity="0">2</text>
<path d="M33591 78117
L33615 78093
L33664 78069
L33786 78069
L33835 78093
L33859 78117
L33884 78166
L33884 78215
L33859 78288
L33567 78580
L33884 78580
" />
</g>
<g style="fill:#000000; fill-opacity:0.0; 
stroke:#000000; stroke-width:39.3701; stroke-opacity:1; 
stroke-linecap:round; stroke-linejoin:round;">
</g>
<g style="fill:#000000; fill-opacity:0.0; 
stroke:#000000; stroke-width:59.0551; stroke-opacity:1; 
stroke-linecap:round; stroke-linejoin:round;">
<text x="53149.6" y="78605.2"
textLength="546.494" font-size="682.415" lengthAdjust="spacingAndGlyphs"
text-anchor="start" opacity="0">3</text>
<path d="M53252 78069
L53569 78069
L53398 78263
L53471 78263
L53520 78288
L53544 78312
L53569 78361
L53569 78483
L53544 78532
L53520 78556
L53471 78580
L53325 78580
L53276 78556
L53252 78532
" />
</g>
<g style="fill:#000000; fill-opacity:0.0; 
stroke:#000000; stroke-width:39.3701; stroke-opacity:1; 
stroke-linecap:round; stroke-linejoin:round;">
</g>
<g style="fill:#000000; fill-opacity:0.0; 
stroke:#000000; stroke-width:59.0551; stroke-opacity:1; 
stroke-linecap:round; stroke-linejoin:round;">
<text x="72834.6" y="78605.2"
textLength="546.494" font-size="682.415" lengthAdjust="spacingAndGlyphs"
text-anchor="start" opacity="0">4</text>
<path d="M73205 78239
L73205 78580
" />
<path d="M73083 78044
L72961 78410
L73278 78410
" />
</g>
<g style="fill:#000000; fill-opacity:0.0; 
stroke:#000000; stroke-width:39.3701; stroke-opacity:1; 
stroke-linecap:round; stroke-linejoin:round;">
</g>
<g style="fill:#000000; fill-opacity:0.0; 
stroke:#000000; stroke-width:59.0551; stroke-opacity:1; 
stroke-linecap:round; stroke-linejoin:round;">
<text x="92519.7" y="78605.2"
textLength="546.494" font-size="682.415" lengthAdjust="spacingAndGlyphs"
text-anchor="start" opacity="0">5</text>
<path d="M92914 78069
L92671 78069
L92646 78312
L92671 78288
L92719 78263
L92841 78263
L92890 78288
L92914 78312
L92939 78361
L92939 78483
L92914 78532
L92890 78556
L92841 78580
L92719 78580
L92671 78556
L92646 78532
" />
</g>
<g style="fill:#000000; fill-opacity:0.0; 
stroke:#000000; stroke-width:39.3701; stroke-opacity:1; 
stroke-linecap:round; stroke-linejoin:round;">
</g>
<g style="fill:#000000; fill-opacity:0.0; 
stroke:#000000; stroke-width:59.0551; stroke-opacity:1; 
stroke-linecap:round; stroke-linejoin:round;">
<text x="112205" y="78605.2"
textLength="546.494" font-size="682.415" lengthAdjust="spacingAndGlyphs"
text-anchor="start" opacity="0">6</text>
<path d="M112575 78069
L112477 78069
L112429 78093
L112404 78117
L112356 78190
L112331 78288
L112331 78483
L112356 78532
L112380 78556
L112429 78580
L112526 78580
L112575 78556
L112599 78532
L112624 78483
L112624 78361
L112599 78312
L112575 78288
L112526 78263
L112429 78263
L112380 78288
L112356 78312
L112331 78361
" />
</g>
<g style="fill:#000000; fill-opacity:0.0; 
stroke:#000000; stroke-width:39.3701; stroke-opacity:1; 
stroke-linecap:round; stroke-linejoin:round;">
</g>
<g style="fill:#000000; fill-opacity:0.0; 
stroke:#000000; stroke-width:59.0551; stroke-opacity:1; 
stroke-linecap:round; stroke-linejoin:round;">
<path d="M3937 23622
L4724 23622
" />
</g>
<g style="fill:#000000; fill-opacity:0.0; 
stroke:#000000; stroke-width:39.3701; stroke-opacity:1; 
stroke-linecap:round; stroke-linejoin:round;">
</g>
<g style="fill:#000000; fill-opacity:0.0; 
stroke:#000000; stroke-width:59.0551; stroke-opacity:1; 
stroke-linecap:round; stroke-linejoin:round;">
<path d="M3937 43307
L4724 43307
" />
</g>
<g style="fill:#000000; fill-opacity:0.0; 
stroke:#000000; stroke-width:39.3701; stroke-opacity:1; 
stroke-linecap:round; stroke-linejoin:round;">
</g>
<g style="fill:#000000; fill-opacity:0.0; 
stroke:#000000; stroke-width:59.0551; stroke-opacity:1; 
stroke-linecap:round; stroke-linejoin:round;">
<path d="M3937 62992
L4724 62992
" />
</g>
<g style="fill:#000000; fill-opacity:0.0; 
stroke:#000000; stroke-width:39.3701; stroke-opacity:1; 
stroke-linecap:round; stroke-linejoin:round;">
</g>
<g style="fill:#000000; fill-opacity:0.0; 
stroke:#000000; stroke-width:59.0551; stroke-opacity:1; 
stroke-linecap:round; stroke-linejoin:round;">
<text x="4330.71" y="14035.4"
textLength="497.75" font-size="682.415" lengthAdjust="spacingAndGlyphs"
text-anchor="middle" opacity="0">A</text>
<path d="M4208 13864
L4452 13864
" />
<path d="M4160 14011
L4330 13499
L4501 14011
" />
</g>
<g style="fill:#000000; fill-opacity:0.0; 
stroke:#000000; stroke-width:39.3701; stroke-opacity:1; 
stroke-linecap:round; stroke-linejoin:round;">
</g>
<g style="fill:#000000; fill-opacity:0.0; 
stroke:#000000; stroke-width:59.0551; stroke-opacity:1; 
stroke-linecap:round; stroke-linejoin:round;">
<text x="4330.71" y="33720.5"
textLength="570.866" font-size="682.415" lengthAdjust="spacingAndGlyphs"
text-anchor="middle" opacity="0">B</text>
<path d="M4367 33428
L4440 33452
L4464 33476
L4489 33525
L4489 33598
L4464 33647
L4440 33671
L4391 33696
L4196 33696
L4196 33184
L4367 33184
L4416 33208
L4440 33233
L4464 33281
L4464 33330
L4440 33379
L4416 33403
L4367 33428
L4196 33428
" />
</g>
<g style="fill:#000000; fill-opacity:0.0; 
stroke:#000000; stroke-width:39.3701; stroke-opacity:1; 
stroke-linecap:round; stroke-linejoin:round;">
</g>
<g style="fill:#000000; fill-opacity:0.0; 
stroke:#000000; stroke-width:59.0551; stroke-opacity:1; 
stroke-linecap:round; stroke-linejoin:round;">
<text x="4330.71" y="53405.5"
textLength="570.866" font-size="682.415" lengthAdjust="spacingAndGlyphs"
text-anchor="middle" opacity="0">C</text>
<path d="M4489 53332
L4464 53356
L4391 53381
L4342 53381
L4269 53356
L4221 53308
L4196 53259
L4172 53161
L4172 53088
L4196 52991
L4221 52942
L4269 52893
L4342 52869
L4391 52869
L4464 52893
L4489 52918
" />
</g>
<g style="fill:#000000; fill-opacity:0.0; 
stroke:#000000; stroke-width:39.3701; stroke-opacity:1; 
stroke-linecap:round; stroke-linejoin:round;">
</g>
<g style="fill:#000000; fill-opacity:0.0; 
stroke:#000000; stroke-width:59.0551; stroke-opacity:1; 
stroke-linecap:round; stroke-linejoin:round;">
<text x="4330.71" y="73090.6"
textLength="570.866" font-size="682.415" lengthAdjust="spacingAndGlyphs"
text-anchor="middle" opacity="0">D</text>
<path d="M4196 73066
L4196 72554
L4318 72554
L4391 72578
L4440 72627
L4464 72676
L4489 72773
L4489 72846
L4464 72944
L4440 72993
L4391 73041
L4318 73066
L4196 73066
" />
</g>
<g style="fill:#000000; fill-opacity:0.0; 
stroke:#000000; stroke-width:39.3701; stroke-opacity:1; 
stroke-linecap:round; stroke-linejoin:round;">
</g>
<g style="fill:#000000; fill-opacity:0.0; 
stroke:#000000; stroke-width:59.0551; stroke-opacity:1; 
stroke-linecap:round; stroke-linejoin:round;">
<path d="M112992 23622
L112205 23622
" />
</g>
<g style="fill:#000000; fill-opacity:0.0; 
stroke:#000000; stroke-width:39.3701; stroke-opacity:1; 
stroke-linecap:round; stroke-linejoin:round;">
</g>
<g style="fill:#000000; fill-opacity:0.0; 
stroke:#000000; stroke-width:59.0551; stroke-opacity:1; 
stroke-linecap:round; stroke-linejoin:round;">
<path d="M112992 43307
L112205 43307
" />
</g>
<g style="fill:#000000; fill-opacity:0.0; 
stroke:#000000; stroke-width:39.3701; stroke-opacity:1; 
stroke-linecap:round; stroke-linejoin:round;">
</g>
<g style="fill:#000000; fill-opacity:0.0; 
stroke:#000000; stroke-width:59.0551; stroke-opacity:1; 
stroke-linecap:round; stroke-linejoin:round;">
<path d="M112992 62992
L112205 62992
" />
</g>
<g style="fill:#000000; fill-opacity:0.0; 
stroke:#000000; stroke-width:39.3701; stroke-opacity:1; 
stroke-linecap:round; stroke-linejoin:round;">
</g>
<g style="fill:#000000; fill-opacity:0.0; 
stroke:#000000; stroke-width:59.0551; stroke-opacity:1; 
stroke-linecap:round; stroke-linejoin:round;">
<text x="112599" y="14035.4"
textLength="497.75" font-size="682.415" lengthAdjust="spacingAndGlyphs"
text-anchor="middle" opacity="0">A</text>
<path d="M112477 13864
L112721 13864
" />
<path d="M112428 14011
L112599 13499
L112769 14011
" />
</g>
<g style="fill:#000000; fill-opacity:0.0; 
stroke:#000000; stroke-width:39.3701; stroke-opacity:1; 
stroke-linecap:round; stroke-linejoin:round;">
</g>
<g style="fill:#000000; fill-opacity:0.0; 
stroke:#000000; stroke-width:59.0551; stroke-opacity:1; 
stroke-linecap:round; stroke-linejoin:round;">
<text x="112599" y="33720.5"
textLength="570.866" font-size="682.415" lengthAdjust="spacingAndGlyphs"
text-anchor="middle" opacity="0">B</text>
<path d="M112635 33428
L112708 33452
L112733 33476
L112757 33525
L112757 33598
L112733 33647
L112708 33671
L112660 33696
L112465 33696
L112465 33184
L112635 33184
L112684 33208
L112708 33233
L112733 33281
L112733 33330
L112708 33379
L112684 33403
L112635 33428
L112465 33428
" />
</g>
<g style="fill:#000000; fill-opacity:0.0; 
stroke:#000000; stroke-width:39.3701; stroke-opacity:1; 
stroke-linecap:round; stroke-linejoin:round;">
</g>
<g style="fill:#000000; fill-opacity:0.0; 
stroke:#000000; stroke-width:59.0551; stroke-opacity:1; 
stroke-linecap:round; stroke-linejoin:round;">
<text x="112599" y="53405.5"
textLength="570.866" font-size="682.415" lengthAdjust="spacingAndGlyphs"
text-anchor="middle" opacity="0">C</text>
<path d="M112757 53332
L112733 53356
L112660 53381
L112611 53381
L112538 53356
L112489 53308
L112465 53259
L112440 53161
L112440 53088
L112465 52991
L112489 52942
L112538 52893
L112611 52869
L112660 52869
L112733 52893
L112757 52918
" />
</g>
<g style="fill:#000000; fill-opacity:0.0; 
stroke:#000000; stroke-width:39.3701; stroke-opacity:1; 
stroke-linecap:round; stroke-linejoin:round;">
</g>
<g style="fill:#000000; fill-opacity:0.0; 
stroke:#000000; stroke-width:59.0551; stroke-opacity:1; 
stroke-linecap:round; stroke-linejoin:round;">
<text x="112599" y="73090.6"
textLength="570.866" font-size="682.415" lengthAdjust="spacingAndGlyphs"
text-anchor="middle" opacity="0">D</text>
<path d="M112465 73066
L112465 72554
L112587 72554
L112660 72578
L112708 72627
L112733 72676
L112757 72773
L112757 72846
L112733 72944
L112708 72993
L112660 73041
L112587 73066
L112465 73066
" />
</g>
<g style="fill:#000000; fill-opacity:0.0; 
stroke:#000000; stroke-width:39.3701; stroke-opacity:1; 
stroke-linecap:round; stroke-linejoin:round;">
</g>
<g style="fill:#000000; fill-opacity:0.0; 
stroke:#000000; stroke-width:59.0551; stroke-opacity:1; 
stroke-linecap:round; stroke-linejoin:round;">
<text x="78741" y="76321.7"
textLength="8720.47" font-size="787.402" lengthAdjust="spacingAndGlyphs"
text-anchor="start" opacity="0">Date: 2023-10-22</text>
<path d="M78911 76293
L78911 75703
L79051 75703
L79136 75731
L79192 75787
L79220 75843
L79248 75956
L79248 76040
L79220 76153
L79192 76209
L79136 76265
L79051 76293
L78911 76293
" />
<path d="M79754 76293
L79754 75984
L79726 75928
L79670 75899
L79557 75899
L79501 75928
" />
<path d="M79754 76265
L79698 76293
L79557 76293
L79501 76265
L79473 76209
L79473 76153
L79501 76096
L79557 76068
L79698 76068
L79754 76040
" />
<path d="M79951 75899
L80176 75899
" />
<path d="M80036 75703
L80036 76209
L80064 76265
L80120 76293
L80176 76293
" />
<path d="M80598 76265
L80542 76293
L80429 76293
L80373 76265
L80345 76209
L80345 75984
L80373 75928
L80429 75899
L80542 75899
L80598 75928
L80626 75984
L80626 76040
L80345 76096
" />
<path d="M80879 76237
L80907 76265
L80879 76293
L80851 76265
L80879 76237
L80879 76293
" />
<path d="M80879 75928
L80907 75956
L80879 75984
L80851 75956
L80879 75928
L80879 75984
" />
<path d="M81582 75759
L81610 75731
L81667 75703
L81807 75703
L81863 75731
L81892 75759
L81920 75815
L81920 75871
L81892 75956
L81554 76293
L81920 76293
" />
<path d="M82285 75703
L82341 75703
L82398 75731
L82426 75759
L82454 75815
L82482 75928
L82482 76068
L82454 76181
L82426 76237
L82398 76265
L82341 76293
L82285 76293
L82229 76265
L82201 76237
L82173 76181
L82145 76068
L82145 75928
L82173 75815
L82201 75759
L82229 75731
L82285 75703
" />
<path d="M82707 75759
L82735 75731
L82791 75703
L82932 75703
L82988 75731
L83016 75759
L83045 75815
L83045 75871
L83016 75956
L82679 76293
L83045 76293
" />
<path d="M83241 75703
L83607 75703
L83410 75928
L83494 75928
L83551 75956
L83579 75984
L83607 76040
L83607 76181
L83579 76237
L83551 76265
L83494 76293
L83326 76293
L83269 76265
L83241 76237
" />
<path d="M83860 76068
L84310 76068
" />
<path d="M84901 76293
L84563 76293
" />
<path d="M84732 76293
L84732 75703
L84676 75787
L84619 75843
L84563 75871
" />
<path d="M85266 75703
L85322 75703
L85379 75731
L85407 75759
L85435 75815
L85463 75928
L85463 76068
L85435 76181
L85407 76237
L85379 76265
L85322 76293
L85266 76293
L85210 76265
L85182 76237
L85154 76181
L85126 76068
L85126 75928
L85154 75815
L85182 75759
L85210 75731
L85266 75703
" />
<path d="M85716 76068
L86166 76068
" />
<path d="M86419 75759
L86447 75731
L86503 75703
L86644 75703
L86700 75731
L86728 75759
L86757 75815
L86757 75871
L86728 75956
L86391 76293
L86757 76293
" />
<path d="M86982 75759
L87010 75731
L87066 75703
L87206 75703
L87263 75731
L87291 75759
L87319 75815
L87319 75871
L87291 75956
L86953 76293
L87319 76293
" />
</g>
<g style="fill:#000000; fill-opacity:0.0; 
stroke:#000000; stroke-width:39.3701; stroke-opacity:1; 
stroke-linecap:round; stroke-linejoin:round;">
</g>
<g style="fill:#000000; fill-opacity:0.0; 
stroke:#000000; stroke-width:59.0551; stroke-opacity:1; 
stroke-linecap:round; stroke-linejoin:round;">
<path d="M69685 76577
L112205 76577
" />
</g>
<g style="fill:#000000; fill-opacity:0.0; 
stroke:#000000; stroke-width:39.3701; stroke-opacity:1; 
stroke-linecap:round; stroke-linejoin:round;">
</g>
<g style="fill:#000000; fill-opacity:0.0; 
stroke:#000000; stroke-width:59.0551; stroke-opacity:1; 
stroke-linecap:round; stroke-linejoin:round;">
<text x="70079.6" y="77424.1"
textLength="20447.1" font-size="787.402" lengthAdjust="spacingAndGlyphs"
text-anchor="start" opacity="0">KiCad E.D.A.  kicad 5.1.9+dfsg1-1+deb11u1</text>
<path d="M70249 77395
L70249 76805
" />
<path d="M70587 77395
L70334 77058
" />
<path d="M70587 76805
L70249 77142
" />
<path d="M70840 77395
L70840 77002
" />
<path d="M70840 76805
L70812 76833
L70840 76861
L70868 76833
L70840 76805
L70840 76861
" />
<path d="M71458 77339
L71430 77367
L71346 77395
L71290 77395
L71205 77367
L71149 77311
L71121 77255
L71093 77142
L71093 77058
L71121 76946
L71149 76889
L71205 76833
L71290 76805
L71346 76805
L71430 76833
L71458 76861
" />
<path d="M71965 77395
L71965 77086
L71937 77030
L71880 77002
L71768 77002
L71712 77030
" />
<path d="M71965 77367
L71908 77395
L71768 77395
L71712 77367
L71683 77311
L71683 77255
L71712 77199
L71768 77171
L71908 77171
L71965 77142
" />
<path d="M72499 77395
L72499 76805
" />
<path d="M72499 77367
L72443 77395
L72330 77395
L72274 77367
L72246 77339
L72218 77283
L72218 77114
L72246 77058
L72274 77030
L72330 77002
L72443 77002
L72499 77030
" />
<path d="M73230 77086
L73427 77086
" />
<path d="M73511 77395
L73230 77395
L73230 76805
L73511 76805
" />
<path d="M73764 77339
L73793 77367
L73764 77395
L73736 77367
L73764 77339
L73764 77395
" />
<path d="M74046 77395
L74046 76805
L74186 76805
L74271 76833
L74327 76889
L74355 76946
L74383 77058
L74383 77142
L74355 77255
L74327 77311
L74271 77367
L74186 77395
L74046 77395
" />
<path d="M74636 77339
L74664 77367
L74636 77395
L74608 77367
L74636 77339
L74636 77395
" />
<path d="M74889 77227
L75171 77227
" />
<path d="M74833 77395
L75030 76805
L75227 77395
" />
<path d="M75424 77339
L75452 77367
L75424 77395
L75395 77367
L75424 77339
L75424 77395
" />
<path d="M76605 77395
L76605 76805
" />
<path d="M76661 77171
L76830 77395
" />
<path d="M76830 77002
L76605 77227
" />
<path d="M77083 77395
L77083 77002
" />
<path d="M77083 76805
L77055 76833
L77083 76861
L77111 76833
L77083 76805
L77083 76861
" />
<path d="M77617 77367
L77561 77395
L77448 77395
L77392 77367
L77364 77339
L77336 77283
L77336 77114
L77364 77058
L77392 77030
L77448 77002
L77561 77002
L77617 77030
" />
<path d="M78123 77395
L78123 77086
L78095 77030
L78039 77002
L77926 77002
L77870 77030
" />
<path d="M78123 77367
L78067 77395
L77926 77395
L77870 77367
L77842 77311
L77842 77255
L77870 77199
L77926 77171
L78067 77171
L78123 77142
" />
<path d="M78658 77395
L78658 76805
" />
<path d="M78658 77367
L78601 77395
L78489 77395
L78433 77367
L78404 77339
L78376 77283
L78376 77114
L78404 77058
L78433 77030
L78489 77002
L78601 77002
L78658 77030
" />
<path d="M79670 76805
L79389 76805
L79361 77086
L79389 77058
L79445 77030
L79586 77030
L79642 77058
L79670 77086
L79698 77142
L79698 77283
L79670 77339
L79642 77367
L79586 77395
L79445 77395
L79389 77367
L79361 77339
" />
<path d="M79951 77339
L79979 77367
L79951 77395
L79923 77367
L79951 77339
L79951 77395
" />
<path d="M80542 77395
L80204 77395
" />
<path d="M80373 77395
L80373 76805
L80317 76889
L80260 76946
L80204 76974
" />
<path d="M80795 77339
L80823 77367
L80795 77395
L80767 77367
L80795 77339
L80795 77395
" />
<path d="M81104 77395
L81217 77395
L81273 77367
L81301 77339
L81357 77255
L81385 77142
L81385 76917
L81357 76861
L81329 76833
L81273 76805
L81160 76805
L81104 76833
L81076 76861
L81048 76917
L81048 77058
L81076 77114
L81104 77142
L81160 77171
L81273 77171
L81329 77142
L81357 77114
L81385 77058
" />
<path d="M81638 77171
L82088 77171
" />
<path d="M81863 77395
L81863 76946
" />
<path d="M82623 77395
L82623 76805
" />
<path d="M82623 77367
L82566 77395
L82454 77395
L82398 77367
L82370 77339
L82341 77283
L82341 77114
L82370 77058
L82398 77030
L82454 77002
L82566 77002
L82623 77030
" />
<path d="M82820 77002
L83045 77002
" />
<path d="M82904 77395
L82904 76889
L82932 76833
L82988 76805
L83045 76805
" />
<path d="M83213 77367
L83269 77395
L83382 77395
L83438 77367
L83466 77311
L83466 77283
L83438 77227
L83382 77199
L83298 77199
L83241 77171
L83213 77114
L83213 77086
L83241 77030
L83298 77002
L83382 77002
L83438 77030
" />
<path d="M83973 77002
L83973 77480
L83944 77536
L83916 77564
L83860 77592
L83776 77592
L83719 77564
" />
<path d="M83973 77367
L83916 77395
L83804 77395
L83748 77367
L83719 77339
L83691 77283
L83691 77114
L83719 77058
L83748 77030
L83804 77002
L83916 77002
L83973 77030
" />
<path d="M84563 77395
L84226 77395
" />
<path d="M84394 77395
L84394 76805
L84338 76889
L84282 76946
L84226 76974
" />
<path d="M84816 77171
L85266 77171
" />
<path d="M85857 77395
L85519 77395
" />
<path d="M85688 77395
L85688 76805
L85632 76889
L85575 76946
L85519 76974
" />
<path d="M86110 77171
L86560 77171
" />
<path d="M86335 77395
L86335 76946
" />
<path d="M87094 77395
L87094 76805
" />
<path d="M87094 77367
L87038 77395
L86925 77395
L86869 77367
L86841 77339
L86813 77283
L86813 77114
L86841 77058
L86869 77030
L86925 77002
L87038 77002
L87094 77030
" />
<path d="M87600 77367
L87544 77395
L87431 77395
L87375 77367
L87347 77311
L87347 77086
L87375 77030
L87431 77002
L87544 77002
L87600 77030
L87628 77086
L87628 77142
L87347 77199
" />
<path d="M87881 77395
L87881 76805
" />
<path d="M87881 77030
L87938 77002
L88050 77002
L88106 77030
L88135 77058
L88163 77114
L88163 77283
L88135 77339
L88106 77367
L88050 77395
L87938 77395
L87881 77367
" />
<path d="M88725 77395
L88388 77395
" />
<path d="M88556 77395
L88556 76805
L88500 76889
L88444 76946
L88388 76974
" />
<path d="M89287 77395
L88950 77395
" />
<path d="M89119 77395
L89119 76805
L89063 76889
L89006 76946
L88950 76974
" />
<path d="M89794 77002
L89794 77395
" />
<path d="M89541 77002
L89541 77311
L89569 77367
L89625 77395
L89709 77395
L89766 77367
L89794 77339
" />
<path d="M90384 77395
L90047 77395
" />
<path d="M90215 77395
L90215 76805
L90159 76889
L90103 76946
L90047 76974
" />
</g>
<g style="fill:#000000; fill-opacity:0.0; 
stroke:#000000; stroke-width:39.3701; stroke-opacity:1; 
stroke-linecap:round; stroke-linejoin:round;">
</g>
<g style="fill:#000000; fill-opacity:0.0; 
stroke:#000000; stroke-width:59.0551; stroke-opacity:1; 
stroke-linecap:round; stroke-linejoin:round;">
<path d="M69685 75396
L112205 75396
" />
</g>
<g style="fill:#000000; fill-opacity:0.0; 
stroke:#000000; stroke-width:39.3701; stroke-opacity:1; 
stroke-linecap:round; stroke-linejoin:round;">
</g>
<g style="fill:#000000; fill-opacity:0.0; 
stroke:#000000; stroke-width:118.11; stroke-opacity:1; 
stroke-linecap:round; stroke-linejoin:round;">
<text x="103544" y="76321.7"
textLength="5711.47" font-size="787.402" lengthAdjust="spacingAndGlyphs"
text-anchor="start" opacity="0">Rev: 231022</text>
<path d="M104099 76293
L103902 76012
" />
<path d="M103761 76293
L103761 75703
L103986 75703
L104042 75731
L104070 75759
L104099 75815
L104099 75899
L104070 75956
L104042 75984
L103986 76012
L103761 76012
" />
<path d="M104577 76265
L104520 76293
L104408 76293
L104352 76265
L104323 76209
L104323 75984
L104352 75928
L104408 75899
L104520 75899
L104577 75928
L104605 75984
L104605 76040
L104323 76096
" />
<path d="M104802 75899
L104942 76293
L105083 75899
" />
<path d="M105308 76237
L105336 76265
L105308 76293
L105280 76265
L105308 76237
L105308 76293
" />
<path d="M105308 75928
L105336 75956
L105308 75984
L105280 75956
L105308 75928
L105308 75984
" />
<path d="M106011 75759
L106039 75731
L106095 75703
L106236 75703
L106292 75731
L106320 75759
L106348 75815
L106348 75871
L106320 75956
L105983 76293
L106348 76293
" />
<path d="M106545 75703
L106911 75703
L106714 75928
L106798 75928
L106854 75956
L106883 75984
L106911 76040
L106911 76181
L106883 76237
L106854 76265
L106798 76293
L106629 76293
L106573 76265
L106545 76237
" />
<path d="M107473 76293
L107136 76293
" />
<path d="M107304 76293
L107304 75703
L107248 75787
L107192 75843
L107136 75871
" />
<path d="M107839 75703
L107895 75703
L107951 75731
L107979 75759
L108007 75815
L108036 75928
L108036 76068
L108007 76181
L107979 76237
L107951 76265
L107895 76293
L107839 76293
L107782 76265
L107754 76237
L107726 76181
L107698 76068
L107698 75928
L107726 75815
L107754 75759
L107782 75731
L107839 75703
" />
<path d="M108260 75759
L108289 75731
L108345 75703
L108485 75703
L108542 75731
L108570 75759
L108598 75815
L108598 75871
L108570 75956
L108232 76293
L108598 76293
" />
<path d="M108823 75759
L108851 75731
L108907 75703
L109048 75703
L109104 75731
L109132 75759
L109160 75815
L109160 75871
L109132 75956
L108795 76293
L109160 76293
" />
</g>
<g style="fill:#000000; fill-opacity:0.0; 
stroke:#000000; stroke-width:39.3701; stroke-opacity:1; 
stroke-linecap:round; stroke-linejoin:round;">
</g>
<g style="fill:#000000; fill-opacity:0.0; 
stroke:#000000; stroke-width:59.0551; stroke-opacity:1; 
stroke-linecap:round; stroke-linejoin:round;">
<text x="70079.6" y="76321.7"
textLength="3781.21" font-size="787.402" lengthAdjust="spacingAndGlyphs"
text-anchor="start" opacity="0">Size: A4</text>
<path d="M70221 76265
L70305 76293
L70446 76293
L70502 76265
L70530 76237
L70559 76181
L70559 76124
L70530 76068
L70502 76040
L70446 76012
L70334 75984
L70277 75956
L70249 75928
L70221 75871
L70221 75815
L70249 75759
L70277 75731
L70334 75703
L70474 75703
L70559 75731
" />
<path d="M70812 76293
L70812 75899
" />
<path d="M70812 75703
L70784 75731
L70812 75759
L70840 75731
L70812 75703
L70812 75759
" />
<path d="M71037 75899
L71346 75899
L71037 76293
L71346 76293
" />
<path d="M71796 76265
L71740 76293
L71627 76293
L71571 76265
L71543 76209
L71543 75984
L71571 75928
L71627 75899
L71740 75899
L71796 75928
L71824 75984
L71824 76040
L71543 76096
" />
<path d="M72077 76237
L72105 76265
L72077 76293
L72049 76265
L72077 76237
L72077 76293
" />
<path d="M72077 75928
L72105 75956
L72077 75984
L72049 75956
L72077 75928
L72077 75984
" />
<path d="M72780 76124
L73061 76124
" />
<path d="M72724 76293
L72921 75703
L73118 76293
" />
<path d="M73568 75899
L73568 76293
" />
<path d="M73427 75674
L73286 76096
L73652 76096
" />
</g>
<g style="fill:#000000; fill-opacity:0.0; 
stroke:#000000; stroke-width:39.3701; stroke-opacity:1; 
stroke-linecap:round; stroke-linejoin:round;">
</g>
<g style="fill:#000000; fill-opacity:0.0; 
stroke:#000000; stroke-width:59.0551; stroke-opacity:1; 
stroke-linecap:round; stroke-linejoin:round;">
<text x="103544" y="77424.1"
textLength="3349.27" font-size="787.402" lengthAdjust="spacingAndGlyphs"
text-anchor="start" opacity="0">Id: 1/1</text>
<path d="M103714 77395
L103714 76805
" />
<path d="M104248 77395
L104248 76805
" />
<path d="M104248 77367
L104192 77395
L104079 77395
L104023 77367
L103995 77339
L103967 77283
L103967 77114
L103995 77058
L104023 77030
L104079 77002
L104192 77002
L104248 77030
" />
<path d="M104529 77339
L104557 77367
L104529 77395
L104501 77367
L104529 77339
L104529 77395
" />
<path d="M104529 77030
L104557 77058
L104529 77086
L104501 77058
L104529 77030
L104529 77086
" />
<path d="M105570 77395
L105232 77395
" />
<path d="M105401 77395
L105401 76805
L105345 76889
L105289 76946
L105232 76974
" />
<path d="M106245 76777
L105739 77536
" />
<path d="M106751 77395
L106413 77395
" />
<path d="M106582 77395
L106582 76805
L106526 76889
L106470 76946
L106413 76974
" />
</g>
<g style="fill:#000000; fill-opacity:0.0; 
stroke:#000000; stroke-width:39.3701; stroke-opacity:1; 
stroke-linecap:round; stroke-linejoin:round;">
</g>
<g style="fill:#000000; fill-opacity:0.0; 
stroke:#000000; stroke-width:59.0551; stroke-opacity:1; 
stroke-linecap:round; stroke-linejoin:round;">
<path d="M69685 73821
L112205 73821
" />
</g>
<g style="fill:#000000; fill-opacity:0.0; 
stroke:#000000; stroke-width:39.3701; stroke-opacity:1; 
stroke-linecap:round; stroke-linejoin:round;">
</g>
<g style="fill:#000000; fill-opacity:0.0; 
stroke:#000000; stroke-width:157.48; stroke-opacity:1; 
stroke-linecap:round; stroke-linejoin:round;">
<text x="70079.6" y="74924.1"
textLength="24323.6" font-size="1049.87" lengthAdjust="spacingAndGlyphs"
text-anchor="start" opacity="0">Title: MM16D Grow house control device</text>
<path d="M70360 74099
L70810 74099
" />
<path d="M70486 74886
L70585 74099
" />
<path d="M70974 74886
L71039 74361
" />
<path d="M71072 74099
L71030 74136
L71063 74174
L71105 74136
L71072 74099
L71063 74174
" />
<path d="M71302 74361
L71602 74361
" />
<path d="M71447 74099
L71363 74774
L71391 74849
L71461 74886
L71536 74886
" />
<path d="M71911 74886
L71841 74849
L71813 74774
L71897 74099
" />
<path d="M72516 74849
L72436 74886
L72286 74886
L72216 74849
L72187 74774
L72225 74474
L72272 74399
L72352 74361
L72501 74361
L72572 74399
L72600 74474
L72591 74549
L72206 74624
" />
<path d="M72895 74811
L72928 74849
L72886 74886
L72853 74849
L72895 74811
L72886 74886
" />
<path d="M72947 74399
L72980 74436
L72937 74474
L72905 74436
L72947 74399
L72937 74474
" />
<path d="M73861 74886
L73959 74099
L74151 74661
L74484 74099
L74386 74886
" />
<path d="M74761 74886
L74859 74099
L75051 74661
L75384 74099
L75286 74886
" />
<path d="M76073 74886
L75623 74886
" />
<path d="M75848 74886
L75946 74099
L75857 74211
L75773 74286
L75693 74324
" />
<path d="M76846 74099
L76696 74099
L76617 74136
L76574 74174
L76485 74286
L76429 74436
L76392 74736
L76420 74811
L76453 74849
L76523 74886
L76673 74886
L76753 74849
L76795 74811
L76842 74736
L76865 74549
L76837 74474
L76804 74436
L76734 74399
L76584 74399
L76504 74436
L76462 74474
L76415 74549
" />
<path d="M77160 74886
L77259 74099
L77446 74099
L77554 74136
L77620 74211
L77648 74286
L77666 74436
L77652 74549
L77596 74699
L77549 74774
L77465 74849
L77348 74886
L77160 74886
" />
<path d="M79054 74136
L78983 74099
L78871 74099
L78754 74136
L78669 74211
L78623 74286
L78566 74436
L78552 74549
L78571 74699
L78599 74774
L78665 74849
L78773 74886
L78848 74886
L78965 74849
L79007 74811
L79040 74549
L78890 74549
" />
<path d="M79335 74886
L79401 74361
" />
<path d="M79382 74511
L79429 74436
L79471 74399
L79551 74361
L79626 74361
" />
<path d="M79935 74886
L79865 74849
L79832 74811
L79804 74736
L79832 74511
L79879 74436
L79921 74399
L80001 74361
L80113 74361
L80183 74399
L80216 74436
L80244 74511
L80216 74736
L80169 74811
L80127 74849
L80047 74886
L79935 74886
" />
<path d="M80525 74361
L80610 74886
L80807 74511
L80910 74886
L81125 74361
" />
<path d="M81960 74886
L82058 74099
" />
<path d="M82297 74886
L82349 74474
L82321 74399
L82250 74361
L82138 74361
L82058 74399
L82016 74436
" />
<path d="M82785 74886
L82714 74849
L82681 74811
L82653 74736
L82681 74511
L82728 74436
L82771 74399
L82850 74361
L82963 74361
L83033 74399
L83066 74436
L83094 74511
L83066 74736
L83019 74811
L82977 74849
L82897 74886
L82785 74886
" />
<path d="M83788 74361
L83722 74886
" />
<path d="M83450 74361
L83399 74774
L83427 74849
L83497 74886
L83609 74886
L83689 74849
L83731 74811
" />
<path d="M84064 74849
L84134 74886
L84284 74886
L84364 74849
L84411 74774
L84416 74736
L84388 74661
L84317 74624
L84205 74624
L84134 74586
L84106 74511
L84111 74474
L84158 74399
L84238 74361
L84350 74361
L84420 74399
" />
<path d="M85039 74849
L84959 74886
L84809 74886
L84739 74849
L84711 74774
L84748 74474
L84795 74399
L84875 74361
L85025 74361
L85095 74399
L85123 74474
L85114 74549
L84730 74624
" />
<path d="M86351 74849
L86272 74886
L86122 74886
L86051 74849
L86019 74811
L85990 74736
L86019 74511
L86065 74436
L86108 74399
L86187 74361
L86337 74361
L86408 74399
" />
<path d="M86797 74886
L86726 74849
L86693 74811
L86665 74736
L86693 74511
L86740 74436
L86783 74399
L86862 74361
L86975 74361
L87045 74399
L87078 74436
L87106 74511
L87078 74736
L87031 74811
L86989 74849
L86909 74886
L86797 74886
" />
<path d="M87462 74361
L87397 74886
" />
<path d="M87453 74436
L87495 74399
L87575 74361
L87687 74361
L87757 74399
L87786 74474
L87734 74886
" />
<path d="M88062 74361
L88362 74361
" />
<path d="M88207 74099
L88123 74774
L88151 74849
L88221 74886
L88296 74886
" />
<path d="M88559 74886
L88624 74361
" />
<path d="M88606 74511
L88653 74436
L88695 74399
L88774 74361
L88849 74361
" />
<path d="M89159 74886
L89088 74849
L89056 74811
L89028 74736
L89056 74511
L89103 74436
L89145 74399
L89224 74361
L89337 74361
L89407 74399
L89440 74436
L89468 74511
L89440 74736
L89393 74811
L89351 74849
L89271 74886
L89159 74886
" />
<path d="M89871 74886
L89801 74849
L89773 74774
L89857 74099
" />
<path d="M91109 74886
L91207 74099
" />
<path d="M91113 74849
L91034 74886
L90884 74886
L90813 74849
L90780 74811
L90752 74736
L90780 74511
L90827 74436
L90870 74399
L90949 74361
L91099 74361
L91169 74399
" />
<path d="M91788 74849
L91708 74886
L91558 74886
L91488 74849
L91460 74774
L91498 74474
L91544 74399
L91624 74361
L91774 74361
L91844 74399
L91873 74474
L91863 74549
L91479 74624
" />
<path d="M92149 74361
L92271 74886
L92524 74361
" />
<path d="M92758 74886
L92824 74361
" />
<path d="M92857 74099
L92815 74136
L92847 74174
L92890 74136
L92857 74099
L92847 74174
" />
<path d="M93475 74849
L93396 74886
L93246 74886
L93175 74849
L93143 74811
L93115 74736
L93143 74511
L93190 74436
L93232 74399
L93311 74361
L93461 74361
L93532 74399
" />
<path d="M94113 74849
L94033 74886
L93883 74886
L93813 74849
L93785 74774
L93822 74474
L93869 74399
L93949 74361
L94099 74361
L94169 74399
L94197 74474
L94188 74549
L93804 74624
" />
</g>
<g style="fill:#000000; fill-opacity:0.0; 
stroke:#000000; stroke-width:39.3701; stroke-opacity:1; 
stroke-linecap:round; stroke-linejoin:round;">
</g>
<g style="fill:#000000; fill-opacity:0.0; 
stroke:#000000; stroke-width:59.0551; stroke-opacity:1; 
stroke-linecap:round; stroke-linejoin:round;">
<text x="70079.6" y="73408.3"
textLength="10300.3" font-size="787.402" lengthAdjust="spacingAndGlyphs"
text-anchor="start" opacity="0">File: display.kicad_pcb</text>
<path d="M70446 73070
L70249 73070
" />
<path d="M70249 73380
L70249 72789
L70530 72789
" />
<path d="M70755 73380
L70755 72986
" />
<path d="M70755 72789
L70727 72817
L70755 72845
L70784 72817
L70755 72789
L70755 72845
" />
<path d="M71121 73380
L71065 73352
L71037 73295
L71037 72789
" />
<path d="M71571 73352
L71515 73380
L71402 73380
L71346 73352
L71318 73295
L71318 73070
L71346 73014
L71402 72986
L71515 72986
L71571 73014
L71599 73070
L71599 73127
L71318 73183
" />
<path d="M71852 73323
L71880 73352
L71852 73380
L71824 73352
L71852 73323
L71852 73380
" />
<path d="M71852 73014
L71880 73042
L71852 73070
L71824 73042
L71852 73014
L71852 73070
" />
<path d="M72836 73380
L72836 72789
" />
<path d="M72836 73352
L72780 73380
L72668 73380
L72611 73352
L72583 73323
L72555 73267
L72555 73099
L72583 73042
L72611 73014
L72668 72986
L72780 72986
L72836 73014
" />
<path d="M73118 73380
L73118 72986
" />
<path d="M73118 72789
L73090 72817
L73118 72845
L73146 72817
L73118 72789
L73118 72845
" />
<path d="M73371 73352
L73427 73380
L73539 73380
L73596 73352
L73624 73295
L73624 73267
L73596 73211
L73539 73183
L73455 73183
L73399 73155
L73371 73099
L73371 73070
L73399 73014
L73455 72986
L73539 72986
L73596 73014
" />
<path d="M73877 72986
L73877 73577
" />
<path d="M73877 73014
L73933 72986
L74046 72986
L74102 73014
L74130 73042
L74158 73099
L74158 73267
L74130 73323
L74102 73352
L74046 73380
L73933 73380
L73877 73352
" />
<path d="M74496 73380
L74439 73352
L74411 73295
L74411 72789
" />
<path d="M74974 73380
L74974 73070
L74946 73014
L74889 72986
L74777 72986
L74721 73014
" />
<path d="M74974 73352
L74917 73380
L74777 73380
L74721 73352
L74692 73295
L74692 73239
L74721 73183
L74777 73155
L74917 73155
L74974 73127
" />
<path d="M75199 72986
L75339 73380
" />
<path d="M75480 72986
L75339 73380
L75283 73520
L75255 73548
L75199 73577
" />
<path d="M75705 73323
L75733 73352
L75705 73380
L75677 73352
L75705 73323
L75705 73380
" />
<path d="M75986 73380
L75986 72789
" />
<path d="M76042 73155
L76211 73380
" />
<path d="M76211 72986
L75986 73211
" />
<path d="M76464 73380
L76464 72986
" />
<path d="M76464 72789
L76436 72817
L76464 72845
L76492 72817
L76464 72789
L76464 72845
" />
<path d="M76998 73352
L76942 73380
L76830 73380
L76773 73352
L76745 73323
L76717 73267
L76717 73099
L76745 73042
L76773 73014
L76830 72986
L76942 72986
L76998 73014
" />
<path d="M77505 73380
L77505 73070
L77476 73014
L77420 72986
L77308 72986
L77251 73014
" />
<path d="M77505 73352
L77448 73380
L77308 73380
L77251 73352
L77223 73295
L77223 73239
L77251 73183
L77308 73155
L77448 73155
L77505 73127
" />
<path d="M78039 73380
L78039 72789
" />
<path d="M78039 73352
L77983 73380
L77870 73380
L77814 73352
L77786 73323
L77758 73267
L77758 73099
L77786 73042
L77814 73014
L77870 72986
L77983 72986
L78039 73014
" />
<path d="M78180 73436
L78629 73436
" />
<path d="M78770 72986
L78770 73577
" />
<path d="M78770 73014
L78826 72986
L78939 72986
L78995 73014
L79023 73042
L79051 73099
L79051 73267
L79023 73323
L78995 73352
L78939 73380
L78826 73380
L78770 73352
" />
<path d="M79557 73352
L79501 73380
L79389 73380
L79332 73352
L79304 73323
L79276 73267
L79276 73099
L79304 73042
L79332 73014
L79389 72986
L79501 72986
L79557 73014
" />
<path d="M79811 73380
L79811 72789
" />
<path d="M79811 73014
L79867 72986
L79979 72986
L80036 73014
L80064 73042
L80092 73099
L80092 73267
L80064 73323
L80036 73352
L79979 73380
L79867 73380
L79811 73352
" />
</g>
<g style="fill:#000000; fill-opacity:0.0; 
stroke:#000000; stroke-width:39.3701; stroke-opacity:1; 
stroke-linecap:round; stroke-linejoin:round;">
</g>
<g style="fill:#000000; fill-opacity:0.0; 
stroke:#000000; stroke-width:59.0551; stroke-opacity:1; 
stroke-linecap:round; stroke-linejoin:round;">
<path d="M69685 71459
L112205 71459
" />
</g>
<g style="fill:#000000; fill-opacity:0.0; 
stroke:#000000; stroke-width:39.3701; stroke-opacity:1; 
stroke-linecap:round; stroke-linejoin:round;">
</g>
<g style="fill:#000000; fill-opacity:0.0; 
stroke:#000000; stroke-width:59.0551; stroke-opacity:1; 
stroke-linecap:round; stroke-linejoin:round;">
<text x="70079.6" y="72345.4"
textLength="3236.78" font-size="787.402" lengthAdjust="spacingAndGlyphs"
text-anchor="start" opacity="0">Sheet: </text>
<path d="M70221 72289
L70305 72317
L70446 72317
L70502 72289
L70530 72260
L70559 72204
L70559 72148
L70530 72092
L70502 72064
L70446 72036
L70334 72007
L70277 71979
L70249 71951
L70221 71895
L70221 71839
L70249 71782
L70277 71754
L70334 71726
L70474 71726
L70559 71754
" />
<path d="M70812 72317
L70812 71726
" />
<path d="M71065 72317
L71065 72007
L71037 71951
L70980 71923
L70896 71923
L70840 71951
L70812 71979
" />
<path d="M71571 72289
L71515 72317
L71402 72317
L71346 72289
L71318 72232
L71318 72007
L71346 71951
L71402 71923
L71515 71923
L71571 71951
L71599 72007
L71599 72064
L71318 72120
" />
<path d="M72077 72289
L72021 72317
L71908 72317
L71852 72289
L71824 72232
L71824 72007
L71852 71951
L71908 71923
L72021 71923
L72077 71951
L72105 72007
L72105 72064
L71824 72120
" />
<path d="M72274 71923
L72499 71923
" />
<path d="M72358 71726
L72358 72232
L72386 72289
L72443 72317
L72499 72317
" />
<path d="M72696 72260
L72724 72289
L72696 72317
L72668 72289
L72696 72260
L72696 72317
" />
<path d="M72696 71951
L72724 71979
L72696 72007
L72668 71979
L72696 71951
L72696 72007
" />
</g>
<g style="fill:#000000; fill-opacity:0.0; 
stroke:#000000; stroke-width:39.3701; stroke-opacity:1; 
stroke-linecap:round; stroke-linejoin:round;">
</g>
<g style="fill:#000000; fill-opacity:0.0; 
stroke:#000000; stroke-width:118.11; stroke-opacity:1; 
stroke-linecap:round; stroke-linejoin:round;">
<text x="70079.6" y="71164.3"
textLength="17972.4" font-size="787.402" lengthAdjust="spacingAndGlyphs"
text-anchor="start" opacity="0">Pozsar Zsolt - http://www.pozsarzs.hu</text>
<path d="M70296 71136
L70296 70545
L70521 70545
L70578 70573
L70606 70601
L70634 70658
L70634 70742
L70606 70798
L70578 70826
L70521 70854
L70296 70854
" />
<path d="M70971 71136
L70915 71108
L70887 71079
L70859 71023
L70859 70854
L70887 70798
L70915 70770
L70971 70742
L71056 70742
L71112 70770
L71140 70798
L71168 70854
L71168 71023
L71140 71079
L71112 71108
L71056 71136
L70971 71136
" />
<path d="M71365 70742
L71674 70742
L71365 71136
L71674 71136
" />
<path d="M71871 71108
L71928 71136
L72040 71136
L72096 71108
L72124 71051
L72124 71023
L72096 70967
L72040 70939
L71956 70939
L71899 70911
L71871 70854
L71871 70826
L71899 70770
L71956 70742
L72040 70742
L72096 70770
" />
<path d="M72631 71136
L72631 70826
L72602 70770
L72546 70742
L72434 70742
L72377 70770
" />
<path d="M72631 71108
L72574 71136
L72434 71136
L72377 71108
L72349 71051
L72349 70995
L72377 70939
L72434 70911
L72574 70911
L72631 70883
" />
<path d="M72912 71136
L72912 70742
" />
<path d="M72912 70854
L72940 70798
L72968 70770
L73024 70742
L73081 70742
" />
<path d="M73671 70545
L74065 70545
L73671 71136
L74065 71136
" />
<path d="M74262 71108
L74318 71136
L74430 71136
L74487 71108
L74515 71051
L74515 71023
L74487 70967
L74430 70939
L74346 70939
L74290 70911
L74262 70854
L74262 70826
L74290 70770
L74346 70742
L74430 70742
L74487 70770
" />
<path d="M74852 71136
L74796 71108
L74768 71079
L74740 71023
L74740 70854
L74768 70798
L74796 70770
L74852 70742
L74937 70742
L74993 70770
L75021 70798
L75049 70854
L75049 71023
L75021 71079
L74993 71108
L74937 71136
L74852 71136
" />
<path d="M75386 71136
L75330 71108
L75302 71051
L75302 70545
" />
<path d="M75527 70742
L75752 70742
" />
<path d="M75611 70545
L75611 71051
L75640 71108
L75696 71136
L75752 71136
" />
<path d="M76399 70911
L76849 70911
" />
<path d="M77580 71136
L77580 70545
" />
<path d="M77833 71136
L77833 70826
L77805 70770
L77749 70742
L77664 70742
L77608 70770
L77580 70798
" />
<path d="M78030 70742
L78255 70742
" />
<path d="M78114 70545
L78114 71051
L78142 71108
L78199 71136
L78255 71136
" />
<path d="M78367 70742
L78592 70742
" />
<path d="M78452 70545
L78452 71051
L78480 71108
L78536 71136
L78592 71136
" />
<path d="M78789 70742
L78789 71332
" />
<path d="M78789 70770
L78845 70742
L78958 70742
L79014 70770
L79042 70798
L79070 70854
L79070 71023
L79042 71079
L79014 71108
L78958 71136
L78845 71136
L78789 71108
" />
<path d="M79323 71079
L79352 71108
L79323 71136
L79295 71108
L79323 71079
L79323 71136
" />
<path d="M79323 70770
L79352 70798
L79323 70826
L79295 70798
L79323 70770
L79323 70826
" />
<path d="M80027 70517
L79520 71276
" />
<path d="M80645 70517
L80139 71276
" />
<path d="M80786 70742
L80898 71136
L81011 70854
L81123 71136
L81236 70742
" />
<path d="M81404 70742
L81517 71136
L81629 70854
L81742 71136
L81854 70742
" />
<path d="M82023 70742
L82136 71136
L82248 70854
L82361 71136
L82473 70742
" />
<path d="M82698 71079
L82726 71108
L82698 71136
L82670 71108
L82698 71079
L82698 71136
" />
<path d="M82979 70742
L82979 71332
" />
<path d="M82979 70770
L83036 70742
L83148 70742
L83204 70770
L83232 70798
L83260 70854
L83260 71023
L83232 71079
L83204 71108
L83148 71136
L83036 71136
L82979 71108
" />
<path d="M83598 71136
L83542 71108
L83514 71079
L83485 71023
L83485 70854
L83514 70798
L83542 70770
L83598 70742
L83682 70742
L83739 70770
L83767 70798
L83795 70854
L83795 71023
L83767 71079
L83739 71108
L83682 71136
L83598 71136
" />
<path d="M83992 70742
L84301 70742
L83992 71136
L84301 71136
" />
<path d="M84498 71108
L84554 71136
L84667 71136
L84723 71108
L84751 71051
L84751 71023
L84723 70967
L84667 70939
L84582 70939
L84526 70911
L84498 70854
L84498 70826
L84526 70770
L84582 70742
L84667 70742
L84723 70770
" />
<path d="M85257 71136
L85257 70826
L85229 70770
L85173 70742
L85060 70742
L85004 70770
" />
<path d="M85257 71108
L85201 71136
L85060 71136
L85004 71108
L84976 71051
L84976 70995
L85004 70939
L85060 70911
L85201 70911
L85257 70883
" />
<path d="M85538 71136
L85538 70742
" />
<path d="M85538 70854
L85566 70798
L85595 70770
L85651 70742
L85707 70742
" />
<path d="M85848 70742
L86157 70742
L85848 71136
L86157 71136
" />
<path d="M86354 71108
L86410 71136
L86523 71136
L86579 71108
L86607 71051
L86607 71023
L86579 70967
L86523 70939
L86438 70939
L86382 70911
L86354 70854
L86354 70826
L86382 70770
L86438 70742
L86523 70742
L86579 70770
" />
<path d="M86860 71079
L86888 71108
L86860 71136
L86832 71108
L86860 71079
L86860 71136
" />
<path d="M87141 71136
L87141 70545
" />
<path d="M87394 71136
L87394 70826
L87366 70770
L87310 70742
L87226 70742
L87169 70770
L87141 70798
" />
<path d="M87929 70742
L87929 71136
" />
<path d="M87676 70742
L87676 71051
L87704 71108
L87760 71136
L87844 71136
L87901 71108
L87929 71079
" />
</g>
<g style="fill:#000000; fill-opacity:0.0; 
stroke:#000000; stroke-width:39.3701; stroke-opacity:1; 
stroke-linecap:round; stroke-linejoin:round;">
</g>
<g style="fill:#000000; fill-opacity:0.0; 
stroke:#000000; stroke-width:59.0551; stroke-opacity:1; 
stroke-linecap:round; stroke-linejoin:round;">
<text x="70079.6" y="69983.1"
textLength="6284.03" font-size="787.402" lengthAdjust="spacingAndGlyphs"
text-anchor="start" opacity="0">Display board</text>
<path d="M70249 69955
L70249 69364
L70390 69364
L70474 69392
L70530 69448
L70559 69505
L70587 69617
L70587 69701
L70559 69814
L70530 69870
L70474 69926
L70390 69955
L70249 69955
" />
<path d="M70840 69955
L70840 69561
" />
<path d="M70840 69364
L70812 69392
L70840 69420
L70868 69392
L70840 69364
L70840 69420
" />
<path d="M71093 69926
L71149 69955
L71262 69955
L71318 69926
L71346 69870
L71346 69842
L71318 69786
L71262 69758
L71177 69758
L71121 69730
L71093 69673
L71093 69645
L71121 69589
L71177 69561
L71262 69561
L71318 69589
" />
<path d="M71599 69561
L71599 70151
" />
<path d="M71599 69589
L71655 69561
L71768 69561
L71824 69589
L71852 69617
L71880 69673
L71880 69842
L71852 69898
L71824 69926
L71768 69955
L71655 69955
L71599 69926
" />
<path d="M72218 69955
L72162 69926
L72133 69870
L72133 69364
" />
<path d="M72696 69955
L72696 69645
L72668 69589
L72611 69561
L72499 69561
L72443 69589
" />
<path d="M72696 69926
L72640 69955
L72499 69955
L72443 69926
L72415 69870
L72415 69814
L72443 69758
L72499 69730
L72640 69730
L72696 69701
" />
<path d="M72921 69561
L73061 69955
" />
<path d="M73202 69561
L73061 69955
L73005 70095
L72977 70123
L72921 70151
" />
<path d="M73877 69955
L73877 69364
" />
<path d="M73877 69589
L73933 69561
L74046 69561
L74102 69589
L74130 69617
L74158 69673
L74158 69842
L74130 69898
L74102 69926
L74046 69955
L73933 69955
L73877 69926
" />
<path d="M74496 69955
L74439 69926
L74411 69898
L74383 69842
L74383 69673
L74411 69617
L74439 69589
L74496 69561
L74580 69561
L74636 69589
L74664 69617
L74692 69673
L74692 69842
L74664 69898
L74636 69926
L74580 69955
L74496 69955
" />
<path d="M75199 69955
L75199 69645
L75171 69589
L75114 69561
L75002 69561
L74946 69589
" />
<path d="M75199 69926
L75142 69955
L75002 69955
L74946 69926
L74917 69870
L74917 69814
L74946 69758
L75002 69730
L75142 69730
L75199 69701
" />
<path d="M75480 69955
L75480 69561
" />
<path d="M75480 69673
L75508 69617
L75536 69589
L75592 69561
L75649 69561
" />
<path d="M76099 69955
L76099 69364
" />
<path d="M76099 69926
L76042 69955
L75930 69955
L75874 69926
L75845 69898
L75817 69842
L75817 69673
L75845 69617
L75874 69589
L75930 69561
L76042 69561
L76099 69589
" />
</g>
<g style="fill:#000000; fill-opacity:0.0; 
stroke:#000000; stroke-width:39.3701; stroke-opacity:1; 
stroke-linecap:round; stroke-linejoin:round;">
</g>
<g style="fill:#000000; fill-opacity:0.0; 
stroke:#000000; stroke-width:59.0551; stroke-opacity:1; 
stroke-linecap:round; stroke-linejoin:round;">
<path d="M77559 75396
L77559 76577
" />
</g>
<g style="fill:#000000; fill-opacity:0.0; 
stroke:#000000; stroke-width:39.3701; stroke-opacity:1; 
stroke-linecap:round; stroke-linejoin:round;">
</g>
<g style="fill:#000000; fill-opacity:0.0; 
stroke:#000000; stroke-width:59.0551; stroke-opacity:1; 
stroke-linecap:round; stroke-linejoin:round;">
<path d="M102756 75396
L102756 77955
" />
</g>
<g style="fill:#000000; fill-opacity:0.0; 
stroke:#000000; stroke-width:118.11; stroke-opacity:1; 
stroke-linecap:round; stroke-linejoin:round;">
<text x="65200" y="26993.3"
textLength="3180.54" font-size="787.402" lengthAdjust="spacingAndGlyphs"
text-anchor="middle" opacity="0">Battery</text>
<path d="M63976 26655
L64061 26683
L64089 26712
L64117 26768
L64117 26852
L64089 26908
L64061 26937
L64004 26965
L63779 26965
L63779 26374
L63976 26374
L64032 26402
L64061 26430
L64089 26487
L64089 26543
L64061 26599
L64032 26627
L63976 26655
L63779 26655
" />
<path d="M64623 26965
L64623 26655
L64595 26599
L64539 26571
L64426 26571
L64370 26599
" />
<path d="M64623 26937
L64567 26965
L64426 26965
L64370 26937
L64342 26880
L64342 26824
L64370 26768
L64426 26740
L64567 26740
L64623 26712
" />
<path d="M64820 26571
L65045 26571
" />
<path d="M64904 26374
L64904 26880
L64932 26937
L64989 26965
L65045 26965
" />
<path d="M65157 26571
L65382 26571
" />
<path d="M65242 26374
L65242 26880
L65270 26937
L65326 26965
L65382 26965
" />
<path d="M65804 26937
L65748 26965
L65635 26965
L65579 26937
L65551 26880
L65551 26655
L65579 26599
L65635 26571
L65748 26571
L65804 26599
L65832 26655
L65832 26712
L65551 26768
" />
<path d="M66085 26965
L66085 26571
" />
<path d="M66085 26683
L66113 26627
L66142 26599
L66198 26571
L66254 26571
" />
<path d="M66395 26571
L66535 26965
" />
<path d="M66676 26571
L66535 26965
L66479 27105
L66451 27133
L66395 27162
" />
<text x="65200" y="27997.2"
textLength="2347.02" font-size="787.402" lengthAdjust="spacingAndGlyphs"
text-anchor="middle" opacity="0">6F22</text>
<path d="M64496 27378
L64384 27378
L64328 27406
L64300 27434
L64243 27519
L64215 27631
L64215 27856
L64243 27912
L64271 27941
L64328 27969
L64440 27969
L64496 27941
L64525 27912
L64553 27856
L64553 27716
L64525 27659
L64496 27631
L64440 27603
L64328 27603
L64271 27631
L64243 27659
L64215 27716
" />
<path d="M65003 27659
L64806 27659
" />
<path d="M64806 27969
L64806 27378
L65087 27378
" />
<path d="M65284 27434
L65312 27406
L65368 27378
L65509 27378
L65565 27406
L65593 27434
L65621 27491
L65621 27547
L65593 27631
L65256 27969
L65621 27969
" />
<path d="M65846 27434
L65874 27406
L65931 27378
L66071 27378
L66128 27406
L66156 27434
L66184 27491
L66184 27547
L66156 27631
L65818 27969
L66184 27969
" />
</g>
<g style="fill:#000000; fill-opacity:0.0; 
stroke:#000000; stroke-width:78.7402; stroke-opacity:1; 
stroke-linecap:round; stroke-linejoin:round;">
<path d="M57800 29200
L57800 24400
" />
<path d="M42800 29200
L57800 29200
" />
</g>
<g style="fill:#000000; fill-opacity:0.0; 
stroke:#000000; stroke-width:59.0551; stroke-opacity:1; 
stroke-linecap:round; stroke-linejoin:round;">
<path d="M72900 50900
L58400 50900
" />
<path d="M72900 22900
L72900 50900
" />
<path d="M41400 22900
L72900 22900
" />
<path d="M41400 24900
L41400 22900
" />
<path d="M41400 24900
L41400 50900
" />
<path d="M41400 50900
L58400 50900
" />
<path d="M41400 48900
L41400 50900
" />
<circle cx="46900" cy="26900" r="991.313" /> 
<path d="M45915 27490
L45915 26309
" />
<path d="M45921.7 27500.4 A1147.83 1147.83 0.0 1 0 45915.7 26309.4" />
<circle cx="46900" cy="31400" r="991.313" /> 
<path d="M45915 31990
L45915 30809
" />
<path d="M45921.7 32000.4 A1147.83 1147.83 0.0 1 0 45915.7 30809.4" />
<circle cx="46900" cy="33900" r="991.313" /> 
<path d="M45915 34490
L45915 33309
" />
<path d="M45921.7 34500.4 A1147.83 1147.83 0.0 1 0 45915.7 33309.4" />
<circle cx="46900" cy="36400" r="991.313" /> 
<path d="M45915 36990
L45915 35809
" />
<path d="M45921.7 37000.4 A1147.83 1147.83 0.0 1 0 45915.7 35809.4" />
<circle cx="46900" cy="38900" r="991.313" /> 
<path d="M45915 39490
L45915 38309
" />
<path d="M45921.7 39500.4 A1147.83 1147.83 0.0 1 0 45915.7 38309.4" />
<circle cx="46900" cy="41400" r="991.313" /> 
<path d="M45915 41990
L45915 40809
" />
<path d="M45921.7 42000.4 A1147.83 1147.83 0.0 1 0 45915.7 40809.4" />
<circle cx="46900" cy="43900" r="991.313" /> 
<path d="M45915 44490
L45915 43309
" />
<path d="M45921.7 44500.4 A1147.83 1147.83 0.0 1 0 45915.7 43309.4" />
<circle cx="46900" cy="46400" r="991.313" /> 
<path d="M45915 46990
L45915 45809
" />
<path d="M45921.7 47000.4 A1147.83 1147.83 0.0 1 0 45915.7 45809.4" />
<circle cx="46900" cy="48900" r="991.313" /> 
<path d="M45915 49490
L45915 48309
" />
<path d="M45921.7 49500.4 A1147.83 1147.83 0.0 1 0 45915.7 48309.4" />
<path d="M57401 45400
L57401 43400
" />
<path d="M58401 45400
L57401 45400
" />
<path d="M58401 43400
L58401 45400
" />
<path d="M57401 43400
L58401 43400
" />
<path d="M58401 43650
L57401 43650
" />
<path d="M58401 43900
L57401 43900
" />
<path d="M58401 43400
L57401 43900
" />
<path d="M58401 43900
L57401 43400
" />
<path d="M58401 43500
L57401 43500
" />
<path d="M58401 43800
L57401 43800
" />
<path d="M58401 43700
L57401 43700
" />
<path d="M58401 43600
L57401 43600
" />
<path d="M57901 43500
L57901 43000
" />
<path d="M57901 45400
L57901 45800
" />
<path d="M58399 37400
L58399 39400
" />
<path d="M57399 37400
L58399 37400
" />
<path d="M57399 39400
L57399 37400
" />
<path d="M58399 39400
L57399 39400
" />
<path d="M57399 39150
L58399 39150
" />
<path d="M57399 38900
L58399 38900
" />
<path d="M57399 39400
L58399 38900
" />
<path d="M57399 38900
L58399 39400
" />
<path d="M57399 39300
L58399 39300
" />
<path d="M57399 39000
L58399 39000
" />
<path d="M57399 39100
L58399 39100
" />
<path d="M57399 39200
L58399 39200
" />
<path d="M57899 39300
L57899 39800
" />
<path d="M57899 37400
L57899 37000
" />
<path d="M50400 24401
L52400 24401
" />
<path d="M50400 25401
L50400 24401
" />
<path d="M52400 25401
L50400 25401
" />
<path d="M52400 24401
L52400 25401
" />
<path d="M52150 25401
L52150 24401
" />
<path d="M51900 25401
L51900 24401
" />
<path d="M52400 25401
L51900 24401
" />
<path d="M51900 25401
L52400 24401
" />
<path d="M52300 25401
L52300 24401
" />
<path d="M52000 25401
L52000 24401
" />
<path d="M52100 25401
L52100 24401
" />
<path d="M52200 25401
L52200 24401
" />
<path d="M52300 24901
L52800 24901
" />
<path d="M50400 24901
L50000 24901
" />
<path d="M49900 26900
L50352 26900
" />
<path d="M54805 26900
L54352 26900
" />
<path d="M54352 26400
L50352 26400
" />
<path d="M54352 27400
L54352 26400
" />
<path d="M50352 27400
L54352 27400
" />
<path d="M50352 26400
L50352 27400
" />
<path d="M49900 31400
L50352 31400
" />
<path d="M54805 31400
L54352 31400
" />
<path d="M54352 30900
L50352 30900
" />
<path d="M54352 31900
L54352 30900
" />
<path d="M50352 31900
L54352 31900
" />
<path d="M50352 30900
L50352 31900
" />
<path d="M49900 33900
L50352 33900
" />
<path d="M54805 33900
L54352 33900
" />
<path d="M54352 33400
L50352 33400
" />
<path d="M54352 34400
L54352 33400
" />
<path d="M50352 34400
L54352 34400
" />
<path d="M50352 33400
L50352 34400
" />
<path d="M49900 36400
L50352 36400
" />
<path d="M54805 36400
L54352 36400
" />
<path d="M54352 35900
L50352 35900
" />
<path d="M54352 36900
L54352 35900
" />
<path d="M50352 36900
L54352 36900
" />
<path d="M50352 35900
L50352 36900
" />
<path d="M49900 38900
L50352 38900
" />
<path d="M54805 38900
L54352 38900
" />
<path d="M54352 38400
L50352 38400
" />
<path d="M54352 39400
L54352 38400
" />
<path d="M50352 39400
L54352 39400
" />
<path d="M50352 38400
L50352 39400
" />
<path d="M49900 41400
L50352 41400
" />
<path d="M54805 41400
L54352 41400
" />
<path d="M54352 40900
L50352 40900
" />
<path d="M54352 41900
L54352 40900
" />
<path d="M50352 41900
L54352 41900
" />
<path d="M50352 40900
L50352 41900
" />
<path d="M54900 43900
L54447 43900
" />
<path d="M49994 43900
L50447 43900
" />
<path d="M50447 44400
L54447 44400
" />
<path d="M50447 43400
L50447 44400
" />
<path d="M54447 43400
L50447 43400
" />
<path d="M54447 44400
L54447 43400
" />
<path d="M49900 46400
L50352 46400
" />
<path d="M54805 46400
L54352 46400
" />
<path d="M54352 45900
L50352 45900
" />
<path d="M54352 46900
L54352 45900
" />
<path d="M50352 46900
L54352 46900
" />
<path d="M50352 45900
L50352 46900
" />
</g>
<g style="fill:#000000; fill-opacity:0.0; 
stroke:#000000; stroke-width:47.2441; stroke-opacity:1; 
stroke-linecap:round; stroke-linejoin:round;">
<path d="M58423 32923
L57900 32923
" />
<path d="M58423 32400
L58423 32923
" />
<path d="M58423 31900
L57376 31900
" />
<path d="M57376 31900
L57376 30876
" />
<path d="M58423 31900
L58423 30876
" />
<path d="M58423 30876
L57376 30876
" />
<path d="M43923 47376
L42876 47376
" />
<path d="M43923 48400
L43923 47376
" />
<path d="M42876 48400
L42876 47376
" />
<path d="M43923 48400
L42876 48400
" />
<path d="M43923 48900
L43923 49423
" />
<path d="M43923 49423
L43400 49423
" />
<path d="M58376 49423
L59423 49423
" />
<path d="M58376 49400
L58376 49423
" />
<path d="M59423 49400
L59423 49423
" />
<path d="M58376 49400
L59423 49400
" />
<path d="M58376 48900
L58376 48376
" />
<path d="M58376 48376
L58900 48376
" />
<path d="M43923 30876
L43923 31400
" />
<path d="M43400 30876
L43923 30876
" />
<path d="M42900 30876
L42900 31923
" />
<path d="M42900 31923
L42876 31923
" />
<path d="M42900 30876
L42876 30876
" />
<path d="M42876 30876
L42876 31923
" />
<path d="M42876 35876
L43400 35876
" />
<path d="M42876 36400
L42876 35876
" />
<path d="M42876 36900
L43923 36900
" />
<path d="M43923 36900
L43923 41923
" />
<path d="M42876 36900
L42876 41923
" />
<path d="M42876 41923
L43923 41923
" />
<path d="M43923 27423
L43400 27423
" />
<path d="M43923 26900
L43923 27423
" />
<path d="M43923 26400
L42876 26400
" />
<path d="M42876 26400
L42876 24376
" />
<path d="M43923 26400
L43923 24376
" />
<path d="M43923 24376
L42876 24376
" />
<path d="M56923 49423
L56923 48376
" />
<path d="M54900 49423
L56923 49423
" />
<path d="M54900 48376
L56923 48376
" />
<path d="M54900 49423
L54900 48376
" />
<path d="M54400 49423
L53876 49423
" />
<path d="M53876 49423
L53876 48900
" />
<path d="M42876 42876
L43400 42876
" />
<path d="M42876 43400
L42876 42876
" />
<path d="M42876 43900
L43923 43900
" />
<path d="M43923 43900
L43923 45923
" />
<path d="M42876 43900
L42876 45923
" />
<path d="M42876 45923
L43923 45923
" />
<path d="M48876 48376
L49400 48376
" />
<path d="M48876 48900
L48876 48376
" />
<path d="M48876 49400
L49923 49400
" />
<path d="M49923 49400
L49923 49423
" />
<path d="M48876 49400
L48876 49423
" />
<path d="M48876 49423
L49923 49423
" />
<path d="M51376 49423
L52423 49423
" />
<path d="M51376 49400
L51376 49423
" />
<path d="M52423 49400
L52423 49423
" />
<path d="M51376 49400
L52423 49400
" />
<path d="M51376 48900
L51376 48376
" />
<path d="M51376 48376
L51900 48376
" />
<g >
</g>
<g >
</g>
<g >
</g>
<g >
</g>
<g >
</g>
<g >
</g>
<g >
</g>
<g >
</g>
<g >
</g>
<g >
</g>
<g >
</g>
<g >
</g>
<g >
</g>
<g >
</g>
<g >
</g>
<g >
</g>
<g >
</g>
<g >
</g>
<g >
</g>
<g >
</g>
<g >
</g>
<g >
</g>
<g >
</g>
<g >
</g>
<g >
</g>
<g >
</g>
<g >
</g>
<g >
</g>
<g >
</g>
<g >
</g>
<g >
</g>
<g >
</g>
<g >
</g>
</g>
<g style="fill:#000000; fill-opacity:0.0; 
stroke:#000000; stroke-width:47.2441; stroke-opacity:1; 
stroke-linecap:round; stroke-linejoin:round;">
</g>
<g style="fill:#000000; fill-opacity:0.0; 
stroke:#000000; stroke-width:59.0551; stroke-opacity:1; 
stroke-linecap:round; stroke-linejoin:round;">
<text x="48900" y="28096.9"
textLength="1672.1" font-size="524.934" lengthAdjust="spacingAndGlyphs"
text-anchor="middle" opacity="0">D201</text>
<path d="M48234 28078
L48234 27684
L48328 27684
L48384 27703
L48421 27740
L48440 27778
L48459 27853
L48459 27909
L48440 27984
L48421 28021
L48384 28059
L48328 28078
L48234 28078
" />
<path d="M48609 27721
L48628 27703
L48665 27684
L48759 27684
L48796 27703
L48815 27721
L48834 27759
L48834 27796
L48815 27853
L48590 28078
L48834 28078
" />
<path d="M49078 27684
L49115 27684
L49153 27703
L49171 27721
L49190 27759
L49209 27834
L49209 27928
L49190 28003
L49171 28040
L49153 28059
L49115 28078
L49078 28078
L49040 28059
L49021 28040
L49003 28003
L48984 27928
L48984 27834
L49003 27759
L49021 27721
L49040 27703
L49078 27684
" />
<path d="M49584 28078
L49359 28078
" />
<path d="M49471 28078
L49471 27684
L49434 27740
L49396 27778
L49359 27796
" />
<text x="45650" y="27846.9"
textLength="470.472" font-size="524.934" lengthAdjust="spacingAndGlyphs"
text-anchor="middle" opacity="0">K</text>
<path d="M45546 27828
L45546 27434
" />
<path d="M45771 27828
L45603 27603
" />
<path d="M45771 27434
L45546 27659
" />
<text x="48900" y="32596.9"
textLength="1595.33" font-size="524.934" lengthAdjust="spacingAndGlyphs"
text-anchor="middle" opacity="0">D202</text>
<path d="M48234 32578
L48234 32184
L48328 32184
L48384 32203
L48421 32240
L48440 32278
L48459 32353
L48459 32409
L48440 32484
L48421 32521
L48384 32559
L48328 32578
L48234 32578
" />
<path d="M48609 32221
L48628 32203
L48665 32184
L48759 32184
L48796 32203
L48815 32221
L48834 32259
L48834 32296
L48815 32353
L48590 32578
L48834 32578
" />
<path d="M49078 32184
L49115 32184
L49153 32203
L49171 32221
L49190 32259
L49209 32334
L49209 32428
L49190 32503
L49171 32540
L49153 32559
L49115 32578
L49078 32578
L49040 32559
L49021 32540
L49003 32503
L48984 32428
L48984 32334
L49003 32259
L49021 32221
L49040 32203
L49078 32184
" />
<path d="M49359 32221
L49378 32203
L49415 32184
L49509 32184
L49546 32203
L49565 32221
L49584 32259
L49584 32296
L49565 32353
L49340 32578
L49584 32578
" />
<text x="45650" y="32346.9"
textLength="470.472" font-size="524.934" lengthAdjust="spacingAndGlyphs"
text-anchor="middle" opacity="0">K</text>
<path d="M45546 32328
L45546 31934
" />
<path d="M45771 32328
L45603 32103
" />
<path d="M45771 31934
L45546 32159
" />
<text x="48900" y="35096.9"
textLength="1595.33" font-size="524.934" lengthAdjust="spacingAndGlyphs"
text-anchor="middle" opacity="0">D203</text>
<path d="M48234 35078
L48234 34684
L48328 34684
L48384 34703
L48421 34740
L48440 34778
L48459 34853
L48459 34909
L48440 34984
L48421 35021
L48384 35059
L48328 35078
L48234 35078
" />
<path d="M48609 34721
L48628 34703
L48665 34684
L48759 34684
L48796 34703
L48815 34721
L48834 34759
L48834 34796
L48815 34853
L48590 35078
L48834 35078
" />
<path d="M49078 34684
L49115 34684
L49153 34703
L49171 34721
L49190 34759
L49209 34834
L49209 34928
L49190 35003
L49171 35040
L49153 35059
L49115 35078
L49078 35078
L49040 35059
L49021 35040
L49003 35003
L48984 34928
L48984 34834
L49003 34759
L49021 34721
L49040 34703
L49078 34684
" />
<path d="M49340 34684
L49584 34684
L49453 34834
L49509 34834
L49546 34853
L49565 34871
L49584 34909
L49584 35003
L49565 35040
L49546 35059
L49509 35078
L49396 35078
L49359 35059
L49340 35040
" />
<text x="45650" y="34846.9"
textLength="470.472" font-size="524.934" lengthAdjust="spacingAndGlyphs"
text-anchor="middle" opacity="0">K</text>
<path d="M45546 34828
L45546 34434
" />
<path d="M45771 34828
L45603 34603
" />
<path d="M45771 34434
L45546 34659
" />
<text x="48900" y="37596.9"
textLength="1595.33" font-size="524.934" lengthAdjust="spacingAndGlyphs"
text-anchor="middle" opacity="0">D204</text>
<path d="M48234 37578
L48234 37184
L48328 37184
L48384 37203
L48421 37240
L48440 37278
L48459 37353
L48459 37409
L48440 37484
L48421 37521
L48384 37559
L48328 37578
L48234 37578
" />
<path d="M48609 37221
L48628 37203
L48665 37184
L48759 37184
L48796 37203
L48815 37221
L48834 37259
L48834 37296
L48815 37353
L48590 37578
L48834 37578
" />
<path d="M49078 37184
L49115 37184
L49153 37203
L49171 37221
L49190 37259
L49209 37334
L49209 37428
L49190 37503
L49171 37540
L49153 37559
L49115 37578
L49078 37578
L49040 37559
L49021 37540
L49003 37503
L48984 37428
L48984 37334
L49003 37259
L49021 37221
L49040 37203
L49078 37184
" />
<path d="M49546 37315
L49546 37578
" />
<path d="M49453 37165
L49359 37446
L49603 37446
" />
<text x="45650" y="37346.9"
textLength="470.472" font-size="524.934" lengthAdjust="spacingAndGlyphs"
text-anchor="middle" opacity="0">K</text>
<path d="M45546 37328
L45546 36934
" />
<path d="M45771 37328
L45603 37103
" />
<path d="M45771 36934
L45546 37159
" />
<text x="48900" y="40096.9"
textLength="1595.33" font-size="524.934" lengthAdjust="spacingAndGlyphs"
text-anchor="middle" opacity="0">D205</text>
<path d="M48234 40078
L48234 39684
L48328 39684
L48384 39703
L48421 39740
L48440 39778
L48459 39853
L48459 39909
L48440 39984
L48421 40021
L48384 40059
L48328 40078
L48234 40078
" />
<path d="M48609 39721
L48628 39703
L48665 39684
L48759 39684
L48796 39703
L48815 39721
L48834 39759
L48834 39796
L48815 39853
L48590 40078
L48834 40078
" />
<path d="M49078 39684
L49115 39684
L49153 39703
L49171 39721
L49190 39759
L49209 39834
L49209 39928
L49190 40003
L49171 40040
L49153 40059
L49115 40078
L49078 40078
L49040 40059
L49021 40040
L49003 40003
L48984 39928
L48984 39834
L49003 39759
L49021 39721
L49040 39703
L49078 39684
" />
<path d="M49565 39684
L49378 39684
L49359 39871
L49378 39853
L49415 39834
L49509 39834
L49546 39853
L49565 39871
L49584 39909
L49584 40003
L49565 40040
L49546 40059
L49509 40078
L49415 40078
L49378 40059
L49359 40040
" />
<text x="45650" y="39846.9"
textLength="470.472" font-size="524.934" lengthAdjust="spacingAndGlyphs"
text-anchor="middle" opacity="0">K</text>
<path d="M45546 39828
L45546 39434
" />
<path d="M45771 39828
L45603 39603
" />
<path d="M45771 39434
L45546 39659
" />
<text x="48900" y="42596.9"
textLength="1595.33" font-size="524.934" lengthAdjust="spacingAndGlyphs"
text-anchor="middle" opacity="0">D206</text>
<path d="M48234 42578
L48234 42184
L48328 42184
L48384 42203
L48421 42240
L48440 42278
L48459 42353
L48459 42409
L48440 42484
L48421 42521
L48384 42559
L48328 42578
L48234 42578
" />
<path d="M48609 42221
L48628 42203
L48665 42184
L48759 42184
L48796 42203
L48815 42221
L48834 42259
L48834 42296
L48815 42353
L48590 42578
L48834 42578
" />
<path d="M49078 42184
L49115 42184
L49153 42203
L49171 42221
L49190 42259
L49209 42334
L49209 42428
L49190 42503
L49171 42540
L49153 42559
L49115 42578
L49078 42578
L49040 42559
L49021 42540
L49003 42503
L48984 42428
L48984 42334
L49003 42259
L49021 42221
L49040 42203
L49078 42184
" />
<path d="M49546 42184
L49471 42184
L49434 42203
L49415 42221
L49378 42278
L49359 42353
L49359 42503
L49378 42540
L49396 42559
L49434 42578
L49509 42578
L49546 42559
L49565 42540
L49584 42503
L49584 42409
L49565 42371
L49546 42353
L49509 42334
L49434 42334
L49396 42353
L49378 42371
L49359 42409
" />
<text x="45650" y="42346.9"
textLength="470.472" font-size="524.934" lengthAdjust="spacingAndGlyphs"
text-anchor="middle" opacity="0">K</text>
<path d="M45546 42328
L45546 41934
" />
<path d="M45771 42328
L45603 42103
" />
<path d="M45771 41934
L45546 42159
" />
<text x="48900" y="45096.9"
textLength="1595.33" font-size="524.934" lengthAdjust="spacingAndGlyphs"
text-anchor="middle" opacity="0">D207</text>
<path d="M48234 45078
L48234 44684
L48328 44684
L48384 44703
L48421 44740
L48440 44778
L48459 44853
L48459 44909
L48440 44984
L48421 45021
L48384 45059
L48328 45078
L48234 45078
" />
<path d="M48609 44721
L48628 44703
L48665 44684
L48759 44684
L48796 44703
L48815 44721
L48834 44759
L48834 44796
L48815 44853
L48590 45078
L48834 45078
" />
<path d="M49078 44684
L49115 44684
L49153 44703
L49171 44721
L49190 44759
L49209 44834
L49209 44928
L49190 45003
L49171 45040
L49153 45059
L49115 45078
L49078 45078
L49040 45059
L49021 45040
L49003 45003
L48984 44928
L48984 44834
L49003 44759
L49021 44721
L49040 44703
L49078 44684
" />
<path d="M49340 44684
L49603 44684
L49434 45078
" />
<text x="45650" y="44846.9"
textLength="470.472" font-size="524.934" lengthAdjust="spacingAndGlyphs"
text-anchor="middle" opacity="0">K</text>
<path d="M45546 44828
L45546 44434
" />
<path d="M45771 44828
L45603 44603
" />
<path d="M45771 44434
L45546 44659
" />
<text x="48900" y="47596.9"
textLength="1595.33" font-size="524.934" lengthAdjust="spacingAndGlyphs"
text-anchor="middle" opacity="0">D208</text>
<path d="M48234 47578
L48234 47184
L48328 47184
L48384 47203
L48421 47240
L48440 47278
L48459 47353
L48459 47409
L48440 47484
L48421 47521
L48384 47559
L48328 47578
L48234 47578
" />
<path d="M48609 47221
L48628 47203
L48665 47184
L48759 47184
L48796 47203
L48815 47221
L48834 47259
L48834 47296
L48815 47353
L48590 47578
L48834 47578
" />
<path d="M49078 47184
L49115 47184
L49153 47203
L49171 47221
L49190 47259
L49209 47334
L49209 47428
L49190 47503
L49171 47540
L49153 47559
L49115 47578
L49078 47578
L49040 47559
L49021 47540
L49003 47503
L48984 47428
L48984 47334
L49003 47259
L49021 47221
L49040 47203
L49078 47184
" />
<path d="M49434 47353
L49396 47334
L49378 47315
L49359 47278
L49359 47259
L49378 47221
L49396 47203
L49434 47184
L49509 47184
L49546 47203
L49565 47221
L49584 47259
L49584 47278
L49565 47315
L49546 47334
L49509 47353
L49434 47353
L49396 47371
L49378 47390
L49359 47428
L49359 47503
L49378 47540
L49396 47559
L49434 47578
L49509 47578
L49546 47559
L49565 47540
L49584 47503
L49584 47428
L49565 47390
L49546 47371
L49509 47353
" />
<text x="45650" y="47346.9"
textLength="470.472" font-size="524.934" lengthAdjust="spacingAndGlyphs"
text-anchor="middle" opacity="0">K</text>
<path d="M45546 47328
L45546 46934
" />
<path d="M45771 47328
L45603 47103
" />
<path d="M45771 46934
L45546 47159
" />
<text x="45000" y="48196.9"
textLength="1595.33" font-size="524.934" lengthAdjust="spacingAndGlyphs"
text-anchor="middle" opacity="0">D209</text>
<path d="M44334 48178
L44334 47784
L44428 47784
L44484 47803
L44521 47840
L44540 47878
L44559 47953
L44559 48009
L44540 48084
L44521 48121
L44484 48159
L44428 48178
L44334 48178
" />
<path d="M44709 47821
L44728 47803
L44765 47784
L44859 47784
L44896 47803
L44915 47821
L44934 47859
L44934 47896
L44915 47953
L44690 48178
L44934 48178
" />
<path d="M45178 47784
L45215 47784
L45253 47803
L45271 47821
L45290 47859
L45309 47934
L45309 48028
L45290 48103
L45271 48140
L45253 48159
L45215 48178
L45178 48178
L45140 48159
L45121 48140
L45103 48103
L45084 48028
L45084 47934
L45103 47859
L45121 47821
L45140 47803
L45178 47784
" />
<path d="M45496 48178
L45571 48178
L45609 48159
L45628 48140
L45665 48084
L45684 48009
L45684 47859
L45665 47821
L45646 47803
L45609 47784
L45534 47784
L45496 47803
L45478 47821
L45459 47859
L45459 47953
L45478 47990
L45496 48009
L45534 48028
L45609 48028
L45646 48009
L45665 47990
L45684 47953
" />
<text x="45650" y="49846.9"
textLength="470.472" font-size="524.934" lengthAdjust="spacingAndGlyphs"
text-anchor="middle" opacity="0">K</text>
<path d="M45546 49828
L45546 49434
" />
<path d="M45771 49828
L45603 49603
" />
<path d="M45771 49434
L45546 49659
" />
<g transform="rotate(-90 56901 44521)">
<text x="56901" y="44717.9"
textLength="1595.33" font-size="524.934" lengthAdjust="spacingAndGlyphs"
text-anchor="middle" opacity="0">D210</text>
</g>
<path d="M57079 45186
L56685 45186
L56685 45092
L56704 45036
L56741 44999
L56779 44980
L56854 44961
L56910 44961
L56985 44980
L57022 44999
L57060 45036
L57079 45092
L57079 45186
" />
<path d="M56722 44811
L56704 44792
L56685 44755
L56685 44661
L56704 44624
L56722 44605
L56760 44586
L56797 44586
L56854 44605
L57079 44830
L57079 44586
" />
<path d="M57079 44211
L57079 44436
" />
<path d="M57079 44324
L56685 44324
L56741 44361
L56779 44399
L56797 44436
" />
<path d="M56685 43967
L56685 43930
L56704 43892
L56722 43874
L56760 43855
L56835 43836
L56929 43836
L57004 43855
L57041 43874
L57060 43892
L57079 43930
L57079 43967
L57060 44005
L57041 44024
L57004 44042
L56929 44061
L56835 44061
L56760 44042
L56722 44024
L56704 44005
L56685 43967
" />
<g transform="rotate(-90 58899 38279)">
<text x="58899" y="38475.9"
textLength="1595.33" font-size="524.934" lengthAdjust="spacingAndGlyphs"
text-anchor="middle" opacity="0">D211</text>
</g>
<path d="M59077 38944
L58683 38944
L58683 38850
L58702 38794
L58739 38757
L58777 38738
L58852 38719
L58908 38719
L58983 38738
L59020 38757
L59058 38794
L59077 38850
L59077 38944
" />
<path d="M58720 38569
L58702 38550
L58683 38513
L58683 38419
L58702 38382
L58720 38363
L58758 38344
L58795 38344
L58852 38363
L59077 38588
L59077 38344
" />
<path d="M59077 37969
L59077 38194
" />
<path d="M59077 38082
L58683 38082
L58739 38119
L58777 38157
L58795 38194
" />
<path d="M59077 37594
L59077 37819
" />
<path d="M59077 37707
L58683 37707
L58739 37744
L58777 37782
L58795 37819
" />
<text x="51400" y="26096.9"
textLength="1595.33" font-size="524.934" lengthAdjust="spacingAndGlyphs"
text-anchor="middle" opacity="0">D212</text>
<path d="M50734 26078
L50734 25684
L50828 25684
L50884 25703
L50921 25740
L50940 25778
L50959 25853
L50959 25909
L50940 25984
L50921 26021
L50884 26059
L50828 26078
L50734 26078
" />
<path d="M51109 25721
L51128 25703
L51165 25684
L51259 25684
L51296 25703
L51315 25721
L51334 25759
L51334 25796
L51315 25853
L51090 26078
L51334 26078
" />
<path d="M51709 26078
L51484 26078
" />
<path d="M51596 26078
L51596 25684
L51559 25740
L51521 25778
L51484 25796
" />
<path d="M51859 25721
L51878 25703
L51915 25684
L52009 25684
L52046 25703
L52065 25721
L52084 25759
L52084 25796
L52065 25853
L51840 26078
L52084 26078
" />
<text x="52400" y="27096.9"
textLength="1595.33" font-size="524.934" lengthAdjust="spacingAndGlyphs"
text-anchor="middle" opacity="0">R201</text>
<path d="M51959 27078
L51828 26890
" />
<path d="M51734 27078
L51734 26684
L51884 26684
L51921 26703
L51940 26721
L51959 26759
L51959 26815
L51940 26853
L51921 26871
L51884 26890
L51734 26890
" />
<path d="M52109 26721
L52128 26703
L52165 26684
L52259 26684
L52296 26703
L52315 26721
L52334 26759
L52334 26796
L52315 26853
L52090 27078
L52334 27078
" />
<path d="M52578 26684
L52615 26684
L52653 26703
L52671 26721
L52690 26759
L52709 26834
L52709 26928
L52690 27003
L52671 27040
L52653 27059
L52615 27078
L52578 27078
L52540 27059
L52521 27040
L52503 27003
L52484 26928
L52484 26834
L52503 26759
L52521 26721
L52540 26703
L52578 26684
" />
<path d="M53084 27078
L52859 27078
" />
<path d="M52971 27078
L52971 26684
L52934 26740
L52896 26778
L52859 26796
" />
<text x="52400" y="31596.9"
textLength="1595.33" font-size="524.934" lengthAdjust="spacingAndGlyphs"
text-anchor="middle" opacity="0">R202</text>
<path d="M51959 31578
L51828 31390
" />
<path d="M51734 31578
L51734 31184
L51884 31184
L51921 31203
L51940 31221
L51959 31259
L51959 31315
L51940 31353
L51921 31371
L51884 31390
L51734 31390
" />
<path d="M52109 31221
L52128 31203
L52165 31184
L52259 31184
L52296 31203
L52315 31221
L52334 31259
L52334 31296
L52315 31353
L52090 31578
L52334 31578
" />
<path d="M52578 31184
L52615 31184
L52653 31203
L52671 31221
L52690 31259
L52709 31334
L52709 31428
L52690 31503
L52671 31540
L52653 31559
L52615 31578
L52578 31578
L52540 31559
L52521 31540
L52503 31503
L52484 31428
L52484 31334
L52503 31259
L52521 31221
L52540 31203
L52578 31184
" />
<path d="M52859 31221
L52878 31203
L52915 31184
L53009 31184
L53046 31203
L53065 31221
L53084 31259
L53084 31296
L53065 31353
L52840 31578
L53084 31578
" />
<text x="52400" y="34096.9"
textLength="1595.33" font-size="524.934" lengthAdjust="spacingAndGlyphs"
text-anchor="middle" opacity="0">R203</text>
<path d="M51959 34078
L51828 33890
" />
<path d="M51734 34078
L51734 33684
L51884 33684
L51921 33703
L51940 33721
L51959 33759
L51959 33815
L51940 33853
L51921 33871
L51884 33890
L51734 33890
" />
<path d="M52109 33721
L52128 33703
L52165 33684
L52259 33684
L52296 33703
L52315 33721
L52334 33759
L52334 33796
L52315 33853
L52090 34078
L52334 34078
" />
<path d="M52578 33684
L52615 33684
L52653 33703
L52671 33721
L52690 33759
L52709 33834
L52709 33928
L52690 34003
L52671 34040
L52653 34059
L52615 34078
L52578 34078
L52540 34059
L52521 34040
L52503 34003
L52484 33928
L52484 33834
L52503 33759
L52521 33721
L52540 33703
L52578 33684
" />
<path d="M52840 33684
L53084 33684
L52953 33834
L53009 33834
L53046 33853
L53065 33871
L53084 33909
L53084 34003
L53065 34040
L53046 34059
L53009 34078
L52896 34078
L52859 34059
L52840 34040
" />
<text x="52400" y="36596.9"
textLength="1595.33" font-size="524.934" lengthAdjust="spacingAndGlyphs"
text-anchor="middle" opacity="0">R204</text>
<path d="M51959 36578
L51828 36390
" />
<path d="M51734 36578
L51734 36184
L51884 36184
L51921 36203
L51940 36221
L51959 36259
L51959 36315
L51940 36353
L51921 36371
L51884 36390
L51734 36390
" />
<path d="M52109 36221
L52128 36203
L52165 36184
L52259 36184
L52296 36203
L52315 36221
L52334 36259
L52334 36296
L52315 36353
L52090 36578
L52334 36578
" />
<path d="M52578 36184
L52615 36184
L52653 36203
L52671 36221
L52690 36259
L52709 36334
L52709 36428
L52690 36503
L52671 36540
L52653 36559
L52615 36578
L52578 36578
L52540 36559
L52521 36540
L52503 36503
L52484 36428
L52484 36334
L52503 36259
L52521 36221
L52540 36203
L52578 36184
" />
<path d="M53046 36315
L53046 36578
" />
<path d="M52953 36165
L52859 36446
L53103 36446
" />
<text x="52400" y="39096.9"
textLength="1595.33" font-size="524.934" lengthAdjust="spacingAndGlyphs"
text-anchor="middle" opacity="0">R205</text>
<path d="M51959 39078
L51828 38890
" />
<path d="M51734 39078
L51734 38684
L51884 38684
L51921 38703
L51940 38721
L51959 38759
L51959 38815
L51940 38853
L51921 38871
L51884 38890
L51734 38890
" />
<path d="M52109 38721
L52128 38703
L52165 38684
L52259 38684
L52296 38703
L52315 38721
L52334 38759
L52334 38796
L52315 38853
L52090 39078
L52334 39078
" />
<path d="M52578 38684
L52615 38684
L52653 38703
L52671 38721
L52690 38759
L52709 38834
L52709 38928
L52690 39003
L52671 39040
L52653 39059
L52615 39078
L52578 39078
L52540 39059
L52521 39040
L52503 39003
L52484 38928
L52484 38834
L52503 38759
L52521 38721
L52540 38703
L52578 38684
" />
<path d="M53065 38684
L52878 38684
L52859 38871
L52878 38853
L52915 38834
L53009 38834
L53046 38853
L53065 38871
L53084 38909
L53084 39003
L53065 39040
L53046 39059
L53009 39078
L52915 39078
L52878 39059
L52859 39040
" />
<text x="52400" y="41596.9"
textLength="1595.33" font-size="524.934" lengthAdjust="spacingAndGlyphs"
text-anchor="middle" opacity="0">R206</text>
<path d="M51959 41578
L51828 41390
" />
<path d="M51734 41578
L51734 41184
L51884 41184
L51921 41203
L51940 41221
L51959 41259
L51959 41315
L51940 41353
L51921 41371
L51884 41390
L51734 41390
" />
<path d="M52109 41221
L52128 41203
L52165 41184
L52259 41184
L52296 41203
L52315 41221
L52334 41259
L52334 41296
L52315 41353
L52090 41578
L52334 41578
" />
<path d="M52578 41184
L52615 41184
L52653 41203
L52671 41221
L52690 41259
L52709 41334
L52709 41428
L52690 41503
L52671 41540
L52653 41559
L52615 41578
L52578 41578
L52540 41559
L52521 41540
L52503 41503
L52484 41428
L52484 41334
L52503 41259
L52521 41221
L52540 41203
L52578 41184
" />
<path d="M53046 41184
L52971 41184
L52934 41203
L52915 41221
L52878 41278
L52859 41353
L52859 41503
L52878 41540
L52896 41559
L52934 41578
L53009 41578
L53046 41559
L53065 41540
L53084 41503
L53084 41409
L53065 41371
L53046 41353
L53009 41334
L52934 41334
L52896 41353
L52878 41371
L52859 41409
" />
<text x="52400" y="44096.9"
textLength="1595.33" font-size="524.934" lengthAdjust="spacingAndGlyphs"
text-anchor="middle" opacity="0">R207</text>
<path d="M51959 44078
L51828 43890
" />
<path d="M51734 44078
L51734 43684
L51884 43684
L51921 43703
L51940 43721
L51959 43759
L51959 43815
L51940 43853
L51921 43871
L51884 43890
L51734 43890
" />
<path d="M52109 43721
L52128 43703
L52165 43684
L52259 43684
L52296 43703
L52315 43721
L52334 43759
L52334 43796
L52315 43853
L52090 44078
L52334 44078
" />
<path d="M52578 43684
L52615 43684
L52653 43703
L52671 43721
L52690 43759
L52709 43834
L52709 43928
L52690 44003
L52671 44040
L52653 44059
L52615 44078
L52578 44078
L52540 44059
L52521 44040
L52503 44003
L52484 43928
L52484 43834
L52503 43759
L52521 43721
L52540 43703
L52578 43684
" />
<path d="M52840 43684
L53103 43684
L52934 44078
" />
<text x="52400" y="46596.9"
textLength="1595.33" font-size="524.934" lengthAdjust="spacingAndGlyphs"
text-anchor="middle" opacity="0">R208</text>
<path d="M51959 46578
L51828 46390
" />
<path d="M51734 46578
L51734 46184
L51884 46184
L51921 46203
L51940 46221
L51959 46259
L51959 46315
L51940 46353
L51921 46371
L51884 46390
L51734 46390
" />
<path d="M52109 46221
L52128 46203
L52165 46184
L52259 46184
L52296 46203
L52315 46221
L52334 46259
L52334 46296
L52315 46353
L52090 46578
L52334 46578
" />
<path d="M52578 46184
L52615 46184
L52653 46203
L52671 46221
L52690 46259
L52709 46334
L52709 46428
L52690 46503
L52671 46540
L52653 46559
L52615 46578
L52578 46578
L52540 46559
L52521 46540
L52503 46503
L52484 46428
L52484 46334
L52503 46259
L52521 46221
L52540 46203
L52578 46184
" />
<path d="M52934 46353
L52896 46334
L52878 46315
L52859 46278
L52859 46259
L52878 46221
L52896 46203
L52934 46184
L53009 46184
L53046 46203
L53065 46221
L53084 46259
L53084 46278
L53065 46315
L53046 46334
L53009 46353
L52934 46353
L52896 46371
L52878 46390
L52859 46428
L52859 46503
L52878 46540
L52896 46559
L52934 46578
L53009 46578
L53046 46559
L53065 46540
L53084 46503
L53084 46428
L53065 46390
L53046 46371
L53009 46353
" />
<text x="57900" y="33514.2"
textLength="1895.29" font-size="524.934" lengthAdjust="spacingAndGlyphs"
text-anchor="middle" opacity="0">BT201</text>
<path d="M57215 33289
L57271 33307
L57290 33326
L57309 33364
L57309 33420
L57290 33457
L57271 33476
L57234 33495
L57084 33495
L57084 33101
L57215 33101
L57253 33120
L57271 33139
L57290 33176
L57290 33214
L57271 33251
L57253 33270
L57215 33289
L57084 33289
" />
<path d="M57421 33101
L57646 33101
" />
<path d="M57534 33495
L57534 33101
" />
<path d="M57759 33139
L57778 33120
L57815 33101
L57909 33101
L57946 33120
L57965 33139
L57984 33176
L57984 33214
L57965 33270
L57740 33495
L57984 33495
" />
<path d="M58228 33101
L58265 33101
L58303 33120
L58321 33139
L58340 33176
L58359 33251
L58359 33345
L58340 33420
L58321 33457
L58303 33476
L58265 33495
L58228 33495
L58190 33476
L58171 33457
L58153 33420
L58134 33345
L58134 33251
L58153 33176
L58171 33139
L58190 33120
L58228 33101
" />
<path d="M58734 33495
L58509 33495
" />
<path d="M58621 33495
L58621 33101
L58584 33157
L58546 33195
L58509 33214
" />
<text x="43400" y="49996.9"
textLength="1595.33" font-size="524.934" lengthAdjust="spacingAndGlyphs"
text-anchor="middle" opacity="0">P201</text>
<path d="M42734 49978
L42734 49584
L42884 49584
L42921 49603
L42940 49621
L42959 49659
L42959 49715
L42940 49753
L42921 49771
L42884 49790
L42734 49790
" />
<path d="M43109 49621
L43128 49603
L43165 49584
L43259 49584
L43296 49603
L43315 49621
L43334 49659
L43334 49696
L43315 49753
L43090 49978
L43334 49978
" />
<path d="M43578 49584
L43615 49584
L43653 49603
L43671 49621
L43690 49659
L43709 49734
L43709 49828
L43690 49903
L43671 49940
L43653 49959
L43615 49978
L43578 49978
L43540 49959
L43521 49940
L43503 49903
L43484 49828
L43484 49734
L43503 49659
L43521 49621
L43540 49603
L43578 49584
" />
<path d="M44084 49978
L43859 49978
" />
<path d="M43971 49978
L43971 49584
L43934 49640
L43896 49678
L43859 49696
" />
<text x="58900" y="48179.5"
textLength="1595.33" font-size="524.934" lengthAdjust="spacingAndGlyphs"
text-anchor="middle" opacity="0">P202</text>
<path d="M58234 48160
L58234 47767
L58384 47767
L58421 47785
L58440 47804
L58459 47842
L58459 47898
L58440 47935
L58421 47954
L58384 47973
L58234 47973
" />
<path d="M58609 47804
L58628 47785
L58665 47767
L58759 47767
L58796 47785
L58815 47804
L58834 47842
L58834 47879
L58815 47935
L58590 48160
L58834 48160
" />
<path d="M59078 47767
L59115 47767
L59153 47785
L59171 47804
L59190 47842
L59209 47917
L59209 48010
L59190 48085
L59171 48123
L59153 48142
L59115 48160
L59078 48160
L59040 48142
L59021 48123
L59003 48085
L58984 48010
L58984 47917
L59003 47842
L59021 47804
L59040 47785
L59078 47767
" />
<path d="M59359 47804
L59378 47785
L59415 47767
L59509 47767
L59546 47785
L59565 47804
L59584 47842
L59584 47879
L59565 47935
L59340 48160
L59584 48160
" />
<text x="43400" y="30596.9"
textLength="1595.33" font-size="524.934" lengthAdjust="spacingAndGlyphs"
text-anchor="middle" opacity="0">P203</text>
<path d="M42734 30578
L42734 30184
L42884 30184
L42921 30203
L42940 30221
L42959 30259
L42959 30315
L42940 30353
L42921 30371
L42884 30390
L42734 30390
" />
<path d="M43109 30221
L43128 30203
L43165 30184
L43259 30184
L43296 30203
L43315 30221
L43334 30259
L43334 30296
L43315 30353
L43090 30578
L43334 30578
" />
<path d="M43578 30184
L43615 30184
L43653 30203
L43671 30221
L43690 30259
L43709 30334
L43709 30428
L43690 30503
L43671 30540
L43653 30559
L43615 30578
L43578 30578
L43540 30559
L43521 30540
L43503 30503
L43484 30428
L43484 30334
L43503 30259
L43521 30221
L43540 30203
L43578 30184
" />
<path d="M43840 30184
L44084 30184
L43953 30334
L44009 30334
L44046 30353
L44065 30371
L44084 30409
L44084 30503
L44065 30540
L44046 30559
L44009 30578
L43896 30578
L43859 30559
L43840 30540
" />
<text x="43400" y="42596.9"
textLength="1595.33" font-size="524.934" lengthAdjust="spacingAndGlyphs"
text-anchor="middle" opacity="0">P204</text>
<path d="M42734 42578
L42734 42184
L42884 42184
L42921 42203
L42940 42221
L42959 42259
L42959 42315
L42940 42353
L42921 42371
L42884 42390
L42734 42390
" />
<path d="M43109 42221
L43128 42203
L43165 42184
L43259 42184
L43296 42203
L43315 42221
L43334 42259
L43334 42296
L43315 42353
L43090 42578
L43334 42578
" />
<path d="M43578 42184
L43615 42184
L43653 42203
L43671 42221
L43690 42259
L43709 42334
L43709 42428
L43690 42503
L43671 42540
L43653 42559
L43615 42578
L43578 42578
L43540 42559
L43521 42540
L43503 42503
L43484 42428
L43484 42334
L43503 42259
L43521 42221
L43540 42203
L43578 42184
" />
<path d="M44046 42315
L44046 42578
" />
<path d="M43953 42165
L43859 42446
L44103 42446
" />
<text x="43400" y="28014.2"
textLength="1595.33" font-size="524.934" lengthAdjust="spacingAndGlyphs"
text-anchor="middle" opacity="0">P205</text>
<path d="M42734 27995
L42734 27601
L42884 27601
L42921 27620
L42940 27639
L42959 27676
L42959 27732
L42940 27770
L42921 27789
L42884 27807
L42734 27807
" />
<path d="M43109 27639
L43128 27620
L43165 27601
L43259 27601
L43296 27620
L43315 27639
L43334 27676
L43334 27714
L43315 27770
L43090 27995
L43334 27995
" />
<path d="M43578 27601
L43615 27601
L43653 27620
L43671 27639
L43690 27676
L43709 27751
L43709 27845
L43690 27920
L43671 27957
L43653 27976
L43615 27995
L43578 27995
L43540 27976
L43521 27957
L43503 27920
L43484 27845
L43484 27751
L43503 27676
L43521 27639
L43540 27620
L43578 27601
" />
<path d="M44065 27601
L43878 27601
L43859 27789
L43878 27770
L43915 27751
L44009 27751
L44046 27770
L44065 27789
L44084 27826
L44084 27920
L44065 27957
L44046 27976
L44009 27995
L43915 27995
L43878 27976
L43859 27957
" />
<text x="56000" y="48196.9"
textLength="1595.33" font-size="524.934" lengthAdjust="spacingAndGlyphs"
text-anchor="middle" opacity="0">P206</text>
<path d="M55334 48178
L55334 47784
L55484 47784
L55521 47803
L55540 47821
L55559 47859
L55559 47915
L55540 47953
L55521 47971
L55484 47990
L55334 47990
" />
<path d="M55709 47821
L55728 47803
L55765 47784
L55859 47784
L55896 47803
L55915 47821
L55934 47859
L55934 47896
L55915 47953
L55690 48178
L55934 48178
" />
<path d="M56178 47784
L56215 47784
L56253 47803
L56271 47821
L56290 47859
L56309 47934
L56309 48028
L56290 48103
L56271 48140
L56253 48159
L56215 48178
L56178 48178
L56140 48159
L56121 48140
L56103 48103
L56084 48028
L56084 47934
L56103 47859
L56121 47821
L56140 47803
L56178 47784
" />
<path d="M56646 47784
L56571 47784
L56534 47803
L56515 47821
L56478 47878
L56459 47953
L56459 48103
L56478 48140
L56496 48159
L56534 48178
L56609 48178
L56646 48159
L56665 48140
L56684 48103
L56684 48009
L56665 47971
L56646 47953
L56609 47934
L56534 47934
L56496 47953
L56478 47971
L56459 48009
" />
<text x="43400" y="46596.9"
textLength="1595.33" font-size="524.934" lengthAdjust="spacingAndGlyphs"
text-anchor="middle" opacity="0">P207</text>
<path d="M42734 46578
L42734 46184
L42884 46184
L42921 46203
L42940 46221
L42959 46259
L42959 46315
L42940 46353
L42921 46371
L42884 46390
L42734 46390
" />
<path d="M43109 46221
L43128 46203
L43165 46184
L43259 46184
L43296 46203
L43315 46221
L43334 46259
L43334 46296
L43315 46353
L43090 46578
L43334 46578
" />
<path d="M43578 46184
L43615 46184
L43653 46203
L43671 46221
L43690 46259
L43709 46334
L43709 46428
L43690 46503
L43671 46540
L43653 46559
L43615 46578
L43578 46578
L43540 46559
L43521 46540
L43503 46503
L43484 46428
L43484 46334
L43503 46259
L43521 46221
L43540 46203
L43578 46184
" />
<path d="M43840 46184
L44103 46184
L43934 46578
" />
<text x="49400" y="48179.5"
textLength="1595.33" font-size="524.934" lengthAdjust="spacingAndGlyphs"
text-anchor="middle" opacity="0">P208</text>
<path d="M48734 48160
L48734 47767
L48884 47767
L48921 47785
L48940 47804
L48959 47842
L48959 47898
L48940 47935
L48921 47954
L48884 47973
L48734 47973
" />
<path d="M49109 47804
L49128 47785
L49165 47767
L49259 47767
L49296 47785
L49315 47804
L49334 47842
L49334 47879
L49315 47935
L49090 48160
L49334 48160
" />
<path d="M49578 47767
L49615 47767
L49653 47785
L49671 47804
L49690 47842
L49709 47917
L49709 48010
L49690 48085
L49671 48123
L49653 48142
L49615 48160
L49578 48160
L49540 48142
L49521 48123
L49503 48085
L49484 48010
L49484 47917
L49503 47842
L49521 47804
L49540 47785
L49578 47767
" />
<path d="M49934 47935
L49896 47917
L49878 47898
L49859 47860
L49859 47842
L49878 47804
L49896 47785
L49934 47767
L50009 47767
L50046 47785
L50065 47804
L50084 47842
L50084 47860
L50065 47898
L50046 47917
L50009 47935
L49934 47935
L49896 47954
L49878 47973
L49859 48010
L49859 48085
L49878 48123
L49896 48142
L49934 48160
L50009 48160
L50046 48142
L50065 48123
L50084 48085
L50084 48010
L50065 47973
L50046 47954
L50009 47935
" />
<text x="51900" y="48179.5"
textLength="1595.33" font-size="524.934" lengthAdjust="spacingAndGlyphs"
text-anchor="middle" opacity="0">P209</text>
<path d="M51234 48160
L51234 47767
L51384 47767
L51421 47785
L51440 47804
L51459 47842
L51459 47898
L51440 47935
L51421 47954
L51384 47973
L51234 47973
" />
<path d="M51609 47804
L51628 47785
L51665 47767
L51759 47767
L51796 47785
L51815 47804
L51834 47842
L51834 47879
L51815 47935
L51590 48160
L51834 48160
" />
<path d="M52078 47767
L52115 47767
L52153 47785
L52171 47804
L52190 47842
L52209 47917
L52209 48010
L52190 48085
L52171 48123
L52153 48142
L52115 48160
L52078 48160
L52040 48142
L52021 48123
L52003 48085
L51984 48010
L51984 47917
L52003 47842
L52021 47804
L52040 47785
L52078 47767
" />
<path d="M52396 48160
L52471 48160
L52509 48142
L52528 48123
L52565 48067
L52584 47992
L52584 47842
L52565 47804
L52546 47785
L52509 47767
L52434 47767
L52396 47785
L52378 47804
L52359 47842
L52359 47935
L52378 47973
L52396 47992
L52434 48010
L52509 48010
L52546 47992
L52565 47973
L52584 47935
" />
<g >
</g>
</g> 
</svg>
