%TF.GenerationSoftware,KiCad,Pcbnew,5.1.9+dfsg1-1+deb11u1*%
%TF.CreationDate,2023-10-22T21:48:40+02:00*%
%TF.ProjectId,mainboard,6d61696e-626f-4617-9264-2e6b69636164,231022*%
%TF.SameCoordinates,Original*%
%TF.FileFunction,Legend,Top*%
%TF.FilePolarity,Positive*%
%FSLAX46Y46*%
G04 Gerber Fmt 4.6, Leading zero omitted, Abs format (unit mm)*
G04 Created by KiCad (PCBNEW 5.1.9+dfsg1-1+deb11u1) date 2023-10-22 21:48:40*
%MOMM*%
%LPD*%
G01*
G04 APERTURE LIST*
%TA.AperFunction,Profile*%
%ADD10C,0.100000*%
%TD*%
%ADD11C,0.150000*%
%ADD12C,0.120000*%
G04 APERTURE END LIST*
D10*
X145288000Y-130810000D02*
X187706000Y-130810000D01*
X186690000Y-67818000D02*
X140208000Y-67818000D01*
X74803000Y-67818000D02*
X140335000Y-67818000D01*
X74803000Y-130810000D02*
X74803000Y-67818000D01*
X145415000Y-130810000D02*
X74803000Y-130810000D01*
X235331000Y-130810000D02*
X187579000Y-130810000D01*
X235331000Y-67818000D02*
X235331000Y-130810000D01*
X186563000Y-67818000D02*
X235331000Y-67818000D01*
D11*
%TO.C,C104*%
X182642000Y-121249000D02*
X182642000Y-116749000D01*
X189642000Y-121249000D02*
X182642000Y-121249000D01*
X189642000Y-116749000D02*
X189642000Y-121249000D01*
X182642000Y-116749000D02*
X189642000Y-116749000D01*
%TO.C,R110*%
X185420000Y-112776000D02*
X185928000Y-112268000D01*
X192024000Y-114300000D02*
X192024000Y-113284000D01*
X185420000Y-114300000D02*
X192024000Y-114300000D01*
X185420000Y-112268000D02*
X185420000Y-114300000D01*
X192024000Y-112268000D02*
X185420000Y-112268000D01*
X192024000Y-113284000D02*
X192024000Y-112268000D01*
X192532000Y-113284000D02*
X192024000Y-113284000D01*
X184912000Y-113284000D02*
X185420000Y-113284000D01*
%TO.C,R105*%
X164719000Y-89916000D02*
X164211000Y-89408000D01*
X166243000Y-83312000D02*
X165227000Y-83312000D01*
X166243000Y-89916000D02*
X166243000Y-83312000D01*
X164211000Y-89916000D02*
X166243000Y-89916000D01*
X164211000Y-83312000D02*
X164211000Y-89916000D01*
X165227000Y-83312000D02*
X164211000Y-83312000D01*
X165227000Y-82804000D02*
X165227000Y-83312000D01*
X165227000Y-90424000D02*
X165227000Y-89916000D01*
%TO.C,R106*%
X171704000Y-89916000D02*
X171196000Y-89408000D01*
X173228000Y-83312000D02*
X172212000Y-83312000D01*
X173228000Y-89916000D02*
X173228000Y-83312000D01*
X171196000Y-89916000D02*
X173228000Y-89916000D01*
X171196000Y-83312000D02*
X171196000Y-89916000D01*
X172212000Y-83312000D02*
X171196000Y-83312000D01*
X172212000Y-82804000D02*
X172212000Y-83312000D01*
X172212000Y-90424000D02*
X172212000Y-89916000D01*
%TO.C,R107*%
X168529000Y-89916000D02*
X168021000Y-89408000D01*
X170053000Y-83312000D02*
X169037000Y-83312000D01*
X170053000Y-89916000D02*
X170053000Y-83312000D01*
X168021000Y-89916000D02*
X170053000Y-89916000D01*
X168021000Y-83312000D02*
X168021000Y-89916000D01*
X169037000Y-83312000D02*
X168021000Y-83312000D01*
X169037000Y-82804000D02*
X169037000Y-83312000D01*
X169037000Y-90424000D02*
X169037000Y-89916000D01*
%TO.C,R108*%
X161544000Y-89916000D02*
X161036000Y-89408000D01*
X163068000Y-83312000D02*
X162052000Y-83312000D01*
X163068000Y-89916000D02*
X163068000Y-83312000D01*
X161036000Y-89916000D02*
X163068000Y-89916000D01*
X161036000Y-83312000D02*
X161036000Y-89916000D01*
X162052000Y-83312000D02*
X161036000Y-83312000D01*
X162052000Y-82804000D02*
X162052000Y-83312000D01*
X162052000Y-90424000D02*
X162052000Y-89916000D01*
%TO.C,R109*%
X161544000Y-100711000D02*
X161036000Y-100203000D01*
X163068000Y-94107000D02*
X162052000Y-94107000D01*
X163068000Y-100711000D02*
X163068000Y-94107000D01*
X161036000Y-100711000D02*
X163068000Y-100711000D01*
X161036000Y-94107000D02*
X161036000Y-100711000D01*
X162052000Y-94107000D02*
X161036000Y-94107000D01*
X162052000Y-93599000D02*
X162052000Y-94107000D01*
X162052000Y-101219000D02*
X162052000Y-100711000D01*
%TO.C,C101*%
X113864500Y-119888000D02*
G75*
G03*
X113864500Y-119888000I-4037500J0D01*
G01*
X112577000Y-119888000D02*
G75*
G03*
X112577000Y-119888000I-1000000J0D01*
G01*
X113822000Y-119688000D02*
X113822000Y-120088000D01*
X113682000Y-118821000D02*
X113682000Y-120955000D01*
X113542000Y-118405000D02*
X113542000Y-121371000D01*
X113402000Y-118094000D02*
X113402000Y-121682000D01*
X113262000Y-117838000D02*
X113262000Y-121938000D01*
X113122000Y-117620000D02*
X113122000Y-122156000D01*
X112982000Y-117429000D02*
X112982000Y-122347000D01*
X112842000Y-117259000D02*
X112842000Y-122517000D01*
X112702000Y-117107000D02*
X112702000Y-122669000D01*
X112562000Y-120061000D02*
X112562000Y-122807000D01*
X112562000Y-116969000D02*
X112562000Y-119715000D01*
X112422000Y-120423000D02*
X112422000Y-122932000D01*
X112422000Y-116844000D02*
X112422000Y-119353000D01*
X112282000Y-120597000D02*
X112282000Y-123046000D01*
X112282000Y-116730000D02*
X112282000Y-119179000D01*
X112142000Y-120713000D02*
X112142000Y-123150000D01*
X112142000Y-116626000D02*
X112142000Y-119063000D01*
X112002000Y-120793000D02*
X112002000Y-123245000D01*
X112002000Y-116531000D02*
X112002000Y-118983000D01*
X111862000Y-120847000D02*
X111862000Y-123332000D01*
X111862000Y-116444000D02*
X111862000Y-118929000D01*
X111722000Y-120877000D02*
X111722000Y-123411000D01*
X111722000Y-116365000D02*
X111722000Y-118899000D01*
X111582000Y-120888000D02*
X111582000Y-123482000D01*
X111582000Y-116294000D02*
X111582000Y-118888000D01*
X111442000Y-120879000D02*
X111442000Y-123547000D01*
X111442000Y-116229000D02*
X111442000Y-118897000D01*
X111302000Y-120849000D02*
X111302000Y-123606000D01*
X111302000Y-116170000D02*
X111302000Y-118927000D01*
X111162000Y-120798000D02*
X111162000Y-123659000D01*
X111162000Y-116117000D02*
X111162000Y-118978000D01*
X111022000Y-120720000D02*
X111022000Y-123705000D01*
X111022000Y-116071000D02*
X111022000Y-119056000D01*
X110882000Y-120607000D02*
X110882000Y-123746000D01*
X110882000Y-116030000D02*
X110882000Y-119169000D01*
X110742000Y-120438000D02*
X110742000Y-123782000D01*
X110742000Y-115994000D02*
X110742000Y-119338000D01*
X110602000Y-120110000D02*
X110602000Y-123812000D01*
X110602000Y-115964000D02*
X110602000Y-119666000D01*
X110462000Y-115939000D02*
X110462000Y-123837000D01*
X110322000Y-115919000D02*
X110322000Y-123857000D01*
X110182000Y-115904000D02*
X110182000Y-123872000D01*
X110042000Y-115894000D02*
X110042000Y-123882000D01*
X109902000Y-115889000D02*
X109902000Y-123887000D01*
%TO.C,C102*%
X113864500Y-105918000D02*
G75*
G03*
X113864500Y-105918000I-4037500J0D01*
G01*
X112577000Y-105918000D02*
G75*
G03*
X112577000Y-105918000I-1000000J0D01*
G01*
X113822000Y-105718000D02*
X113822000Y-106118000D01*
X113682000Y-104851000D02*
X113682000Y-106985000D01*
X113542000Y-104435000D02*
X113542000Y-107401000D01*
X113402000Y-104124000D02*
X113402000Y-107712000D01*
X113262000Y-103868000D02*
X113262000Y-107968000D01*
X113122000Y-103650000D02*
X113122000Y-108186000D01*
X112982000Y-103459000D02*
X112982000Y-108377000D01*
X112842000Y-103289000D02*
X112842000Y-108547000D01*
X112702000Y-103137000D02*
X112702000Y-108699000D01*
X112562000Y-106091000D02*
X112562000Y-108837000D01*
X112562000Y-102999000D02*
X112562000Y-105745000D01*
X112422000Y-106453000D02*
X112422000Y-108962000D01*
X112422000Y-102874000D02*
X112422000Y-105383000D01*
X112282000Y-106627000D02*
X112282000Y-109076000D01*
X112282000Y-102760000D02*
X112282000Y-105209000D01*
X112142000Y-106743000D02*
X112142000Y-109180000D01*
X112142000Y-102656000D02*
X112142000Y-105093000D01*
X112002000Y-106823000D02*
X112002000Y-109275000D01*
X112002000Y-102561000D02*
X112002000Y-105013000D01*
X111862000Y-106877000D02*
X111862000Y-109362000D01*
X111862000Y-102474000D02*
X111862000Y-104959000D01*
X111722000Y-106907000D02*
X111722000Y-109441000D01*
X111722000Y-102395000D02*
X111722000Y-104929000D01*
X111582000Y-106918000D02*
X111582000Y-109512000D01*
X111582000Y-102324000D02*
X111582000Y-104918000D01*
X111442000Y-106909000D02*
X111442000Y-109577000D01*
X111442000Y-102259000D02*
X111442000Y-104927000D01*
X111302000Y-106879000D02*
X111302000Y-109636000D01*
X111302000Y-102200000D02*
X111302000Y-104957000D01*
X111162000Y-106828000D02*
X111162000Y-109689000D01*
X111162000Y-102147000D02*
X111162000Y-105008000D01*
X111022000Y-106750000D02*
X111022000Y-109735000D01*
X111022000Y-102101000D02*
X111022000Y-105086000D01*
X110882000Y-106637000D02*
X110882000Y-109776000D01*
X110882000Y-102060000D02*
X110882000Y-105199000D01*
X110742000Y-106468000D02*
X110742000Y-109812000D01*
X110742000Y-102024000D02*
X110742000Y-105368000D01*
X110602000Y-106140000D02*
X110602000Y-109842000D01*
X110602000Y-101994000D02*
X110602000Y-105696000D01*
X110462000Y-101969000D02*
X110462000Y-109867000D01*
X110322000Y-101949000D02*
X110322000Y-109887000D01*
X110182000Y-101934000D02*
X110182000Y-109902000D01*
X110042000Y-101924000D02*
X110042000Y-109912000D01*
X109902000Y-101919000D02*
X109902000Y-109917000D01*
%TO.C,C103*%
X115352000Y-91964000D02*
X119852000Y-91964000D01*
X115352000Y-98964000D02*
X115352000Y-91964000D01*
X119852000Y-98964000D02*
X115352000Y-98964000D01*
X119852000Y-91964000D02*
X119852000Y-98964000D01*
%TO.C,D101*%
X87503000Y-101602540D02*
X92583000Y-101602540D01*
X87503000Y-104142540D02*
X87503000Y-101602540D01*
X92583000Y-104142540D02*
X87503000Y-104142540D01*
X92583000Y-101602540D02*
X92583000Y-104142540D01*
X91948000Y-104142540D02*
X91948000Y-101602540D01*
X91313000Y-104142540D02*
X91313000Y-101602540D01*
X92583000Y-104142540D02*
X91313000Y-101602540D01*
X91313000Y-104142540D02*
X92583000Y-101602540D01*
X92329000Y-104142540D02*
X92329000Y-101602540D01*
X91567000Y-104142540D02*
X91567000Y-101602540D01*
X91821000Y-104142540D02*
X91821000Y-101602540D01*
X92075000Y-104142540D02*
X92075000Y-101602540D01*
X92329000Y-102872540D02*
X93599000Y-102872540D01*
X87503000Y-102872540D02*
X86487000Y-102872540D01*
%TO.C,D102*%
X92583000Y-109217460D02*
X87503000Y-109217460D01*
X92583000Y-106677460D02*
X92583000Y-109217460D01*
X87503000Y-106677460D02*
X92583000Y-106677460D01*
X87503000Y-109217460D02*
X87503000Y-106677460D01*
X88138000Y-106677460D02*
X88138000Y-109217460D01*
X88773000Y-106677460D02*
X88773000Y-109217460D01*
X87503000Y-106677460D02*
X88773000Y-109217460D01*
X88773000Y-106677460D02*
X87503000Y-109217460D01*
X87757000Y-106677460D02*
X87757000Y-109217460D01*
X88519000Y-106677460D02*
X88519000Y-109217460D01*
X88265000Y-106677460D02*
X88265000Y-109217460D01*
X88011000Y-106677460D02*
X88011000Y-109217460D01*
X87757000Y-107947460D02*
X86487000Y-107947460D01*
X92583000Y-107947460D02*
X93599000Y-107947460D01*
%TO.C,D103*%
X87503000Y-111762540D02*
X92583000Y-111762540D01*
X87503000Y-114302540D02*
X87503000Y-111762540D01*
X92583000Y-114302540D02*
X87503000Y-114302540D01*
X92583000Y-111762540D02*
X92583000Y-114302540D01*
X91948000Y-114302540D02*
X91948000Y-111762540D01*
X91313000Y-114302540D02*
X91313000Y-111762540D01*
X92583000Y-114302540D02*
X91313000Y-111762540D01*
X91313000Y-114302540D02*
X92583000Y-111762540D01*
X92329000Y-114302540D02*
X92329000Y-111762540D01*
X91567000Y-114302540D02*
X91567000Y-111762540D01*
X91821000Y-114302540D02*
X91821000Y-111762540D01*
X92075000Y-114302540D02*
X92075000Y-111762540D01*
X92329000Y-113032540D02*
X93599000Y-113032540D01*
X87503000Y-113032540D02*
X86487000Y-113032540D01*
%TO.C,D104*%
X92583000Y-119377460D02*
X87503000Y-119377460D01*
X92583000Y-116837460D02*
X92583000Y-119377460D01*
X87503000Y-116837460D02*
X92583000Y-116837460D01*
X87503000Y-119377460D02*
X87503000Y-116837460D01*
X88138000Y-116837460D02*
X88138000Y-119377460D01*
X88773000Y-116837460D02*
X88773000Y-119377460D01*
X87503000Y-116837460D02*
X88773000Y-119377460D01*
X88773000Y-116837460D02*
X87503000Y-119377460D01*
X87757000Y-116837460D02*
X87757000Y-119377460D01*
X88519000Y-116837460D02*
X88519000Y-119377460D01*
X88265000Y-116837460D02*
X88265000Y-119377460D01*
X88011000Y-116837460D02*
X88011000Y-119377460D01*
X87757000Y-118107460D02*
X86487000Y-118107460D01*
X92583000Y-118107460D02*
X93599000Y-118107460D01*
%TO.C,D105*%
X87503000Y-78742540D02*
X92583000Y-78742540D01*
X87503000Y-81282540D02*
X87503000Y-78742540D01*
X92583000Y-81282540D02*
X87503000Y-81282540D01*
X92583000Y-78742540D02*
X92583000Y-81282540D01*
X91948000Y-81282540D02*
X91948000Y-78742540D01*
X91313000Y-81282540D02*
X91313000Y-78742540D01*
X92583000Y-81282540D02*
X91313000Y-78742540D01*
X91313000Y-81282540D02*
X92583000Y-78742540D01*
X92329000Y-81282540D02*
X92329000Y-78742540D01*
X91567000Y-81282540D02*
X91567000Y-78742540D01*
X91821000Y-81282540D02*
X91821000Y-78742540D01*
X92075000Y-81282540D02*
X92075000Y-78742540D01*
X92329000Y-80012540D02*
X93599000Y-80012540D01*
X87503000Y-80012540D02*
X86487000Y-80012540D01*
%TO.C,D106*%
X92583000Y-86357460D02*
X87503000Y-86357460D01*
X92583000Y-83817460D02*
X92583000Y-86357460D01*
X87503000Y-83817460D02*
X92583000Y-83817460D01*
X87503000Y-86357460D02*
X87503000Y-83817460D01*
X88138000Y-83817460D02*
X88138000Y-86357460D01*
X88773000Y-83817460D02*
X88773000Y-86357460D01*
X87503000Y-83817460D02*
X88773000Y-86357460D01*
X88773000Y-83817460D02*
X87503000Y-86357460D01*
X87757000Y-83817460D02*
X87757000Y-86357460D01*
X88519000Y-83817460D02*
X88519000Y-86357460D01*
X88265000Y-83817460D02*
X88265000Y-86357460D01*
X88011000Y-83817460D02*
X88011000Y-86357460D01*
X87757000Y-85087460D02*
X86487000Y-85087460D01*
X92583000Y-85087460D02*
X93599000Y-85087460D01*
%TO.C,D107*%
X87503000Y-88902540D02*
X92583000Y-88902540D01*
X87503000Y-91442540D02*
X87503000Y-88902540D01*
X92583000Y-91442540D02*
X87503000Y-91442540D01*
X92583000Y-88902540D02*
X92583000Y-91442540D01*
X91948000Y-91442540D02*
X91948000Y-88902540D01*
X91313000Y-91442540D02*
X91313000Y-88902540D01*
X92583000Y-91442540D02*
X91313000Y-88902540D01*
X91313000Y-91442540D02*
X92583000Y-88902540D01*
X92329000Y-91442540D02*
X92329000Y-88902540D01*
X91567000Y-91442540D02*
X91567000Y-88902540D01*
X91821000Y-91442540D02*
X91821000Y-88902540D01*
X92075000Y-91442540D02*
X92075000Y-88902540D01*
X92329000Y-90172540D02*
X93599000Y-90172540D01*
X87503000Y-90172540D02*
X86487000Y-90172540D01*
%TO.C,D108*%
X92583000Y-96517460D02*
X87503000Y-96517460D01*
X92583000Y-93977460D02*
X92583000Y-96517460D01*
X87503000Y-93977460D02*
X92583000Y-93977460D01*
X87503000Y-96517460D02*
X87503000Y-93977460D01*
X88138000Y-93977460D02*
X88138000Y-96517460D01*
X88773000Y-93977460D02*
X88773000Y-96517460D01*
X87503000Y-93977460D02*
X88773000Y-96517460D01*
X88773000Y-93977460D02*
X87503000Y-96517460D01*
X87757000Y-93977460D02*
X87757000Y-96517460D01*
X88519000Y-93977460D02*
X88519000Y-96517460D01*
X88265000Y-93977460D02*
X88265000Y-96517460D01*
X88011000Y-93977460D02*
X88011000Y-96517460D01*
X87757000Y-95247460D02*
X86487000Y-95247460D01*
X92583000Y-95247460D02*
X93599000Y-95247460D01*
%TO.C,U101*%
X109601000Y-89535000D02*
X114935000Y-89535000D01*
X109601000Y-89535000D02*
X104267000Y-89535000D01*
X104267000Y-81026000D02*
X104267000Y-89535000D01*
X114935000Y-81026000D02*
X104267000Y-81026000D01*
X114935000Y-89535000D02*
X114935000Y-81026000D01*
X104267000Y-73025000D02*
X104267000Y-81026000D01*
X114935000Y-73025000D02*
X104267000Y-73025000D01*
X114935000Y-81026000D02*
X114935000Y-73025000D01*
X112115472Y-76454000D02*
G75*
G03*
X112115472Y-76454000I-2514472J0D01*
G01*
X112141000Y-89535000D02*
X112141000Y-90932000D01*
X109601000Y-89535000D02*
X109601000Y-90932000D01*
X107061000Y-89535000D02*
X107061000Y-90932000D01*
%TO.C,D109*%
X123949460Y-115824000D02*
X123949460Y-120904000D01*
X121409460Y-115824000D02*
X123949460Y-115824000D01*
X121409460Y-120904000D02*
X121409460Y-115824000D01*
X123949460Y-120904000D02*
X121409460Y-120904000D01*
X121409460Y-120269000D02*
X123949460Y-120269000D01*
X121409460Y-119634000D02*
X123949460Y-119634000D01*
X121409460Y-120904000D02*
X123949460Y-119634000D01*
X121409460Y-119634000D02*
X123949460Y-120904000D01*
X121409460Y-120650000D02*
X123949460Y-120650000D01*
X121409460Y-119888000D02*
X123949460Y-119888000D01*
X121409460Y-120142000D02*
X123949460Y-120142000D01*
X121409460Y-120396000D02*
X123949460Y-120396000D01*
X122679460Y-120650000D02*
X122679460Y-121920000D01*
X122679460Y-115824000D02*
X122679460Y-114808000D01*
%TO.C,D110*%
X129029460Y-115824000D02*
X129029460Y-120904000D01*
X126489460Y-115824000D02*
X129029460Y-115824000D01*
X126489460Y-120904000D02*
X126489460Y-115824000D01*
X129029460Y-120904000D02*
X126489460Y-120904000D01*
X126489460Y-120269000D02*
X129029460Y-120269000D01*
X126489460Y-119634000D02*
X129029460Y-119634000D01*
X126489460Y-120904000D02*
X129029460Y-119634000D01*
X126489460Y-119634000D02*
X129029460Y-120904000D01*
X126489460Y-120650000D02*
X129029460Y-120650000D01*
X126489460Y-119888000D02*
X129029460Y-119888000D01*
X126489460Y-120142000D02*
X129029460Y-120142000D01*
X126489460Y-120396000D02*
X129029460Y-120396000D01*
X127759460Y-120650000D02*
X127759460Y-121920000D01*
X127759460Y-115824000D02*
X127759460Y-114808000D01*
%TO.C,D111*%
X121414540Y-106934000D02*
X121414540Y-101854000D01*
X123954540Y-106934000D02*
X121414540Y-106934000D01*
X123954540Y-101854000D02*
X123954540Y-106934000D01*
X121414540Y-101854000D02*
X123954540Y-101854000D01*
X123954540Y-102489000D02*
X121414540Y-102489000D01*
X123954540Y-103124000D02*
X121414540Y-103124000D01*
X123954540Y-101854000D02*
X121414540Y-103124000D01*
X123954540Y-103124000D02*
X121414540Y-101854000D01*
X123954540Y-102108000D02*
X121414540Y-102108000D01*
X123954540Y-102870000D02*
X121414540Y-102870000D01*
X123954540Y-102616000D02*
X121414540Y-102616000D01*
X123954540Y-102362000D02*
X121414540Y-102362000D01*
X122684540Y-102108000D02*
X122684540Y-100838000D01*
X122684540Y-106934000D02*
X122684540Y-107950000D01*
%TO.C,D112*%
X126494540Y-106934000D02*
X126494540Y-101854000D01*
X129034540Y-106934000D02*
X126494540Y-106934000D01*
X129034540Y-101854000D02*
X129034540Y-106934000D01*
X126494540Y-101854000D02*
X129034540Y-101854000D01*
X129034540Y-102489000D02*
X126494540Y-102489000D01*
X129034540Y-103124000D02*
X126494540Y-103124000D01*
X129034540Y-101854000D02*
X126494540Y-103124000D01*
X129034540Y-103124000D02*
X126494540Y-101854000D01*
X129034540Y-102108000D02*
X126494540Y-102108000D01*
X129034540Y-102870000D02*
X126494540Y-102870000D01*
X129034540Y-102616000D02*
X126494540Y-102616000D01*
X129034540Y-102362000D02*
X126494540Y-102362000D01*
X127764540Y-102108000D02*
X127764540Y-100838000D01*
X127764540Y-106934000D02*
X127764540Y-107950000D01*
%TO.C,R101*%
X132715000Y-113792000D02*
X133223000Y-114300000D01*
X131191000Y-120396000D02*
X132207000Y-120396000D01*
X131191000Y-113792000D02*
X131191000Y-120396000D01*
X133223000Y-113792000D02*
X131191000Y-113792000D01*
X133223000Y-120396000D02*
X133223000Y-113792000D01*
X132207000Y-120396000D02*
X133223000Y-120396000D01*
X132207000Y-120904000D02*
X132207000Y-120396000D01*
X132207000Y-113284000D02*
X132207000Y-113792000D01*
%TO.C,R102*%
X135890000Y-113792000D02*
X136398000Y-114300000D01*
X134366000Y-120396000D02*
X135382000Y-120396000D01*
X134366000Y-113792000D02*
X134366000Y-120396000D01*
X136398000Y-113792000D02*
X134366000Y-113792000D01*
X136398000Y-120396000D02*
X136398000Y-113792000D01*
X135382000Y-120396000D02*
X136398000Y-120396000D01*
X135382000Y-120904000D02*
X135382000Y-120396000D01*
X135382000Y-113284000D02*
X135382000Y-113792000D01*
%TO.C,R103*%
X139700000Y-113792000D02*
X140208000Y-114300000D01*
X138176000Y-120396000D02*
X139192000Y-120396000D01*
X138176000Y-113792000D02*
X138176000Y-120396000D01*
X140208000Y-113792000D02*
X138176000Y-113792000D01*
X140208000Y-120396000D02*
X140208000Y-113792000D01*
X139192000Y-120396000D02*
X140208000Y-120396000D01*
X139192000Y-120904000D02*
X139192000Y-120396000D01*
X139192000Y-113284000D02*
X139192000Y-113792000D01*
%TO.C,R104*%
X142875000Y-113792000D02*
X143383000Y-114300000D01*
X141351000Y-120396000D02*
X142367000Y-120396000D01*
X141351000Y-113792000D02*
X141351000Y-120396000D01*
X143383000Y-113792000D02*
X141351000Y-113792000D01*
X143383000Y-120396000D02*
X143383000Y-113792000D01*
X142367000Y-120396000D02*
X143383000Y-120396000D01*
X142367000Y-120904000D02*
X142367000Y-120396000D01*
X142367000Y-113284000D02*
X142367000Y-113792000D01*
%TO.C,U102*%
X124197000Y-94734000D02*
X124197000Y-96019000D01*
X132597000Y-94734000D02*
X132597000Y-87384000D01*
X122927000Y-94734000D02*
X122927000Y-87384000D01*
X132597000Y-94734000D02*
X131327000Y-94734000D01*
X132597000Y-87384000D02*
X131327000Y-87384000D01*
X122927000Y-87384000D02*
X124197000Y-87384000D01*
X122927000Y-94734000D02*
X124197000Y-94734000D01*
%TO.C,U103*%
X136262000Y-94734000D02*
X136262000Y-96019000D01*
X144662000Y-94734000D02*
X144662000Y-87384000D01*
X134992000Y-94734000D02*
X134992000Y-87384000D01*
X144662000Y-94734000D02*
X143392000Y-94734000D01*
X144662000Y-87384000D02*
X143392000Y-87384000D01*
X134992000Y-87384000D02*
X136262000Y-87384000D01*
X134992000Y-94734000D02*
X136262000Y-94734000D01*
%TO.C,U104*%
X124197000Y-81399000D02*
X124197000Y-82684000D01*
X132597000Y-81399000D02*
X132597000Y-74049000D01*
X122927000Y-81399000D02*
X122927000Y-74049000D01*
X132597000Y-81399000D02*
X131327000Y-81399000D01*
X132597000Y-74049000D02*
X131327000Y-74049000D01*
X122927000Y-74049000D02*
X124197000Y-74049000D01*
X122927000Y-81399000D02*
X124197000Y-81399000D01*
%TO.C,U105*%
X136262000Y-81399000D02*
X136262000Y-82684000D01*
X144662000Y-81399000D02*
X144662000Y-74049000D01*
X134992000Y-81399000D02*
X134992000Y-74049000D01*
X144662000Y-81399000D02*
X143392000Y-81399000D01*
X144662000Y-74049000D02*
X143392000Y-74049000D01*
X134992000Y-74049000D02*
X136262000Y-74049000D01*
X134992000Y-81399000D02*
X136262000Y-81399000D01*
%TO.C,D113*%
X218696540Y-94107000D02*
X218696540Y-89027000D01*
X221236540Y-94107000D02*
X218696540Y-94107000D01*
X221236540Y-89027000D02*
X221236540Y-94107000D01*
X218696540Y-89027000D02*
X221236540Y-89027000D01*
X221236540Y-89662000D02*
X218696540Y-89662000D01*
X221236540Y-90297000D02*
X218696540Y-90297000D01*
X221236540Y-89027000D02*
X218696540Y-90297000D01*
X221236540Y-90297000D02*
X218696540Y-89027000D01*
X221236540Y-89281000D02*
X218696540Y-89281000D01*
X221236540Y-90043000D02*
X218696540Y-90043000D01*
X221236540Y-89789000D02*
X218696540Y-89789000D01*
X221236540Y-89535000D02*
X218696540Y-89535000D01*
X219966540Y-89281000D02*
X219966540Y-88011000D01*
X219966540Y-94107000D02*
X219966540Y-95123000D01*
%TO.C,D114*%
X222506540Y-96647000D02*
X222506540Y-91567000D01*
X225046540Y-96647000D02*
X222506540Y-96647000D01*
X225046540Y-91567000D02*
X225046540Y-96647000D01*
X222506540Y-91567000D02*
X225046540Y-91567000D01*
X225046540Y-92202000D02*
X222506540Y-92202000D01*
X225046540Y-92837000D02*
X222506540Y-92837000D01*
X225046540Y-91567000D02*
X222506540Y-92837000D01*
X225046540Y-92837000D02*
X222506540Y-91567000D01*
X225046540Y-91821000D02*
X222506540Y-91821000D01*
X225046540Y-92583000D02*
X222506540Y-92583000D01*
X225046540Y-92329000D02*
X222506540Y-92329000D01*
X225046540Y-92075000D02*
X222506540Y-92075000D01*
X223776540Y-91821000D02*
X223776540Y-90551000D01*
X223776540Y-96647000D02*
X223776540Y-97663000D01*
%TO.C,D115*%
X221231460Y-104267000D02*
X221231460Y-109347000D01*
X218691460Y-104267000D02*
X221231460Y-104267000D01*
X218691460Y-109347000D02*
X218691460Y-104267000D01*
X221231460Y-109347000D02*
X218691460Y-109347000D01*
X218691460Y-108712000D02*
X221231460Y-108712000D01*
X218691460Y-108077000D02*
X221231460Y-108077000D01*
X218691460Y-109347000D02*
X221231460Y-108077000D01*
X218691460Y-108077000D02*
X221231460Y-109347000D01*
X218691460Y-109093000D02*
X221231460Y-109093000D01*
X218691460Y-108331000D02*
X221231460Y-108331000D01*
X218691460Y-108585000D02*
X221231460Y-108585000D01*
X218691460Y-108839000D02*
X221231460Y-108839000D01*
X219961460Y-109093000D02*
X219961460Y-110363000D01*
X219961460Y-104267000D02*
X219961460Y-103251000D01*
%TO.C,D116*%
X225676460Y-106807000D02*
X225676460Y-111887000D01*
X223136460Y-106807000D02*
X225676460Y-106807000D01*
X223136460Y-111887000D02*
X223136460Y-106807000D01*
X225676460Y-111887000D02*
X223136460Y-111887000D01*
X223136460Y-111252000D02*
X225676460Y-111252000D01*
X223136460Y-110617000D02*
X225676460Y-110617000D01*
X223136460Y-111887000D02*
X225676460Y-110617000D01*
X223136460Y-110617000D02*
X225676460Y-111887000D01*
X223136460Y-111633000D02*
X225676460Y-111633000D01*
X223136460Y-110871000D02*
X225676460Y-110871000D01*
X223136460Y-111125000D02*
X225676460Y-111125000D01*
X223136460Y-111379000D02*
X225676460Y-111379000D01*
X224406460Y-111633000D02*
X224406460Y-112903000D01*
X224406460Y-106807000D02*
X224406460Y-105791000D01*
%TO.C,R111*%
X185420000Y-97536000D02*
X185928000Y-97028000D01*
X192024000Y-99060000D02*
X192024000Y-98044000D01*
X185420000Y-99060000D02*
X192024000Y-99060000D01*
X185420000Y-97028000D02*
X185420000Y-99060000D01*
X192024000Y-97028000D02*
X185420000Y-97028000D01*
X192024000Y-98044000D02*
X192024000Y-97028000D01*
X192532000Y-98044000D02*
X192024000Y-98044000D01*
X184912000Y-98044000D02*
X185420000Y-98044000D01*
%TO.C,R112*%
X185420000Y-105156000D02*
X185928000Y-104648000D01*
X192024000Y-106680000D02*
X192024000Y-105664000D01*
X185420000Y-106680000D02*
X192024000Y-106680000D01*
X185420000Y-104648000D02*
X185420000Y-106680000D01*
X192024000Y-104648000D02*
X185420000Y-104648000D01*
X192024000Y-105664000D02*
X192024000Y-104648000D01*
X192532000Y-105664000D02*
X192024000Y-105664000D01*
X184912000Y-105664000D02*
X185420000Y-105664000D01*
%TO.C,R113*%
X185420000Y-110236000D02*
X185928000Y-109728000D01*
X192024000Y-111760000D02*
X192024000Y-110744000D01*
X185420000Y-111760000D02*
X192024000Y-111760000D01*
X185420000Y-109728000D02*
X185420000Y-111760000D01*
X192024000Y-109728000D02*
X185420000Y-109728000D01*
X192024000Y-110744000D02*
X192024000Y-109728000D01*
X192532000Y-110744000D02*
X192024000Y-110744000D01*
X184912000Y-110744000D02*
X185420000Y-110744000D01*
%TO.C,R114*%
X185420000Y-107696000D02*
X185928000Y-107188000D01*
X192024000Y-109220000D02*
X192024000Y-108204000D01*
X185420000Y-109220000D02*
X192024000Y-109220000D01*
X185420000Y-107188000D02*
X185420000Y-109220000D01*
X192024000Y-107188000D02*
X185420000Y-107188000D01*
X192024000Y-108204000D02*
X192024000Y-107188000D01*
X192532000Y-108204000D02*
X192024000Y-108204000D01*
X184912000Y-108204000D02*
X185420000Y-108204000D01*
D12*
%TO.C,P101*%
X143697000Y-127314000D02*
X143697000Y-124654000D01*
X133477000Y-127314000D02*
X143697000Y-127314000D01*
X133477000Y-124654000D02*
X143697000Y-124654000D01*
X133477000Y-127314000D02*
X133477000Y-124654000D01*
X132207000Y-127314000D02*
X130877000Y-127314000D01*
X130877000Y-127314000D02*
X130877000Y-125984000D01*
%TO.C,P102*%
X93793000Y-124527000D02*
X93793000Y-127187000D01*
X96393000Y-124527000D02*
X93793000Y-124527000D01*
X96393000Y-127187000D02*
X93793000Y-127187000D01*
X96393000Y-124527000D02*
X96393000Y-127187000D01*
X97663000Y-124527000D02*
X98993000Y-124527000D01*
X98993000Y-124527000D02*
X98993000Y-125857000D01*
%TO.C,P103*%
X81213000Y-113344000D02*
X79883000Y-113344000D01*
X81213000Y-112014000D02*
X81213000Y-113344000D01*
X81213000Y-110744000D02*
X78553000Y-110744000D01*
X78553000Y-110744000D02*
X78553000Y-108144000D01*
X81213000Y-110744000D02*
X81213000Y-108144000D01*
X81213000Y-108144000D02*
X78553000Y-108144000D01*
%TO.C,P104*%
X81213000Y-84776000D02*
X78553000Y-84776000D01*
X81213000Y-87376000D02*
X81213000Y-84776000D01*
X78553000Y-87376000D02*
X78553000Y-84776000D01*
X81213000Y-87376000D02*
X78553000Y-87376000D01*
X81213000Y-88646000D02*
X81213000Y-89976000D01*
X81213000Y-89976000D02*
X79883000Y-89976000D01*
%TO.C,P105*%
X163262000Y-127314000D02*
X163262000Y-125984000D01*
X164592000Y-127314000D02*
X163262000Y-127314000D01*
X165862000Y-127314000D02*
X165862000Y-124654000D01*
X165862000Y-124654000D02*
X171002000Y-124654000D01*
X165862000Y-127314000D02*
X171002000Y-127314000D01*
X171002000Y-127314000D02*
X171002000Y-124654000D01*
%TO.C,P106*%
X182185000Y-127314000D02*
X182185000Y-125984000D01*
X183515000Y-127314000D02*
X182185000Y-127314000D01*
X184785000Y-127314000D02*
X184785000Y-124654000D01*
X184785000Y-124654000D02*
X187385000Y-124654000D01*
X184785000Y-127314000D02*
X187385000Y-127314000D01*
X187385000Y-127314000D02*
X187385000Y-124654000D01*
%TO.C,P107*%
X169732000Y-73974000D02*
X169732000Y-71314000D01*
X167132000Y-73974000D02*
X169732000Y-73974000D01*
X167132000Y-71314000D02*
X169732000Y-71314000D01*
X167132000Y-73974000D02*
X167132000Y-71314000D01*
X165862000Y-73974000D02*
X164532000Y-73974000D01*
X164532000Y-73974000D02*
X164532000Y-72644000D01*
%TO.C,P108*%
X189297000Y-127314000D02*
X189297000Y-125984000D01*
X190627000Y-127314000D02*
X189297000Y-127314000D01*
X191897000Y-127314000D02*
X191897000Y-124654000D01*
X191897000Y-124654000D02*
X194497000Y-124654000D01*
X191897000Y-127314000D02*
X194497000Y-127314000D01*
X194497000Y-127314000D02*
X194497000Y-124654000D01*
%TO.C,P109*%
X229429000Y-92777000D02*
X230759000Y-92777000D01*
X229429000Y-94107000D02*
X229429000Y-92777000D01*
X229429000Y-95377000D02*
X232089000Y-95377000D01*
X232089000Y-95377000D02*
X232089000Y-105597000D01*
X229429000Y-95377000D02*
X229429000Y-105597000D01*
X229429000Y-105597000D02*
X232089000Y-105597000D01*
%TO.C,Q101*%
X209689000Y-95807000D02*
X213539000Y-95807000D01*
X213577611Y-95797122D02*
G75*
G03*
X209689000Y-95807000I-1948611J1690122D01*
G01*
%TO.C,Q102*%
X199211500Y-95807000D02*
X203061500Y-95807000D01*
X203100111Y-95797122D02*
G75*
G03*
X199211500Y-95807000I-1948611J1690122D01*
G01*
%TO.C,Q103*%
X203188000Y-102249500D02*
X199338000Y-102249500D01*
X199299389Y-102259378D02*
G75*
G03*
X203188000Y-102249500I1948611J-1690122D01*
G01*
%TO.C,Q104*%
X213729000Y-102249500D02*
X209879000Y-102249500D01*
X209840389Y-102259378D02*
G75*
G03*
X213729000Y-102249500I1948611J-1690122D01*
G01*
%TO.C,U106*%
X178739800Y-78874000D02*
X155532000Y-78874000D01*
X178732000Y-119754000D02*
X178732000Y-78874000D01*
X155532000Y-119754000D02*
X178732000Y-119754000D01*
X155532000Y-78874000D02*
X155532000Y-119754000D01*
X175732000Y-78934000D02*
X165592000Y-78934000D01*
X175732000Y-119694000D02*
X175732000Y-78934000D01*
X158532000Y-119694000D02*
X175742600Y-119694000D01*
X158532000Y-78934000D02*
X158532000Y-119694000D01*
X165658800Y-78934000D02*
X158532000Y-78934000D01*
%TO.C,Q107*%
X205288000Y-112592000D02*
X197048000Y-112592000D01*
X205288000Y-123832000D02*
X197048000Y-123832000D01*
X205288000Y-123832000D02*
X205288000Y-112592000D01*
X197048000Y-123832000D02*
X197048000Y-112592000D01*
X203708000Y-112592000D02*
X203708000Y-109762000D01*
X201168000Y-112592000D02*
X201168000Y-109778000D01*
X198628000Y-112592000D02*
X198628000Y-109778000D01*
%TO.C,Q108*%
X209169000Y-112592000D02*
X209169000Y-109778000D01*
X211709000Y-112592000D02*
X211709000Y-109778000D01*
X214249000Y-112592000D02*
X214249000Y-109762000D01*
X207589000Y-123832000D02*
X207589000Y-112592000D01*
X215829000Y-123832000D02*
X215829000Y-112592000D01*
X215829000Y-123832000D02*
X207589000Y-123832000D01*
X215829000Y-112592000D02*
X207589000Y-112592000D01*
%TO.C,Q105*%
X207589000Y-85528000D02*
X215829000Y-85528000D01*
X207589000Y-74288000D02*
X215829000Y-74288000D01*
X207589000Y-74288000D02*
X207589000Y-85528000D01*
X215829000Y-74288000D02*
X215829000Y-85528000D01*
X209169000Y-85528000D02*
X209169000Y-88358000D01*
X211709000Y-85528000D02*
X211709000Y-88342000D01*
X214249000Y-85528000D02*
X214249000Y-88342000D01*
%TO.C,Q106*%
X203835000Y-85528000D02*
X203835000Y-88342000D01*
X201295000Y-85528000D02*
X201295000Y-88342000D01*
X198755000Y-85528000D02*
X198755000Y-88358000D01*
X205415000Y-74288000D02*
X205415000Y-85528000D01*
X197175000Y-74288000D02*
X197175000Y-85528000D01*
X197175000Y-74288000D02*
X205415000Y-74288000D01*
X197175000Y-85528000D02*
X205415000Y-85528000D01*
%TD*%
%TO.C,C104*%
D11*
X191158952Y-117451142D02*
X191111333Y-117498761D01*
X190968476Y-117546380D01*
X190873238Y-117546380D01*
X190730380Y-117498761D01*
X190635142Y-117403523D01*
X190587523Y-117308285D01*
X190539904Y-117117809D01*
X190539904Y-116974952D01*
X190587523Y-116784476D01*
X190635142Y-116689238D01*
X190730380Y-116594000D01*
X190873238Y-116546380D01*
X190968476Y-116546380D01*
X191111333Y-116594000D01*
X191158952Y-116641619D01*
X192111333Y-117546380D02*
X191539904Y-117546380D01*
X191825619Y-117546380D02*
X191825619Y-116546380D01*
X191730380Y-116689238D01*
X191635142Y-116784476D01*
X191539904Y-116832095D01*
X192730380Y-116546380D02*
X192825619Y-116546380D01*
X192920857Y-116594000D01*
X192968476Y-116641619D01*
X193016095Y-116736857D01*
X193063714Y-116927333D01*
X193063714Y-117165428D01*
X193016095Y-117355904D01*
X192968476Y-117451142D01*
X192920857Y-117498761D01*
X192825619Y-117546380D01*
X192730380Y-117546380D01*
X192635142Y-117498761D01*
X192587523Y-117451142D01*
X192539904Y-117355904D01*
X192492285Y-117165428D01*
X192492285Y-116927333D01*
X192539904Y-116736857D01*
X192587523Y-116641619D01*
X192635142Y-116594000D01*
X192730380Y-116546380D01*
X193920857Y-116879714D02*
X193920857Y-117546380D01*
X193682761Y-116498761D02*
X193444666Y-117213047D01*
X194063714Y-117213047D01*
%TO.C,R110*%
X187602952Y-113863380D02*
X187269619Y-113387190D01*
X187031523Y-113863380D02*
X187031523Y-112863380D01*
X187412476Y-112863380D01*
X187507714Y-112911000D01*
X187555333Y-112958619D01*
X187602952Y-113053857D01*
X187602952Y-113196714D01*
X187555333Y-113291952D01*
X187507714Y-113339571D01*
X187412476Y-113387190D01*
X187031523Y-113387190D01*
X188555333Y-113863380D02*
X187983904Y-113863380D01*
X188269619Y-113863380D02*
X188269619Y-112863380D01*
X188174380Y-113006238D01*
X188079142Y-113101476D01*
X187983904Y-113149095D01*
X189507714Y-113863380D02*
X188936285Y-113863380D01*
X189222000Y-113863380D02*
X189222000Y-112863380D01*
X189126761Y-113006238D01*
X189031523Y-113101476D01*
X188936285Y-113149095D01*
X190126761Y-112863380D02*
X190222000Y-112863380D01*
X190317238Y-112911000D01*
X190364857Y-112958619D01*
X190412476Y-113053857D01*
X190460095Y-113244333D01*
X190460095Y-113482428D01*
X190412476Y-113672904D01*
X190364857Y-113768142D01*
X190317238Y-113815761D01*
X190222000Y-113863380D01*
X190126761Y-113863380D01*
X190031523Y-113815761D01*
X189983904Y-113768142D01*
X189936285Y-113672904D01*
X189888666Y-113482428D01*
X189888666Y-113244333D01*
X189936285Y-113053857D01*
X189983904Y-112958619D01*
X190031523Y-112911000D01*
X190126761Y-112863380D01*
%TO.C,R105*%
X165806380Y-87733047D02*
X165330190Y-88066380D01*
X165806380Y-88304476D02*
X164806380Y-88304476D01*
X164806380Y-87923523D01*
X164854000Y-87828285D01*
X164901619Y-87780666D01*
X164996857Y-87733047D01*
X165139714Y-87733047D01*
X165234952Y-87780666D01*
X165282571Y-87828285D01*
X165330190Y-87923523D01*
X165330190Y-88304476D01*
X165806380Y-86780666D02*
X165806380Y-87352095D01*
X165806380Y-87066380D02*
X164806380Y-87066380D01*
X164949238Y-87161619D01*
X165044476Y-87256857D01*
X165092095Y-87352095D01*
X164806380Y-86161619D02*
X164806380Y-86066380D01*
X164854000Y-85971142D01*
X164901619Y-85923523D01*
X164996857Y-85875904D01*
X165187333Y-85828285D01*
X165425428Y-85828285D01*
X165615904Y-85875904D01*
X165711142Y-85923523D01*
X165758761Y-85971142D01*
X165806380Y-86066380D01*
X165806380Y-86161619D01*
X165758761Y-86256857D01*
X165711142Y-86304476D01*
X165615904Y-86352095D01*
X165425428Y-86399714D01*
X165187333Y-86399714D01*
X164996857Y-86352095D01*
X164901619Y-86304476D01*
X164854000Y-86256857D01*
X164806380Y-86161619D01*
X164806380Y-84923523D02*
X164806380Y-85399714D01*
X165282571Y-85447333D01*
X165234952Y-85399714D01*
X165187333Y-85304476D01*
X165187333Y-85066380D01*
X165234952Y-84971142D01*
X165282571Y-84923523D01*
X165377809Y-84875904D01*
X165615904Y-84875904D01*
X165711142Y-84923523D01*
X165758761Y-84971142D01*
X165806380Y-85066380D01*
X165806380Y-85304476D01*
X165758761Y-85399714D01*
X165711142Y-85447333D01*
%TO.C,R106*%
X172791380Y-87733047D02*
X172315190Y-88066380D01*
X172791380Y-88304476D02*
X171791380Y-88304476D01*
X171791380Y-87923523D01*
X171839000Y-87828285D01*
X171886619Y-87780666D01*
X171981857Y-87733047D01*
X172124714Y-87733047D01*
X172219952Y-87780666D01*
X172267571Y-87828285D01*
X172315190Y-87923523D01*
X172315190Y-88304476D01*
X172791380Y-86780666D02*
X172791380Y-87352095D01*
X172791380Y-87066380D02*
X171791380Y-87066380D01*
X171934238Y-87161619D01*
X172029476Y-87256857D01*
X172077095Y-87352095D01*
X171791380Y-86161619D02*
X171791380Y-86066380D01*
X171839000Y-85971142D01*
X171886619Y-85923523D01*
X171981857Y-85875904D01*
X172172333Y-85828285D01*
X172410428Y-85828285D01*
X172600904Y-85875904D01*
X172696142Y-85923523D01*
X172743761Y-85971142D01*
X172791380Y-86066380D01*
X172791380Y-86161619D01*
X172743761Y-86256857D01*
X172696142Y-86304476D01*
X172600904Y-86352095D01*
X172410428Y-86399714D01*
X172172333Y-86399714D01*
X171981857Y-86352095D01*
X171886619Y-86304476D01*
X171839000Y-86256857D01*
X171791380Y-86161619D01*
X171791380Y-84971142D02*
X171791380Y-85161619D01*
X171839000Y-85256857D01*
X171886619Y-85304476D01*
X172029476Y-85399714D01*
X172219952Y-85447333D01*
X172600904Y-85447333D01*
X172696142Y-85399714D01*
X172743761Y-85352095D01*
X172791380Y-85256857D01*
X172791380Y-85066380D01*
X172743761Y-84971142D01*
X172696142Y-84923523D01*
X172600904Y-84875904D01*
X172362809Y-84875904D01*
X172267571Y-84923523D01*
X172219952Y-84971142D01*
X172172333Y-85066380D01*
X172172333Y-85256857D01*
X172219952Y-85352095D01*
X172267571Y-85399714D01*
X172362809Y-85447333D01*
%TO.C,R107*%
X169616380Y-87733047D02*
X169140190Y-88066380D01*
X169616380Y-88304476D02*
X168616380Y-88304476D01*
X168616380Y-87923523D01*
X168664000Y-87828285D01*
X168711619Y-87780666D01*
X168806857Y-87733047D01*
X168949714Y-87733047D01*
X169044952Y-87780666D01*
X169092571Y-87828285D01*
X169140190Y-87923523D01*
X169140190Y-88304476D01*
X169616380Y-86780666D02*
X169616380Y-87352095D01*
X169616380Y-87066380D02*
X168616380Y-87066380D01*
X168759238Y-87161619D01*
X168854476Y-87256857D01*
X168902095Y-87352095D01*
X168616380Y-86161619D02*
X168616380Y-86066380D01*
X168664000Y-85971142D01*
X168711619Y-85923523D01*
X168806857Y-85875904D01*
X168997333Y-85828285D01*
X169235428Y-85828285D01*
X169425904Y-85875904D01*
X169521142Y-85923523D01*
X169568761Y-85971142D01*
X169616380Y-86066380D01*
X169616380Y-86161619D01*
X169568761Y-86256857D01*
X169521142Y-86304476D01*
X169425904Y-86352095D01*
X169235428Y-86399714D01*
X168997333Y-86399714D01*
X168806857Y-86352095D01*
X168711619Y-86304476D01*
X168664000Y-86256857D01*
X168616380Y-86161619D01*
X168616380Y-85494952D02*
X168616380Y-84828285D01*
X169616380Y-85256857D01*
%TO.C,R108*%
X162631380Y-87733047D02*
X162155190Y-88066380D01*
X162631380Y-88304476D02*
X161631380Y-88304476D01*
X161631380Y-87923523D01*
X161679000Y-87828285D01*
X161726619Y-87780666D01*
X161821857Y-87733047D01*
X161964714Y-87733047D01*
X162059952Y-87780666D01*
X162107571Y-87828285D01*
X162155190Y-87923523D01*
X162155190Y-88304476D01*
X162631380Y-86780666D02*
X162631380Y-87352095D01*
X162631380Y-87066380D02*
X161631380Y-87066380D01*
X161774238Y-87161619D01*
X161869476Y-87256857D01*
X161917095Y-87352095D01*
X161631380Y-86161619D02*
X161631380Y-86066380D01*
X161679000Y-85971142D01*
X161726619Y-85923523D01*
X161821857Y-85875904D01*
X162012333Y-85828285D01*
X162250428Y-85828285D01*
X162440904Y-85875904D01*
X162536142Y-85923523D01*
X162583761Y-85971142D01*
X162631380Y-86066380D01*
X162631380Y-86161619D01*
X162583761Y-86256857D01*
X162536142Y-86304476D01*
X162440904Y-86352095D01*
X162250428Y-86399714D01*
X162012333Y-86399714D01*
X161821857Y-86352095D01*
X161726619Y-86304476D01*
X161679000Y-86256857D01*
X161631380Y-86161619D01*
X162059952Y-85256857D02*
X162012333Y-85352095D01*
X161964714Y-85399714D01*
X161869476Y-85447333D01*
X161821857Y-85447333D01*
X161726619Y-85399714D01*
X161679000Y-85352095D01*
X161631380Y-85256857D01*
X161631380Y-85066380D01*
X161679000Y-84971142D01*
X161726619Y-84923523D01*
X161821857Y-84875904D01*
X161869476Y-84875904D01*
X161964714Y-84923523D01*
X162012333Y-84971142D01*
X162059952Y-85066380D01*
X162059952Y-85256857D01*
X162107571Y-85352095D01*
X162155190Y-85399714D01*
X162250428Y-85447333D01*
X162440904Y-85447333D01*
X162536142Y-85399714D01*
X162583761Y-85352095D01*
X162631380Y-85256857D01*
X162631380Y-85066380D01*
X162583761Y-84971142D01*
X162536142Y-84923523D01*
X162440904Y-84875904D01*
X162250428Y-84875904D01*
X162155190Y-84923523D01*
X162107571Y-84971142D01*
X162059952Y-85066380D01*
%TO.C,R109*%
X162631380Y-98528047D02*
X162155190Y-98861380D01*
X162631380Y-99099476D02*
X161631380Y-99099476D01*
X161631380Y-98718523D01*
X161679000Y-98623285D01*
X161726619Y-98575666D01*
X161821857Y-98528047D01*
X161964714Y-98528047D01*
X162059952Y-98575666D01*
X162107571Y-98623285D01*
X162155190Y-98718523D01*
X162155190Y-99099476D01*
X162631380Y-97575666D02*
X162631380Y-98147095D01*
X162631380Y-97861380D02*
X161631380Y-97861380D01*
X161774238Y-97956619D01*
X161869476Y-98051857D01*
X161917095Y-98147095D01*
X161631380Y-96956619D02*
X161631380Y-96861380D01*
X161679000Y-96766142D01*
X161726619Y-96718523D01*
X161821857Y-96670904D01*
X162012333Y-96623285D01*
X162250428Y-96623285D01*
X162440904Y-96670904D01*
X162536142Y-96718523D01*
X162583761Y-96766142D01*
X162631380Y-96861380D01*
X162631380Y-96956619D01*
X162583761Y-97051857D01*
X162536142Y-97099476D01*
X162440904Y-97147095D01*
X162250428Y-97194714D01*
X162012333Y-97194714D01*
X161821857Y-97147095D01*
X161726619Y-97099476D01*
X161679000Y-97051857D01*
X161631380Y-96956619D01*
X162631380Y-96147095D02*
X162631380Y-95956619D01*
X162583761Y-95861380D01*
X162536142Y-95813761D01*
X162393285Y-95718523D01*
X162202809Y-95670904D01*
X161821857Y-95670904D01*
X161726619Y-95718523D01*
X161679000Y-95766142D01*
X161631380Y-95861380D01*
X161631380Y-96051857D01*
X161679000Y-96147095D01*
X161726619Y-96194714D01*
X161821857Y-96242333D01*
X162059952Y-96242333D01*
X162155190Y-96194714D01*
X162202809Y-96147095D01*
X162250428Y-96051857D01*
X162250428Y-95861380D01*
X162202809Y-95766142D01*
X162155190Y-95718523D01*
X162059952Y-95670904D01*
%TO.C,C101*%
X108707952Y-114945142D02*
X108660333Y-114992761D01*
X108517476Y-115040380D01*
X108422238Y-115040380D01*
X108279380Y-114992761D01*
X108184142Y-114897523D01*
X108136523Y-114802285D01*
X108088904Y-114611809D01*
X108088904Y-114468952D01*
X108136523Y-114278476D01*
X108184142Y-114183238D01*
X108279380Y-114088000D01*
X108422238Y-114040380D01*
X108517476Y-114040380D01*
X108660333Y-114088000D01*
X108707952Y-114135619D01*
X109660333Y-115040380D02*
X109088904Y-115040380D01*
X109374619Y-115040380D02*
X109374619Y-114040380D01*
X109279380Y-114183238D01*
X109184142Y-114278476D01*
X109088904Y-114326095D01*
X110279380Y-114040380D02*
X110374619Y-114040380D01*
X110469857Y-114088000D01*
X110517476Y-114135619D01*
X110565095Y-114230857D01*
X110612714Y-114421333D01*
X110612714Y-114659428D01*
X110565095Y-114849904D01*
X110517476Y-114945142D01*
X110469857Y-114992761D01*
X110374619Y-115040380D01*
X110279380Y-115040380D01*
X110184142Y-114992761D01*
X110136523Y-114945142D01*
X110088904Y-114849904D01*
X110041285Y-114659428D01*
X110041285Y-114421333D01*
X110088904Y-114230857D01*
X110136523Y-114135619D01*
X110184142Y-114088000D01*
X110279380Y-114040380D01*
X111565095Y-115040380D02*
X110993666Y-115040380D01*
X111279380Y-115040380D02*
X111279380Y-114040380D01*
X111184142Y-114183238D01*
X111088904Y-114278476D01*
X110993666Y-114326095D01*
%TO.C,C102*%
X108707952Y-100975142D02*
X108660333Y-101022761D01*
X108517476Y-101070380D01*
X108422238Y-101070380D01*
X108279380Y-101022761D01*
X108184142Y-100927523D01*
X108136523Y-100832285D01*
X108088904Y-100641809D01*
X108088904Y-100498952D01*
X108136523Y-100308476D01*
X108184142Y-100213238D01*
X108279380Y-100118000D01*
X108422238Y-100070380D01*
X108517476Y-100070380D01*
X108660333Y-100118000D01*
X108707952Y-100165619D01*
X109660333Y-101070380D02*
X109088904Y-101070380D01*
X109374619Y-101070380D02*
X109374619Y-100070380D01*
X109279380Y-100213238D01*
X109184142Y-100308476D01*
X109088904Y-100356095D01*
X110279380Y-100070380D02*
X110374619Y-100070380D01*
X110469857Y-100118000D01*
X110517476Y-100165619D01*
X110565095Y-100260857D01*
X110612714Y-100451333D01*
X110612714Y-100689428D01*
X110565095Y-100879904D01*
X110517476Y-100975142D01*
X110469857Y-101022761D01*
X110374619Y-101070380D01*
X110279380Y-101070380D01*
X110184142Y-101022761D01*
X110136523Y-100975142D01*
X110088904Y-100879904D01*
X110041285Y-100689428D01*
X110041285Y-100451333D01*
X110088904Y-100260857D01*
X110136523Y-100165619D01*
X110184142Y-100118000D01*
X110279380Y-100070380D01*
X110993666Y-100165619D02*
X111041285Y-100118000D01*
X111136523Y-100070380D01*
X111374619Y-100070380D01*
X111469857Y-100118000D01*
X111517476Y-100165619D01*
X111565095Y-100260857D01*
X111565095Y-100356095D01*
X111517476Y-100498952D01*
X110946047Y-101070380D01*
X111565095Y-101070380D01*
%TO.C,C103*%
X116228952Y-100687142D02*
X116181333Y-100734761D01*
X116038476Y-100782380D01*
X115943238Y-100782380D01*
X115800380Y-100734761D01*
X115705142Y-100639523D01*
X115657523Y-100544285D01*
X115609904Y-100353809D01*
X115609904Y-100210952D01*
X115657523Y-100020476D01*
X115705142Y-99925238D01*
X115800380Y-99830000D01*
X115943238Y-99782380D01*
X116038476Y-99782380D01*
X116181333Y-99830000D01*
X116228952Y-99877619D01*
X117181333Y-100782380D02*
X116609904Y-100782380D01*
X116895619Y-100782380D02*
X116895619Y-99782380D01*
X116800380Y-99925238D01*
X116705142Y-100020476D01*
X116609904Y-100068095D01*
X117800380Y-99782380D02*
X117895619Y-99782380D01*
X117990857Y-99830000D01*
X118038476Y-99877619D01*
X118086095Y-99972857D01*
X118133714Y-100163333D01*
X118133714Y-100401428D01*
X118086095Y-100591904D01*
X118038476Y-100687142D01*
X117990857Y-100734761D01*
X117895619Y-100782380D01*
X117800380Y-100782380D01*
X117705142Y-100734761D01*
X117657523Y-100687142D01*
X117609904Y-100591904D01*
X117562285Y-100401428D01*
X117562285Y-100163333D01*
X117609904Y-99972857D01*
X117657523Y-99877619D01*
X117705142Y-99830000D01*
X117800380Y-99782380D01*
X118467047Y-99782380D02*
X119086095Y-99782380D01*
X118752761Y-100163333D01*
X118895619Y-100163333D01*
X118990857Y-100210952D01*
X119038476Y-100258571D01*
X119086095Y-100353809D01*
X119086095Y-100591904D01*
X119038476Y-100687142D01*
X118990857Y-100734761D01*
X118895619Y-100782380D01*
X118609904Y-100782380D01*
X118514666Y-100734761D01*
X118467047Y-100687142D01*
%TO.C,D101*%
X88098523Y-101036380D02*
X88098523Y-100036380D01*
X88336619Y-100036380D01*
X88479476Y-100084000D01*
X88574714Y-100179238D01*
X88622333Y-100274476D01*
X88669952Y-100464952D01*
X88669952Y-100607809D01*
X88622333Y-100798285D01*
X88574714Y-100893523D01*
X88479476Y-100988761D01*
X88336619Y-101036380D01*
X88098523Y-101036380D01*
X89622333Y-101036380D02*
X89050904Y-101036380D01*
X89336619Y-101036380D02*
X89336619Y-100036380D01*
X89241380Y-100179238D01*
X89146142Y-100274476D01*
X89050904Y-100322095D01*
X90241380Y-100036380D02*
X90336619Y-100036380D01*
X90431857Y-100084000D01*
X90479476Y-100131619D01*
X90527095Y-100226857D01*
X90574714Y-100417333D01*
X90574714Y-100655428D01*
X90527095Y-100845904D01*
X90479476Y-100941142D01*
X90431857Y-100988761D01*
X90336619Y-101036380D01*
X90241380Y-101036380D01*
X90146142Y-100988761D01*
X90098523Y-100941142D01*
X90050904Y-100845904D01*
X90003285Y-100655428D01*
X90003285Y-100417333D01*
X90050904Y-100226857D01*
X90098523Y-100131619D01*
X90146142Y-100084000D01*
X90241380Y-100036380D01*
X91527095Y-101036380D02*
X90955666Y-101036380D01*
X91241380Y-101036380D02*
X91241380Y-100036380D01*
X91146142Y-100179238D01*
X91050904Y-100274476D01*
X90955666Y-100322095D01*
%TO.C,D102*%
X88098523Y-106116380D02*
X88098523Y-105116380D01*
X88336619Y-105116380D01*
X88479476Y-105164000D01*
X88574714Y-105259238D01*
X88622333Y-105354476D01*
X88669952Y-105544952D01*
X88669952Y-105687809D01*
X88622333Y-105878285D01*
X88574714Y-105973523D01*
X88479476Y-106068761D01*
X88336619Y-106116380D01*
X88098523Y-106116380D01*
X89622333Y-106116380D02*
X89050904Y-106116380D01*
X89336619Y-106116380D02*
X89336619Y-105116380D01*
X89241380Y-105259238D01*
X89146142Y-105354476D01*
X89050904Y-105402095D01*
X90241380Y-105116380D02*
X90336619Y-105116380D01*
X90431857Y-105164000D01*
X90479476Y-105211619D01*
X90527095Y-105306857D01*
X90574714Y-105497333D01*
X90574714Y-105735428D01*
X90527095Y-105925904D01*
X90479476Y-106021142D01*
X90431857Y-106068761D01*
X90336619Y-106116380D01*
X90241380Y-106116380D01*
X90146142Y-106068761D01*
X90098523Y-106021142D01*
X90050904Y-105925904D01*
X90003285Y-105735428D01*
X90003285Y-105497333D01*
X90050904Y-105306857D01*
X90098523Y-105211619D01*
X90146142Y-105164000D01*
X90241380Y-105116380D01*
X90955666Y-105211619D02*
X91003285Y-105164000D01*
X91098523Y-105116380D01*
X91336619Y-105116380D01*
X91431857Y-105164000D01*
X91479476Y-105211619D01*
X91527095Y-105306857D01*
X91527095Y-105402095D01*
X91479476Y-105544952D01*
X90908047Y-106116380D01*
X91527095Y-106116380D01*
%TO.C,D103*%
X88098523Y-111196380D02*
X88098523Y-110196380D01*
X88336619Y-110196380D01*
X88479476Y-110244000D01*
X88574714Y-110339238D01*
X88622333Y-110434476D01*
X88669952Y-110624952D01*
X88669952Y-110767809D01*
X88622333Y-110958285D01*
X88574714Y-111053523D01*
X88479476Y-111148761D01*
X88336619Y-111196380D01*
X88098523Y-111196380D01*
X89622333Y-111196380D02*
X89050904Y-111196380D01*
X89336619Y-111196380D02*
X89336619Y-110196380D01*
X89241380Y-110339238D01*
X89146142Y-110434476D01*
X89050904Y-110482095D01*
X90241380Y-110196380D02*
X90336619Y-110196380D01*
X90431857Y-110244000D01*
X90479476Y-110291619D01*
X90527095Y-110386857D01*
X90574714Y-110577333D01*
X90574714Y-110815428D01*
X90527095Y-111005904D01*
X90479476Y-111101142D01*
X90431857Y-111148761D01*
X90336619Y-111196380D01*
X90241380Y-111196380D01*
X90146142Y-111148761D01*
X90098523Y-111101142D01*
X90050904Y-111005904D01*
X90003285Y-110815428D01*
X90003285Y-110577333D01*
X90050904Y-110386857D01*
X90098523Y-110291619D01*
X90146142Y-110244000D01*
X90241380Y-110196380D01*
X90908047Y-110196380D02*
X91527095Y-110196380D01*
X91193761Y-110577333D01*
X91336619Y-110577333D01*
X91431857Y-110624952D01*
X91479476Y-110672571D01*
X91527095Y-110767809D01*
X91527095Y-111005904D01*
X91479476Y-111101142D01*
X91431857Y-111148761D01*
X91336619Y-111196380D01*
X91050904Y-111196380D01*
X90955666Y-111148761D01*
X90908047Y-111101142D01*
%TO.C,D104*%
X88098523Y-116276380D02*
X88098523Y-115276380D01*
X88336619Y-115276380D01*
X88479476Y-115324000D01*
X88574714Y-115419238D01*
X88622333Y-115514476D01*
X88669952Y-115704952D01*
X88669952Y-115847809D01*
X88622333Y-116038285D01*
X88574714Y-116133523D01*
X88479476Y-116228761D01*
X88336619Y-116276380D01*
X88098523Y-116276380D01*
X89622333Y-116276380D02*
X89050904Y-116276380D01*
X89336619Y-116276380D02*
X89336619Y-115276380D01*
X89241380Y-115419238D01*
X89146142Y-115514476D01*
X89050904Y-115562095D01*
X90241380Y-115276380D02*
X90336619Y-115276380D01*
X90431857Y-115324000D01*
X90479476Y-115371619D01*
X90527095Y-115466857D01*
X90574714Y-115657333D01*
X90574714Y-115895428D01*
X90527095Y-116085904D01*
X90479476Y-116181142D01*
X90431857Y-116228761D01*
X90336619Y-116276380D01*
X90241380Y-116276380D01*
X90146142Y-116228761D01*
X90098523Y-116181142D01*
X90050904Y-116085904D01*
X90003285Y-115895428D01*
X90003285Y-115657333D01*
X90050904Y-115466857D01*
X90098523Y-115371619D01*
X90146142Y-115324000D01*
X90241380Y-115276380D01*
X91431857Y-115609714D02*
X91431857Y-116276380D01*
X91193761Y-115228761D02*
X90955666Y-115943047D01*
X91574714Y-115943047D01*
%TO.C,D105*%
X88098523Y-78176380D02*
X88098523Y-77176380D01*
X88336619Y-77176380D01*
X88479476Y-77224000D01*
X88574714Y-77319238D01*
X88622333Y-77414476D01*
X88669952Y-77604952D01*
X88669952Y-77747809D01*
X88622333Y-77938285D01*
X88574714Y-78033523D01*
X88479476Y-78128761D01*
X88336619Y-78176380D01*
X88098523Y-78176380D01*
X89622333Y-78176380D02*
X89050904Y-78176380D01*
X89336619Y-78176380D02*
X89336619Y-77176380D01*
X89241380Y-77319238D01*
X89146142Y-77414476D01*
X89050904Y-77462095D01*
X90241380Y-77176380D02*
X90336619Y-77176380D01*
X90431857Y-77224000D01*
X90479476Y-77271619D01*
X90527095Y-77366857D01*
X90574714Y-77557333D01*
X90574714Y-77795428D01*
X90527095Y-77985904D01*
X90479476Y-78081142D01*
X90431857Y-78128761D01*
X90336619Y-78176380D01*
X90241380Y-78176380D01*
X90146142Y-78128761D01*
X90098523Y-78081142D01*
X90050904Y-77985904D01*
X90003285Y-77795428D01*
X90003285Y-77557333D01*
X90050904Y-77366857D01*
X90098523Y-77271619D01*
X90146142Y-77224000D01*
X90241380Y-77176380D01*
X91479476Y-77176380D02*
X91003285Y-77176380D01*
X90955666Y-77652571D01*
X91003285Y-77604952D01*
X91098523Y-77557333D01*
X91336619Y-77557333D01*
X91431857Y-77604952D01*
X91479476Y-77652571D01*
X91527095Y-77747809D01*
X91527095Y-77985904D01*
X91479476Y-78081142D01*
X91431857Y-78128761D01*
X91336619Y-78176380D01*
X91098523Y-78176380D01*
X91003285Y-78128761D01*
X90955666Y-78081142D01*
%TO.C,D106*%
X88098523Y-83256380D02*
X88098523Y-82256380D01*
X88336619Y-82256380D01*
X88479476Y-82304000D01*
X88574714Y-82399238D01*
X88622333Y-82494476D01*
X88669952Y-82684952D01*
X88669952Y-82827809D01*
X88622333Y-83018285D01*
X88574714Y-83113523D01*
X88479476Y-83208761D01*
X88336619Y-83256380D01*
X88098523Y-83256380D01*
X89622333Y-83256380D02*
X89050904Y-83256380D01*
X89336619Y-83256380D02*
X89336619Y-82256380D01*
X89241380Y-82399238D01*
X89146142Y-82494476D01*
X89050904Y-82542095D01*
X90241380Y-82256380D02*
X90336619Y-82256380D01*
X90431857Y-82304000D01*
X90479476Y-82351619D01*
X90527095Y-82446857D01*
X90574714Y-82637333D01*
X90574714Y-82875428D01*
X90527095Y-83065904D01*
X90479476Y-83161142D01*
X90431857Y-83208761D01*
X90336619Y-83256380D01*
X90241380Y-83256380D01*
X90146142Y-83208761D01*
X90098523Y-83161142D01*
X90050904Y-83065904D01*
X90003285Y-82875428D01*
X90003285Y-82637333D01*
X90050904Y-82446857D01*
X90098523Y-82351619D01*
X90146142Y-82304000D01*
X90241380Y-82256380D01*
X91431857Y-82256380D02*
X91241380Y-82256380D01*
X91146142Y-82304000D01*
X91098523Y-82351619D01*
X91003285Y-82494476D01*
X90955666Y-82684952D01*
X90955666Y-83065904D01*
X91003285Y-83161142D01*
X91050904Y-83208761D01*
X91146142Y-83256380D01*
X91336619Y-83256380D01*
X91431857Y-83208761D01*
X91479476Y-83161142D01*
X91527095Y-83065904D01*
X91527095Y-82827809D01*
X91479476Y-82732571D01*
X91431857Y-82684952D01*
X91336619Y-82637333D01*
X91146142Y-82637333D01*
X91050904Y-82684952D01*
X91003285Y-82732571D01*
X90955666Y-82827809D01*
%TO.C,D107*%
X88098523Y-88336380D02*
X88098523Y-87336380D01*
X88336619Y-87336380D01*
X88479476Y-87384000D01*
X88574714Y-87479238D01*
X88622333Y-87574476D01*
X88669952Y-87764952D01*
X88669952Y-87907809D01*
X88622333Y-88098285D01*
X88574714Y-88193523D01*
X88479476Y-88288761D01*
X88336619Y-88336380D01*
X88098523Y-88336380D01*
X89622333Y-88336380D02*
X89050904Y-88336380D01*
X89336619Y-88336380D02*
X89336619Y-87336380D01*
X89241380Y-87479238D01*
X89146142Y-87574476D01*
X89050904Y-87622095D01*
X90241380Y-87336380D02*
X90336619Y-87336380D01*
X90431857Y-87384000D01*
X90479476Y-87431619D01*
X90527095Y-87526857D01*
X90574714Y-87717333D01*
X90574714Y-87955428D01*
X90527095Y-88145904D01*
X90479476Y-88241142D01*
X90431857Y-88288761D01*
X90336619Y-88336380D01*
X90241380Y-88336380D01*
X90146142Y-88288761D01*
X90098523Y-88241142D01*
X90050904Y-88145904D01*
X90003285Y-87955428D01*
X90003285Y-87717333D01*
X90050904Y-87526857D01*
X90098523Y-87431619D01*
X90146142Y-87384000D01*
X90241380Y-87336380D01*
X90908047Y-87336380D02*
X91574714Y-87336380D01*
X91146142Y-88336380D01*
%TO.C,D108*%
X88098523Y-93416380D02*
X88098523Y-92416380D01*
X88336619Y-92416380D01*
X88479476Y-92464000D01*
X88574714Y-92559238D01*
X88622333Y-92654476D01*
X88669952Y-92844952D01*
X88669952Y-92987809D01*
X88622333Y-93178285D01*
X88574714Y-93273523D01*
X88479476Y-93368761D01*
X88336619Y-93416380D01*
X88098523Y-93416380D01*
X89622333Y-93416380D02*
X89050904Y-93416380D01*
X89336619Y-93416380D02*
X89336619Y-92416380D01*
X89241380Y-92559238D01*
X89146142Y-92654476D01*
X89050904Y-92702095D01*
X90241380Y-92416380D02*
X90336619Y-92416380D01*
X90431857Y-92464000D01*
X90479476Y-92511619D01*
X90527095Y-92606857D01*
X90574714Y-92797333D01*
X90574714Y-93035428D01*
X90527095Y-93225904D01*
X90479476Y-93321142D01*
X90431857Y-93368761D01*
X90336619Y-93416380D01*
X90241380Y-93416380D01*
X90146142Y-93368761D01*
X90098523Y-93321142D01*
X90050904Y-93225904D01*
X90003285Y-93035428D01*
X90003285Y-92797333D01*
X90050904Y-92606857D01*
X90098523Y-92511619D01*
X90146142Y-92464000D01*
X90241380Y-92416380D01*
X91146142Y-92844952D02*
X91050904Y-92797333D01*
X91003285Y-92749714D01*
X90955666Y-92654476D01*
X90955666Y-92606857D01*
X91003285Y-92511619D01*
X91050904Y-92464000D01*
X91146142Y-92416380D01*
X91336619Y-92416380D01*
X91431857Y-92464000D01*
X91479476Y-92511619D01*
X91527095Y-92606857D01*
X91527095Y-92654476D01*
X91479476Y-92749714D01*
X91431857Y-92797333D01*
X91336619Y-92844952D01*
X91146142Y-92844952D01*
X91050904Y-92892571D01*
X91003285Y-92940190D01*
X90955666Y-93035428D01*
X90955666Y-93225904D01*
X91003285Y-93321142D01*
X91050904Y-93368761D01*
X91146142Y-93416380D01*
X91336619Y-93416380D01*
X91431857Y-93368761D01*
X91479476Y-93321142D01*
X91527095Y-93225904D01*
X91527095Y-93035428D01*
X91479476Y-92940190D01*
X91431857Y-92892571D01*
X91336619Y-92844952D01*
%TO.C,U101*%
X108140714Y-96480380D02*
X108140714Y-97289904D01*
X108188333Y-97385142D01*
X108235952Y-97432761D01*
X108331190Y-97480380D01*
X108521666Y-97480380D01*
X108616904Y-97432761D01*
X108664523Y-97385142D01*
X108712142Y-97289904D01*
X108712142Y-96480380D01*
X109712142Y-97480380D02*
X109140714Y-97480380D01*
X109426428Y-97480380D02*
X109426428Y-96480380D01*
X109331190Y-96623238D01*
X109235952Y-96718476D01*
X109140714Y-96766095D01*
X110331190Y-96480380D02*
X110426428Y-96480380D01*
X110521666Y-96528000D01*
X110569285Y-96575619D01*
X110616904Y-96670857D01*
X110664523Y-96861333D01*
X110664523Y-97099428D01*
X110616904Y-97289904D01*
X110569285Y-97385142D01*
X110521666Y-97432761D01*
X110426428Y-97480380D01*
X110331190Y-97480380D01*
X110235952Y-97432761D01*
X110188333Y-97385142D01*
X110140714Y-97289904D01*
X110093095Y-97099428D01*
X110093095Y-96861333D01*
X110140714Y-96670857D01*
X110188333Y-96575619D01*
X110235952Y-96528000D01*
X110331190Y-96480380D01*
X111616904Y-97480380D02*
X111045476Y-97480380D01*
X111331190Y-97480380D02*
X111331190Y-96480380D01*
X111235952Y-96623238D01*
X111140714Y-96718476D01*
X111045476Y-96766095D01*
%TO.C,D109*%
X120848380Y-119800476D02*
X119848380Y-119800476D01*
X119848380Y-119562380D01*
X119896000Y-119419523D01*
X119991238Y-119324285D01*
X120086476Y-119276666D01*
X120276952Y-119229047D01*
X120419809Y-119229047D01*
X120610285Y-119276666D01*
X120705523Y-119324285D01*
X120800761Y-119419523D01*
X120848380Y-119562380D01*
X120848380Y-119800476D01*
X120848380Y-118276666D02*
X120848380Y-118848095D01*
X120848380Y-118562380D02*
X119848380Y-118562380D01*
X119991238Y-118657619D01*
X120086476Y-118752857D01*
X120134095Y-118848095D01*
X119848380Y-117657619D02*
X119848380Y-117562380D01*
X119896000Y-117467142D01*
X119943619Y-117419523D01*
X120038857Y-117371904D01*
X120229333Y-117324285D01*
X120467428Y-117324285D01*
X120657904Y-117371904D01*
X120753142Y-117419523D01*
X120800761Y-117467142D01*
X120848380Y-117562380D01*
X120848380Y-117657619D01*
X120800761Y-117752857D01*
X120753142Y-117800476D01*
X120657904Y-117848095D01*
X120467428Y-117895714D01*
X120229333Y-117895714D01*
X120038857Y-117848095D01*
X119943619Y-117800476D01*
X119896000Y-117752857D01*
X119848380Y-117657619D01*
X120848380Y-116848095D02*
X120848380Y-116657619D01*
X120800761Y-116562380D01*
X120753142Y-116514761D01*
X120610285Y-116419523D01*
X120419809Y-116371904D01*
X120038857Y-116371904D01*
X119943619Y-116419523D01*
X119896000Y-116467142D01*
X119848380Y-116562380D01*
X119848380Y-116752857D01*
X119896000Y-116848095D01*
X119943619Y-116895714D01*
X120038857Y-116943333D01*
X120276952Y-116943333D01*
X120372190Y-116895714D01*
X120419809Y-116848095D01*
X120467428Y-116752857D01*
X120467428Y-116562380D01*
X120419809Y-116467142D01*
X120372190Y-116419523D01*
X120276952Y-116371904D01*
%TO.C,D110*%
X125928380Y-119800476D02*
X124928380Y-119800476D01*
X124928380Y-119562380D01*
X124976000Y-119419523D01*
X125071238Y-119324285D01*
X125166476Y-119276666D01*
X125356952Y-119229047D01*
X125499809Y-119229047D01*
X125690285Y-119276666D01*
X125785523Y-119324285D01*
X125880761Y-119419523D01*
X125928380Y-119562380D01*
X125928380Y-119800476D01*
X125928380Y-118276666D02*
X125928380Y-118848095D01*
X125928380Y-118562380D02*
X124928380Y-118562380D01*
X125071238Y-118657619D01*
X125166476Y-118752857D01*
X125214095Y-118848095D01*
X125928380Y-117324285D02*
X125928380Y-117895714D01*
X125928380Y-117610000D02*
X124928380Y-117610000D01*
X125071238Y-117705238D01*
X125166476Y-117800476D01*
X125214095Y-117895714D01*
X124928380Y-116705238D02*
X124928380Y-116610000D01*
X124976000Y-116514761D01*
X125023619Y-116467142D01*
X125118857Y-116419523D01*
X125309333Y-116371904D01*
X125547428Y-116371904D01*
X125737904Y-116419523D01*
X125833142Y-116467142D01*
X125880761Y-116514761D01*
X125928380Y-116610000D01*
X125928380Y-116705238D01*
X125880761Y-116800476D01*
X125833142Y-116848095D01*
X125737904Y-116895714D01*
X125547428Y-116943333D01*
X125309333Y-116943333D01*
X125118857Y-116895714D01*
X125023619Y-116848095D01*
X124976000Y-116800476D01*
X124928380Y-116705238D01*
%TO.C,D111*%
X120848380Y-106338476D02*
X119848380Y-106338476D01*
X119848380Y-106100380D01*
X119896000Y-105957523D01*
X119991238Y-105862285D01*
X120086476Y-105814666D01*
X120276952Y-105767047D01*
X120419809Y-105767047D01*
X120610285Y-105814666D01*
X120705523Y-105862285D01*
X120800761Y-105957523D01*
X120848380Y-106100380D01*
X120848380Y-106338476D01*
X120848380Y-104814666D02*
X120848380Y-105386095D01*
X120848380Y-105100380D02*
X119848380Y-105100380D01*
X119991238Y-105195619D01*
X120086476Y-105290857D01*
X120134095Y-105386095D01*
X120848380Y-103862285D02*
X120848380Y-104433714D01*
X120848380Y-104148000D02*
X119848380Y-104148000D01*
X119991238Y-104243238D01*
X120086476Y-104338476D01*
X120134095Y-104433714D01*
X120848380Y-102909904D02*
X120848380Y-103481333D01*
X120848380Y-103195619D02*
X119848380Y-103195619D01*
X119991238Y-103290857D01*
X120086476Y-103386095D01*
X120134095Y-103481333D01*
%TO.C,D112*%
X125928380Y-106338476D02*
X124928380Y-106338476D01*
X124928380Y-106100380D01*
X124976000Y-105957523D01*
X125071238Y-105862285D01*
X125166476Y-105814666D01*
X125356952Y-105767047D01*
X125499809Y-105767047D01*
X125690285Y-105814666D01*
X125785523Y-105862285D01*
X125880761Y-105957523D01*
X125928380Y-106100380D01*
X125928380Y-106338476D01*
X125928380Y-104814666D02*
X125928380Y-105386095D01*
X125928380Y-105100380D02*
X124928380Y-105100380D01*
X125071238Y-105195619D01*
X125166476Y-105290857D01*
X125214095Y-105386095D01*
X125928380Y-103862285D02*
X125928380Y-104433714D01*
X125928380Y-104148000D02*
X124928380Y-104148000D01*
X125071238Y-104243238D01*
X125166476Y-104338476D01*
X125214095Y-104433714D01*
X125023619Y-103481333D02*
X124976000Y-103433714D01*
X124928380Y-103338476D01*
X124928380Y-103100380D01*
X124976000Y-103005142D01*
X125023619Y-102957523D01*
X125118857Y-102909904D01*
X125214095Y-102909904D01*
X125356952Y-102957523D01*
X125928380Y-103528952D01*
X125928380Y-102909904D01*
%TO.C,R101*%
X132659380Y-118213047D02*
X132183190Y-118546380D01*
X132659380Y-118784476D02*
X131659380Y-118784476D01*
X131659380Y-118403523D01*
X131707000Y-118308285D01*
X131754619Y-118260666D01*
X131849857Y-118213047D01*
X131992714Y-118213047D01*
X132087952Y-118260666D01*
X132135571Y-118308285D01*
X132183190Y-118403523D01*
X132183190Y-118784476D01*
X132659380Y-117260666D02*
X132659380Y-117832095D01*
X132659380Y-117546380D02*
X131659380Y-117546380D01*
X131802238Y-117641619D01*
X131897476Y-117736857D01*
X131945095Y-117832095D01*
X131659380Y-116641619D02*
X131659380Y-116546380D01*
X131707000Y-116451142D01*
X131754619Y-116403523D01*
X131849857Y-116355904D01*
X132040333Y-116308285D01*
X132278428Y-116308285D01*
X132468904Y-116355904D01*
X132564142Y-116403523D01*
X132611761Y-116451142D01*
X132659380Y-116546380D01*
X132659380Y-116641619D01*
X132611761Y-116736857D01*
X132564142Y-116784476D01*
X132468904Y-116832095D01*
X132278428Y-116879714D01*
X132040333Y-116879714D01*
X131849857Y-116832095D01*
X131754619Y-116784476D01*
X131707000Y-116736857D01*
X131659380Y-116641619D01*
X132659380Y-115355904D02*
X132659380Y-115927333D01*
X132659380Y-115641619D02*
X131659380Y-115641619D01*
X131802238Y-115736857D01*
X131897476Y-115832095D01*
X131945095Y-115927333D01*
%TO.C,R102*%
X135707380Y-118213047D02*
X135231190Y-118546380D01*
X135707380Y-118784476D02*
X134707380Y-118784476D01*
X134707380Y-118403523D01*
X134755000Y-118308285D01*
X134802619Y-118260666D01*
X134897857Y-118213047D01*
X135040714Y-118213047D01*
X135135952Y-118260666D01*
X135183571Y-118308285D01*
X135231190Y-118403523D01*
X135231190Y-118784476D01*
X135707380Y-117260666D02*
X135707380Y-117832095D01*
X135707380Y-117546380D02*
X134707380Y-117546380D01*
X134850238Y-117641619D01*
X134945476Y-117736857D01*
X134993095Y-117832095D01*
X134707380Y-116641619D02*
X134707380Y-116546380D01*
X134755000Y-116451142D01*
X134802619Y-116403523D01*
X134897857Y-116355904D01*
X135088333Y-116308285D01*
X135326428Y-116308285D01*
X135516904Y-116355904D01*
X135612142Y-116403523D01*
X135659761Y-116451142D01*
X135707380Y-116546380D01*
X135707380Y-116641619D01*
X135659761Y-116736857D01*
X135612142Y-116784476D01*
X135516904Y-116832095D01*
X135326428Y-116879714D01*
X135088333Y-116879714D01*
X134897857Y-116832095D01*
X134802619Y-116784476D01*
X134755000Y-116736857D01*
X134707380Y-116641619D01*
X134802619Y-115927333D02*
X134755000Y-115879714D01*
X134707380Y-115784476D01*
X134707380Y-115546380D01*
X134755000Y-115451142D01*
X134802619Y-115403523D01*
X134897857Y-115355904D01*
X134993095Y-115355904D01*
X135135952Y-115403523D01*
X135707380Y-115974952D01*
X135707380Y-115355904D01*
%TO.C,R103*%
X139644380Y-118213047D02*
X139168190Y-118546380D01*
X139644380Y-118784476D02*
X138644380Y-118784476D01*
X138644380Y-118403523D01*
X138692000Y-118308285D01*
X138739619Y-118260666D01*
X138834857Y-118213047D01*
X138977714Y-118213047D01*
X139072952Y-118260666D01*
X139120571Y-118308285D01*
X139168190Y-118403523D01*
X139168190Y-118784476D01*
X139644380Y-117260666D02*
X139644380Y-117832095D01*
X139644380Y-117546380D02*
X138644380Y-117546380D01*
X138787238Y-117641619D01*
X138882476Y-117736857D01*
X138930095Y-117832095D01*
X138644380Y-116641619D02*
X138644380Y-116546380D01*
X138692000Y-116451142D01*
X138739619Y-116403523D01*
X138834857Y-116355904D01*
X139025333Y-116308285D01*
X139263428Y-116308285D01*
X139453904Y-116355904D01*
X139549142Y-116403523D01*
X139596761Y-116451142D01*
X139644380Y-116546380D01*
X139644380Y-116641619D01*
X139596761Y-116736857D01*
X139549142Y-116784476D01*
X139453904Y-116832095D01*
X139263428Y-116879714D01*
X139025333Y-116879714D01*
X138834857Y-116832095D01*
X138739619Y-116784476D01*
X138692000Y-116736857D01*
X138644380Y-116641619D01*
X138644380Y-115974952D02*
X138644380Y-115355904D01*
X139025333Y-115689238D01*
X139025333Y-115546380D01*
X139072952Y-115451142D01*
X139120571Y-115403523D01*
X139215809Y-115355904D01*
X139453904Y-115355904D01*
X139549142Y-115403523D01*
X139596761Y-115451142D01*
X139644380Y-115546380D01*
X139644380Y-115832095D01*
X139596761Y-115927333D01*
X139549142Y-115974952D01*
%TO.C,R104*%
X142692380Y-118213047D02*
X142216190Y-118546380D01*
X142692380Y-118784476D02*
X141692380Y-118784476D01*
X141692380Y-118403523D01*
X141740000Y-118308285D01*
X141787619Y-118260666D01*
X141882857Y-118213047D01*
X142025714Y-118213047D01*
X142120952Y-118260666D01*
X142168571Y-118308285D01*
X142216190Y-118403523D01*
X142216190Y-118784476D01*
X142692380Y-117260666D02*
X142692380Y-117832095D01*
X142692380Y-117546380D02*
X141692380Y-117546380D01*
X141835238Y-117641619D01*
X141930476Y-117736857D01*
X141978095Y-117832095D01*
X141692380Y-116641619D02*
X141692380Y-116546380D01*
X141740000Y-116451142D01*
X141787619Y-116403523D01*
X141882857Y-116355904D01*
X142073333Y-116308285D01*
X142311428Y-116308285D01*
X142501904Y-116355904D01*
X142597142Y-116403523D01*
X142644761Y-116451142D01*
X142692380Y-116546380D01*
X142692380Y-116641619D01*
X142644761Y-116736857D01*
X142597142Y-116784476D01*
X142501904Y-116832095D01*
X142311428Y-116879714D01*
X142073333Y-116879714D01*
X141882857Y-116832095D01*
X141787619Y-116784476D01*
X141740000Y-116736857D01*
X141692380Y-116641619D01*
X142025714Y-115451142D02*
X142692380Y-115451142D01*
X141644761Y-115689238D02*
X142359047Y-115927333D01*
X142359047Y-115308285D01*
%TO.C,U102*%
X121118380Y-92646285D02*
X121927904Y-92646285D01*
X122023142Y-92598666D01*
X122070761Y-92551047D01*
X122118380Y-92455809D01*
X122118380Y-92265333D01*
X122070761Y-92170095D01*
X122023142Y-92122476D01*
X121927904Y-92074857D01*
X121118380Y-92074857D01*
X122118380Y-91074857D02*
X122118380Y-91646285D01*
X122118380Y-91360571D02*
X121118380Y-91360571D01*
X121261238Y-91455809D01*
X121356476Y-91551047D01*
X121404095Y-91646285D01*
X121118380Y-90455809D02*
X121118380Y-90360571D01*
X121166000Y-90265333D01*
X121213619Y-90217714D01*
X121308857Y-90170095D01*
X121499333Y-90122476D01*
X121737428Y-90122476D01*
X121927904Y-90170095D01*
X122023142Y-90217714D01*
X122070761Y-90265333D01*
X122118380Y-90360571D01*
X122118380Y-90455809D01*
X122070761Y-90551047D01*
X122023142Y-90598666D01*
X121927904Y-90646285D01*
X121737428Y-90693904D01*
X121499333Y-90693904D01*
X121308857Y-90646285D01*
X121213619Y-90598666D01*
X121166000Y-90551047D01*
X121118380Y-90455809D01*
X121213619Y-89741523D02*
X121166000Y-89693904D01*
X121118380Y-89598666D01*
X121118380Y-89360571D01*
X121166000Y-89265333D01*
X121213619Y-89217714D01*
X121308857Y-89170095D01*
X121404095Y-89170095D01*
X121546952Y-89217714D01*
X122118380Y-89789142D01*
X122118380Y-89170095D01*
%TO.C,U103*%
X133310380Y-92900285D02*
X134119904Y-92900285D01*
X134215142Y-92852666D01*
X134262761Y-92805047D01*
X134310380Y-92709809D01*
X134310380Y-92519333D01*
X134262761Y-92424095D01*
X134215142Y-92376476D01*
X134119904Y-92328857D01*
X133310380Y-92328857D01*
X134310380Y-91328857D02*
X134310380Y-91900285D01*
X134310380Y-91614571D02*
X133310380Y-91614571D01*
X133453238Y-91709809D01*
X133548476Y-91805047D01*
X133596095Y-91900285D01*
X133310380Y-90709809D02*
X133310380Y-90614571D01*
X133358000Y-90519333D01*
X133405619Y-90471714D01*
X133500857Y-90424095D01*
X133691333Y-90376476D01*
X133929428Y-90376476D01*
X134119904Y-90424095D01*
X134215142Y-90471714D01*
X134262761Y-90519333D01*
X134310380Y-90614571D01*
X134310380Y-90709809D01*
X134262761Y-90805047D01*
X134215142Y-90852666D01*
X134119904Y-90900285D01*
X133929428Y-90947904D01*
X133691333Y-90947904D01*
X133500857Y-90900285D01*
X133405619Y-90852666D01*
X133358000Y-90805047D01*
X133310380Y-90709809D01*
X133310380Y-90043142D02*
X133310380Y-89424095D01*
X133691333Y-89757428D01*
X133691333Y-89614571D01*
X133738952Y-89519333D01*
X133786571Y-89471714D01*
X133881809Y-89424095D01*
X134119904Y-89424095D01*
X134215142Y-89471714D01*
X134262761Y-89519333D01*
X134310380Y-89614571D01*
X134310380Y-89900285D01*
X134262761Y-89995523D01*
X134215142Y-90043142D01*
%TO.C,U104*%
X121118380Y-79438285D02*
X121927904Y-79438285D01*
X122023142Y-79390666D01*
X122070761Y-79343047D01*
X122118380Y-79247809D01*
X122118380Y-79057333D01*
X122070761Y-78962095D01*
X122023142Y-78914476D01*
X121927904Y-78866857D01*
X121118380Y-78866857D01*
X122118380Y-77866857D02*
X122118380Y-78438285D01*
X122118380Y-78152571D02*
X121118380Y-78152571D01*
X121261238Y-78247809D01*
X121356476Y-78343047D01*
X121404095Y-78438285D01*
X121118380Y-77247809D02*
X121118380Y-77152571D01*
X121166000Y-77057333D01*
X121213619Y-77009714D01*
X121308857Y-76962095D01*
X121499333Y-76914476D01*
X121737428Y-76914476D01*
X121927904Y-76962095D01*
X122023142Y-77009714D01*
X122070761Y-77057333D01*
X122118380Y-77152571D01*
X122118380Y-77247809D01*
X122070761Y-77343047D01*
X122023142Y-77390666D01*
X121927904Y-77438285D01*
X121737428Y-77485904D01*
X121499333Y-77485904D01*
X121308857Y-77438285D01*
X121213619Y-77390666D01*
X121166000Y-77343047D01*
X121118380Y-77247809D01*
X121451714Y-76057333D02*
X122118380Y-76057333D01*
X121070761Y-76295428D02*
X121785047Y-76533523D01*
X121785047Y-75914476D01*
%TO.C,U105*%
X133310380Y-79438285D02*
X134119904Y-79438285D01*
X134215142Y-79390666D01*
X134262761Y-79343047D01*
X134310380Y-79247809D01*
X134310380Y-79057333D01*
X134262761Y-78962095D01*
X134215142Y-78914476D01*
X134119904Y-78866857D01*
X133310380Y-78866857D01*
X134310380Y-77866857D02*
X134310380Y-78438285D01*
X134310380Y-78152571D02*
X133310380Y-78152571D01*
X133453238Y-78247809D01*
X133548476Y-78343047D01*
X133596095Y-78438285D01*
X133310380Y-77247809D02*
X133310380Y-77152571D01*
X133358000Y-77057333D01*
X133405619Y-77009714D01*
X133500857Y-76962095D01*
X133691333Y-76914476D01*
X133929428Y-76914476D01*
X134119904Y-76962095D01*
X134215142Y-77009714D01*
X134262761Y-77057333D01*
X134310380Y-77152571D01*
X134310380Y-77247809D01*
X134262761Y-77343047D01*
X134215142Y-77390666D01*
X134119904Y-77438285D01*
X133929428Y-77485904D01*
X133691333Y-77485904D01*
X133500857Y-77438285D01*
X133405619Y-77390666D01*
X133358000Y-77343047D01*
X133310380Y-77247809D01*
X133310380Y-76009714D02*
X133310380Y-76485904D01*
X133786571Y-76533523D01*
X133738952Y-76485904D01*
X133691333Y-76390666D01*
X133691333Y-76152571D01*
X133738952Y-76057333D01*
X133786571Y-76009714D01*
X133881809Y-75962095D01*
X134119904Y-75962095D01*
X134215142Y-76009714D01*
X134262761Y-76057333D01*
X134310380Y-76152571D01*
X134310380Y-76390666D01*
X134262761Y-76485904D01*
X134215142Y-76533523D01*
%TO.C,D113*%
X217876380Y-93257476D02*
X216876380Y-93257476D01*
X216876380Y-93019380D01*
X216924000Y-92876523D01*
X217019238Y-92781285D01*
X217114476Y-92733666D01*
X217304952Y-92686047D01*
X217447809Y-92686047D01*
X217638285Y-92733666D01*
X217733523Y-92781285D01*
X217828761Y-92876523D01*
X217876380Y-93019380D01*
X217876380Y-93257476D01*
X217876380Y-91733666D02*
X217876380Y-92305095D01*
X217876380Y-92019380D02*
X216876380Y-92019380D01*
X217019238Y-92114619D01*
X217114476Y-92209857D01*
X217162095Y-92305095D01*
X217876380Y-90781285D02*
X217876380Y-91352714D01*
X217876380Y-91067000D02*
X216876380Y-91067000D01*
X217019238Y-91162238D01*
X217114476Y-91257476D01*
X217162095Y-91352714D01*
X216876380Y-90447952D02*
X216876380Y-89828904D01*
X217257333Y-90162238D01*
X217257333Y-90019380D01*
X217304952Y-89924142D01*
X217352571Y-89876523D01*
X217447809Y-89828904D01*
X217685904Y-89828904D01*
X217781142Y-89876523D01*
X217828761Y-89924142D01*
X217876380Y-90019380D01*
X217876380Y-90305095D01*
X217828761Y-90400333D01*
X217781142Y-90447952D01*
%TO.C,D114*%
X226766380Y-95797476D02*
X225766380Y-95797476D01*
X225766380Y-95559380D01*
X225814000Y-95416523D01*
X225909238Y-95321285D01*
X226004476Y-95273666D01*
X226194952Y-95226047D01*
X226337809Y-95226047D01*
X226528285Y-95273666D01*
X226623523Y-95321285D01*
X226718761Y-95416523D01*
X226766380Y-95559380D01*
X226766380Y-95797476D01*
X226766380Y-94273666D02*
X226766380Y-94845095D01*
X226766380Y-94559380D02*
X225766380Y-94559380D01*
X225909238Y-94654619D01*
X226004476Y-94749857D01*
X226052095Y-94845095D01*
X226766380Y-93321285D02*
X226766380Y-93892714D01*
X226766380Y-93607000D02*
X225766380Y-93607000D01*
X225909238Y-93702238D01*
X226004476Y-93797476D01*
X226052095Y-93892714D01*
X226099714Y-92464142D02*
X226766380Y-92464142D01*
X225718761Y-92702238D02*
X226433047Y-92940333D01*
X226433047Y-92321285D01*
%TO.C,D115*%
X217876380Y-108497476D02*
X216876380Y-108497476D01*
X216876380Y-108259380D01*
X216924000Y-108116523D01*
X217019238Y-108021285D01*
X217114476Y-107973666D01*
X217304952Y-107926047D01*
X217447809Y-107926047D01*
X217638285Y-107973666D01*
X217733523Y-108021285D01*
X217828761Y-108116523D01*
X217876380Y-108259380D01*
X217876380Y-108497476D01*
X217876380Y-106973666D02*
X217876380Y-107545095D01*
X217876380Y-107259380D02*
X216876380Y-107259380D01*
X217019238Y-107354619D01*
X217114476Y-107449857D01*
X217162095Y-107545095D01*
X217876380Y-106021285D02*
X217876380Y-106592714D01*
X217876380Y-106307000D02*
X216876380Y-106307000D01*
X217019238Y-106402238D01*
X217114476Y-106497476D01*
X217162095Y-106592714D01*
X216876380Y-105116523D02*
X216876380Y-105592714D01*
X217352571Y-105640333D01*
X217304952Y-105592714D01*
X217257333Y-105497476D01*
X217257333Y-105259380D01*
X217304952Y-105164142D01*
X217352571Y-105116523D01*
X217447809Y-105068904D01*
X217685904Y-105068904D01*
X217781142Y-105116523D01*
X217828761Y-105164142D01*
X217876380Y-105259380D01*
X217876380Y-105497476D01*
X217828761Y-105592714D01*
X217781142Y-105640333D01*
%TO.C,D116*%
X227398840Y-110730136D02*
X226398840Y-110730136D01*
X226398840Y-110492040D01*
X226446460Y-110349183D01*
X226541698Y-110253945D01*
X226636936Y-110206326D01*
X226827412Y-110158707D01*
X226970269Y-110158707D01*
X227160745Y-110206326D01*
X227255983Y-110253945D01*
X227351221Y-110349183D01*
X227398840Y-110492040D01*
X227398840Y-110730136D01*
X227398840Y-109206326D02*
X227398840Y-109777755D01*
X227398840Y-109492040D02*
X226398840Y-109492040D01*
X226541698Y-109587279D01*
X226636936Y-109682517D01*
X226684555Y-109777755D01*
X227398840Y-108253945D02*
X227398840Y-108825374D01*
X227398840Y-108539660D02*
X226398840Y-108539660D01*
X226541698Y-108634898D01*
X226636936Y-108730136D01*
X226684555Y-108825374D01*
X226398840Y-107396802D02*
X226398840Y-107587279D01*
X226446460Y-107682517D01*
X226494079Y-107730136D01*
X226636936Y-107825374D01*
X226827412Y-107872993D01*
X227208364Y-107872993D01*
X227303602Y-107825374D01*
X227351221Y-107777755D01*
X227398840Y-107682517D01*
X227398840Y-107492040D01*
X227351221Y-107396802D01*
X227303602Y-107349183D01*
X227208364Y-107301564D01*
X226970269Y-107301564D01*
X226875031Y-107349183D01*
X226827412Y-107396802D01*
X226779793Y-107492040D01*
X226779793Y-107682517D01*
X226827412Y-107777755D01*
X226875031Y-107825374D01*
X226970269Y-107872993D01*
%TO.C,R111*%
X187602952Y-98623380D02*
X187269619Y-98147190D01*
X187031523Y-98623380D02*
X187031523Y-97623380D01*
X187412476Y-97623380D01*
X187507714Y-97671000D01*
X187555333Y-97718619D01*
X187602952Y-97813857D01*
X187602952Y-97956714D01*
X187555333Y-98051952D01*
X187507714Y-98099571D01*
X187412476Y-98147190D01*
X187031523Y-98147190D01*
X188555333Y-98623380D02*
X187983904Y-98623380D01*
X188269619Y-98623380D02*
X188269619Y-97623380D01*
X188174380Y-97766238D01*
X188079142Y-97861476D01*
X187983904Y-97909095D01*
X189507714Y-98623380D02*
X188936285Y-98623380D01*
X189222000Y-98623380D02*
X189222000Y-97623380D01*
X189126761Y-97766238D01*
X189031523Y-97861476D01*
X188936285Y-97909095D01*
X190460095Y-98623380D02*
X189888666Y-98623380D01*
X190174380Y-98623380D02*
X190174380Y-97623380D01*
X190079142Y-97766238D01*
X189983904Y-97861476D01*
X189888666Y-97909095D01*
%TO.C,R112*%
X187602952Y-106116380D02*
X187269619Y-105640190D01*
X187031523Y-106116380D02*
X187031523Y-105116380D01*
X187412476Y-105116380D01*
X187507714Y-105164000D01*
X187555333Y-105211619D01*
X187602952Y-105306857D01*
X187602952Y-105449714D01*
X187555333Y-105544952D01*
X187507714Y-105592571D01*
X187412476Y-105640190D01*
X187031523Y-105640190D01*
X188555333Y-106116380D02*
X187983904Y-106116380D01*
X188269619Y-106116380D02*
X188269619Y-105116380D01*
X188174380Y-105259238D01*
X188079142Y-105354476D01*
X187983904Y-105402095D01*
X189507714Y-106116380D02*
X188936285Y-106116380D01*
X189222000Y-106116380D02*
X189222000Y-105116380D01*
X189126761Y-105259238D01*
X189031523Y-105354476D01*
X188936285Y-105402095D01*
X189888666Y-105211619D02*
X189936285Y-105164000D01*
X190031523Y-105116380D01*
X190269619Y-105116380D01*
X190364857Y-105164000D01*
X190412476Y-105211619D01*
X190460095Y-105306857D01*
X190460095Y-105402095D01*
X190412476Y-105544952D01*
X189841047Y-106116380D01*
X190460095Y-106116380D01*
%TO.C,R113*%
X187602952Y-111196380D02*
X187269619Y-110720190D01*
X187031523Y-111196380D02*
X187031523Y-110196380D01*
X187412476Y-110196380D01*
X187507714Y-110244000D01*
X187555333Y-110291619D01*
X187602952Y-110386857D01*
X187602952Y-110529714D01*
X187555333Y-110624952D01*
X187507714Y-110672571D01*
X187412476Y-110720190D01*
X187031523Y-110720190D01*
X188555333Y-111196380D02*
X187983904Y-111196380D01*
X188269619Y-111196380D02*
X188269619Y-110196380D01*
X188174380Y-110339238D01*
X188079142Y-110434476D01*
X187983904Y-110482095D01*
X189507714Y-111196380D02*
X188936285Y-111196380D01*
X189222000Y-111196380D02*
X189222000Y-110196380D01*
X189126761Y-110339238D01*
X189031523Y-110434476D01*
X188936285Y-110482095D01*
X189841047Y-110196380D02*
X190460095Y-110196380D01*
X190126761Y-110577333D01*
X190269619Y-110577333D01*
X190364857Y-110624952D01*
X190412476Y-110672571D01*
X190460095Y-110767809D01*
X190460095Y-111005904D01*
X190412476Y-111101142D01*
X190364857Y-111148761D01*
X190269619Y-111196380D01*
X189983904Y-111196380D01*
X189888666Y-111148761D01*
X189841047Y-111101142D01*
%TO.C,R114*%
X187602952Y-108656380D02*
X187269619Y-108180190D01*
X187031523Y-108656380D02*
X187031523Y-107656380D01*
X187412476Y-107656380D01*
X187507714Y-107704000D01*
X187555333Y-107751619D01*
X187602952Y-107846857D01*
X187602952Y-107989714D01*
X187555333Y-108084952D01*
X187507714Y-108132571D01*
X187412476Y-108180190D01*
X187031523Y-108180190D01*
X188555333Y-108656380D02*
X187983904Y-108656380D01*
X188269619Y-108656380D02*
X188269619Y-107656380D01*
X188174380Y-107799238D01*
X188079142Y-107894476D01*
X187983904Y-107942095D01*
X189507714Y-108656380D02*
X188936285Y-108656380D01*
X189222000Y-108656380D02*
X189222000Y-107656380D01*
X189126761Y-107799238D01*
X189031523Y-107894476D01*
X188936285Y-107942095D01*
X190364857Y-107989714D02*
X190364857Y-108656380D01*
X190126761Y-107608761D02*
X189888666Y-108323047D01*
X190507714Y-108323047D01*
%TO.C,P101*%
X135723523Y-123642380D02*
X135723523Y-122642380D01*
X136104476Y-122642380D01*
X136199714Y-122690000D01*
X136247333Y-122737619D01*
X136294952Y-122832857D01*
X136294952Y-122975714D01*
X136247333Y-123070952D01*
X136199714Y-123118571D01*
X136104476Y-123166190D01*
X135723523Y-123166190D01*
X137247333Y-123642380D02*
X136675904Y-123642380D01*
X136961619Y-123642380D02*
X136961619Y-122642380D01*
X136866380Y-122785238D01*
X136771142Y-122880476D01*
X136675904Y-122928095D01*
X137866380Y-122642380D02*
X137961619Y-122642380D01*
X138056857Y-122690000D01*
X138104476Y-122737619D01*
X138152095Y-122832857D01*
X138199714Y-123023333D01*
X138199714Y-123261428D01*
X138152095Y-123451904D01*
X138104476Y-123547142D01*
X138056857Y-123594761D01*
X137961619Y-123642380D01*
X137866380Y-123642380D01*
X137771142Y-123594761D01*
X137723523Y-123547142D01*
X137675904Y-123451904D01*
X137628285Y-123261428D01*
X137628285Y-123023333D01*
X137675904Y-122832857D01*
X137723523Y-122737619D01*
X137771142Y-122690000D01*
X137866380Y-122642380D01*
X139152095Y-123642380D02*
X138580666Y-123642380D01*
X138866380Y-123642380D02*
X138866380Y-122642380D01*
X138771142Y-122785238D01*
X138675904Y-122880476D01*
X138580666Y-122928095D01*
%TO.C,P102*%
X94575523Y-123388380D02*
X94575523Y-122388380D01*
X94956476Y-122388380D01*
X95051714Y-122436000D01*
X95099333Y-122483619D01*
X95146952Y-122578857D01*
X95146952Y-122721714D01*
X95099333Y-122816952D01*
X95051714Y-122864571D01*
X94956476Y-122912190D01*
X94575523Y-122912190D01*
X96099333Y-123388380D02*
X95527904Y-123388380D01*
X95813619Y-123388380D02*
X95813619Y-122388380D01*
X95718380Y-122531238D01*
X95623142Y-122626476D01*
X95527904Y-122674095D01*
X96718380Y-122388380D02*
X96813619Y-122388380D01*
X96908857Y-122436000D01*
X96956476Y-122483619D01*
X97004095Y-122578857D01*
X97051714Y-122769333D01*
X97051714Y-123007428D01*
X97004095Y-123197904D01*
X96956476Y-123293142D01*
X96908857Y-123340761D01*
X96813619Y-123388380D01*
X96718380Y-123388380D01*
X96623142Y-123340761D01*
X96575523Y-123293142D01*
X96527904Y-123197904D01*
X96480285Y-123007428D01*
X96480285Y-122769333D01*
X96527904Y-122578857D01*
X96575523Y-122483619D01*
X96623142Y-122436000D01*
X96718380Y-122388380D01*
X97432666Y-122483619D02*
X97480285Y-122436000D01*
X97575523Y-122388380D01*
X97813619Y-122388380D01*
X97908857Y-122436000D01*
X97956476Y-122483619D01*
X98004095Y-122578857D01*
X98004095Y-122674095D01*
X97956476Y-122816952D01*
X97385047Y-123388380D01*
X98004095Y-123388380D01*
%TO.C,P103*%
X82748380Y-112434476D02*
X81748380Y-112434476D01*
X81748380Y-112053523D01*
X81796000Y-111958285D01*
X81843619Y-111910666D01*
X81938857Y-111863047D01*
X82081714Y-111863047D01*
X82176952Y-111910666D01*
X82224571Y-111958285D01*
X82272190Y-112053523D01*
X82272190Y-112434476D01*
X82748380Y-110910666D02*
X82748380Y-111482095D01*
X82748380Y-111196380D02*
X81748380Y-111196380D01*
X81891238Y-111291619D01*
X81986476Y-111386857D01*
X82034095Y-111482095D01*
X81748380Y-110291619D02*
X81748380Y-110196380D01*
X81796000Y-110101142D01*
X81843619Y-110053523D01*
X81938857Y-110005904D01*
X82129333Y-109958285D01*
X82367428Y-109958285D01*
X82557904Y-110005904D01*
X82653142Y-110053523D01*
X82700761Y-110101142D01*
X82748380Y-110196380D01*
X82748380Y-110291619D01*
X82700761Y-110386857D01*
X82653142Y-110434476D01*
X82557904Y-110482095D01*
X82367428Y-110529714D01*
X82129333Y-110529714D01*
X81938857Y-110482095D01*
X81843619Y-110434476D01*
X81796000Y-110386857D01*
X81748380Y-110291619D01*
X81748380Y-109624952D02*
X81748380Y-109005904D01*
X82129333Y-109339238D01*
X82129333Y-109196380D01*
X82176952Y-109101142D01*
X82224571Y-109053523D01*
X82319809Y-109005904D01*
X82557904Y-109005904D01*
X82653142Y-109053523D01*
X82700761Y-109101142D01*
X82748380Y-109196380D01*
X82748380Y-109482095D01*
X82700761Y-109577333D01*
X82653142Y-109624952D01*
%TO.C,P104*%
X82748380Y-89066476D02*
X81748380Y-89066476D01*
X81748380Y-88685523D01*
X81796000Y-88590285D01*
X81843619Y-88542666D01*
X81938857Y-88495047D01*
X82081714Y-88495047D01*
X82176952Y-88542666D01*
X82224571Y-88590285D01*
X82272190Y-88685523D01*
X82272190Y-89066476D01*
X82748380Y-87542666D02*
X82748380Y-88114095D01*
X82748380Y-87828380D02*
X81748380Y-87828380D01*
X81891238Y-87923619D01*
X81986476Y-88018857D01*
X82034095Y-88114095D01*
X81748380Y-86923619D02*
X81748380Y-86828380D01*
X81796000Y-86733142D01*
X81843619Y-86685523D01*
X81938857Y-86637904D01*
X82129333Y-86590285D01*
X82367428Y-86590285D01*
X82557904Y-86637904D01*
X82653142Y-86685523D01*
X82700761Y-86733142D01*
X82748380Y-86828380D01*
X82748380Y-86923619D01*
X82700761Y-87018857D01*
X82653142Y-87066476D01*
X82557904Y-87114095D01*
X82367428Y-87161714D01*
X82129333Y-87161714D01*
X81938857Y-87114095D01*
X81843619Y-87066476D01*
X81796000Y-87018857D01*
X81748380Y-86923619D01*
X82081714Y-85733142D02*
X82748380Y-85733142D01*
X81700761Y-85971238D02*
X82415047Y-86209333D01*
X82415047Y-85590285D01*
%TO.C,P105*%
X165441523Y-123642380D02*
X165441523Y-122642380D01*
X165822476Y-122642380D01*
X165917714Y-122690000D01*
X165965333Y-122737619D01*
X166012952Y-122832857D01*
X166012952Y-122975714D01*
X165965333Y-123070952D01*
X165917714Y-123118571D01*
X165822476Y-123166190D01*
X165441523Y-123166190D01*
X166965333Y-123642380D02*
X166393904Y-123642380D01*
X166679619Y-123642380D02*
X166679619Y-122642380D01*
X166584380Y-122785238D01*
X166489142Y-122880476D01*
X166393904Y-122928095D01*
X167584380Y-122642380D02*
X167679619Y-122642380D01*
X167774857Y-122690000D01*
X167822476Y-122737619D01*
X167870095Y-122832857D01*
X167917714Y-123023333D01*
X167917714Y-123261428D01*
X167870095Y-123451904D01*
X167822476Y-123547142D01*
X167774857Y-123594761D01*
X167679619Y-123642380D01*
X167584380Y-123642380D01*
X167489142Y-123594761D01*
X167441523Y-123547142D01*
X167393904Y-123451904D01*
X167346285Y-123261428D01*
X167346285Y-123023333D01*
X167393904Y-122832857D01*
X167441523Y-122737619D01*
X167489142Y-122690000D01*
X167584380Y-122642380D01*
X168822476Y-122642380D02*
X168346285Y-122642380D01*
X168298666Y-123118571D01*
X168346285Y-123070952D01*
X168441523Y-123023333D01*
X168679619Y-123023333D01*
X168774857Y-123070952D01*
X168822476Y-123118571D01*
X168870095Y-123213809D01*
X168870095Y-123451904D01*
X168822476Y-123547142D01*
X168774857Y-123594761D01*
X168679619Y-123642380D01*
X168441523Y-123642380D01*
X168346285Y-123594761D01*
X168298666Y-123547142D01*
%TO.C,P106*%
X183475523Y-123642380D02*
X183475523Y-122642380D01*
X183856476Y-122642380D01*
X183951714Y-122690000D01*
X183999333Y-122737619D01*
X184046952Y-122832857D01*
X184046952Y-122975714D01*
X183999333Y-123070952D01*
X183951714Y-123118571D01*
X183856476Y-123166190D01*
X183475523Y-123166190D01*
X184999333Y-123642380D02*
X184427904Y-123642380D01*
X184713619Y-123642380D02*
X184713619Y-122642380D01*
X184618380Y-122785238D01*
X184523142Y-122880476D01*
X184427904Y-122928095D01*
X185618380Y-122642380D02*
X185713619Y-122642380D01*
X185808857Y-122690000D01*
X185856476Y-122737619D01*
X185904095Y-122832857D01*
X185951714Y-123023333D01*
X185951714Y-123261428D01*
X185904095Y-123451904D01*
X185856476Y-123547142D01*
X185808857Y-123594761D01*
X185713619Y-123642380D01*
X185618380Y-123642380D01*
X185523142Y-123594761D01*
X185475523Y-123547142D01*
X185427904Y-123451904D01*
X185380285Y-123261428D01*
X185380285Y-123023333D01*
X185427904Y-122832857D01*
X185475523Y-122737619D01*
X185523142Y-122690000D01*
X185618380Y-122642380D01*
X186808857Y-122642380D02*
X186618380Y-122642380D01*
X186523142Y-122690000D01*
X186475523Y-122737619D01*
X186380285Y-122880476D01*
X186332666Y-123070952D01*
X186332666Y-123451904D01*
X186380285Y-123547142D01*
X186427904Y-123594761D01*
X186523142Y-123642380D01*
X186713619Y-123642380D01*
X186808857Y-123594761D01*
X186856476Y-123547142D01*
X186904095Y-123451904D01*
X186904095Y-123213809D01*
X186856476Y-123118571D01*
X186808857Y-123070952D01*
X186713619Y-123023333D01*
X186523142Y-123023333D01*
X186427904Y-123070952D01*
X186380285Y-123118571D01*
X186332666Y-123213809D01*
%TO.C,P107*%
X165187523Y-76144380D02*
X165187523Y-75144380D01*
X165568476Y-75144380D01*
X165663714Y-75192000D01*
X165711333Y-75239619D01*
X165758952Y-75334857D01*
X165758952Y-75477714D01*
X165711333Y-75572952D01*
X165663714Y-75620571D01*
X165568476Y-75668190D01*
X165187523Y-75668190D01*
X166711333Y-76144380D02*
X166139904Y-76144380D01*
X166425619Y-76144380D02*
X166425619Y-75144380D01*
X166330380Y-75287238D01*
X166235142Y-75382476D01*
X166139904Y-75430095D01*
X167330380Y-75144380D02*
X167425619Y-75144380D01*
X167520857Y-75192000D01*
X167568476Y-75239619D01*
X167616095Y-75334857D01*
X167663714Y-75525333D01*
X167663714Y-75763428D01*
X167616095Y-75953904D01*
X167568476Y-76049142D01*
X167520857Y-76096761D01*
X167425619Y-76144380D01*
X167330380Y-76144380D01*
X167235142Y-76096761D01*
X167187523Y-76049142D01*
X167139904Y-75953904D01*
X167092285Y-75763428D01*
X167092285Y-75525333D01*
X167139904Y-75334857D01*
X167187523Y-75239619D01*
X167235142Y-75192000D01*
X167330380Y-75144380D01*
X167997047Y-75144380D02*
X168663714Y-75144380D01*
X168235142Y-76144380D01*
%TO.C,P108*%
X190333523Y-123642380D02*
X190333523Y-122642380D01*
X190714476Y-122642380D01*
X190809714Y-122690000D01*
X190857333Y-122737619D01*
X190904952Y-122832857D01*
X190904952Y-122975714D01*
X190857333Y-123070952D01*
X190809714Y-123118571D01*
X190714476Y-123166190D01*
X190333523Y-123166190D01*
X191857333Y-123642380D02*
X191285904Y-123642380D01*
X191571619Y-123642380D02*
X191571619Y-122642380D01*
X191476380Y-122785238D01*
X191381142Y-122880476D01*
X191285904Y-122928095D01*
X192476380Y-122642380D02*
X192571619Y-122642380D01*
X192666857Y-122690000D01*
X192714476Y-122737619D01*
X192762095Y-122832857D01*
X192809714Y-123023333D01*
X192809714Y-123261428D01*
X192762095Y-123451904D01*
X192714476Y-123547142D01*
X192666857Y-123594761D01*
X192571619Y-123642380D01*
X192476380Y-123642380D01*
X192381142Y-123594761D01*
X192333523Y-123547142D01*
X192285904Y-123451904D01*
X192238285Y-123261428D01*
X192238285Y-123023333D01*
X192285904Y-122832857D01*
X192333523Y-122737619D01*
X192381142Y-122690000D01*
X192476380Y-122642380D01*
X193381142Y-123070952D02*
X193285904Y-123023333D01*
X193238285Y-122975714D01*
X193190666Y-122880476D01*
X193190666Y-122832857D01*
X193238285Y-122737619D01*
X193285904Y-122690000D01*
X193381142Y-122642380D01*
X193571619Y-122642380D01*
X193666857Y-122690000D01*
X193714476Y-122737619D01*
X193762095Y-122832857D01*
X193762095Y-122880476D01*
X193714476Y-122975714D01*
X193666857Y-123023333D01*
X193571619Y-123070952D01*
X193381142Y-123070952D01*
X193285904Y-123118571D01*
X193238285Y-123166190D01*
X193190666Y-123261428D01*
X193190666Y-123451904D01*
X193238285Y-123547142D01*
X193285904Y-123594761D01*
X193381142Y-123642380D01*
X193571619Y-123642380D01*
X193666857Y-123594761D01*
X193714476Y-123547142D01*
X193762095Y-123451904D01*
X193762095Y-123261428D01*
X193714476Y-123166190D01*
X193666857Y-123118571D01*
X193571619Y-123070952D01*
%TO.C,P109*%
X228544380Y-101004476D02*
X227544380Y-101004476D01*
X227544380Y-100623523D01*
X227592000Y-100528285D01*
X227639619Y-100480666D01*
X227734857Y-100433047D01*
X227877714Y-100433047D01*
X227972952Y-100480666D01*
X228020571Y-100528285D01*
X228068190Y-100623523D01*
X228068190Y-101004476D01*
X228544380Y-99480666D02*
X228544380Y-100052095D01*
X228544380Y-99766380D02*
X227544380Y-99766380D01*
X227687238Y-99861619D01*
X227782476Y-99956857D01*
X227830095Y-100052095D01*
X227544380Y-98861619D02*
X227544380Y-98766380D01*
X227592000Y-98671142D01*
X227639619Y-98623523D01*
X227734857Y-98575904D01*
X227925333Y-98528285D01*
X228163428Y-98528285D01*
X228353904Y-98575904D01*
X228449142Y-98623523D01*
X228496761Y-98671142D01*
X228544380Y-98766380D01*
X228544380Y-98861619D01*
X228496761Y-98956857D01*
X228449142Y-99004476D01*
X228353904Y-99052095D01*
X228163428Y-99099714D01*
X227925333Y-99099714D01*
X227734857Y-99052095D01*
X227639619Y-99004476D01*
X227592000Y-98956857D01*
X227544380Y-98861619D01*
X228544380Y-98052095D02*
X228544380Y-97861619D01*
X228496761Y-97766380D01*
X228449142Y-97718761D01*
X228306285Y-97623523D01*
X228115809Y-97575904D01*
X227734857Y-97575904D01*
X227639619Y-97623523D01*
X227592000Y-97671142D01*
X227544380Y-97766380D01*
X227544380Y-97956857D01*
X227592000Y-98052095D01*
X227639619Y-98099714D01*
X227734857Y-98147333D01*
X227972952Y-98147333D01*
X228068190Y-98099714D01*
X228115809Y-98052095D01*
X228163428Y-97956857D01*
X228163428Y-97766380D01*
X228115809Y-97671142D01*
X228068190Y-97623523D01*
X227972952Y-97575904D01*
%TO.C,Q101*%
X210581380Y-98083619D02*
X210486142Y-98036000D01*
X210390904Y-97940761D01*
X210248047Y-97797904D01*
X210152809Y-97750285D01*
X210057571Y-97750285D01*
X210105190Y-97988380D02*
X210009952Y-97940761D01*
X209914714Y-97845523D01*
X209867095Y-97655047D01*
X209867095Y-97321714D01*
X209914714Y-97131238D01*
X210009952Y-97036000D01*
X210105190Y-96988380D01*
X210295666Y-96988380D01*
X210390904Y-97036000D01*
X210486142Y-97131238D01*
X210533761Y-97321714D01*
X210533761Y-97655047D01*
X210486142Y-97845523D01*
X210390904Y-97940761D01*
X210295666Y-97988380D01*
X210105190Y-97988380D01*
X211486142Y-97988380D02*
X210914714Y-97988380D01*
X211200428Y-97988380D02*
X211200428Y-96988380D01*
X211105190Y-97131238D01*
X211009952Y-97226476D01*
X210914714Y-97274095D01*
X212105190Y-96988380D02*
X212200428Y-96988380D01*
X212295666Y-97036000D01*
X212343285Y-97083619D01*
X212390904Y-97178857D01*
X212438523Y-97369333D01*
X212438523Y-97607428D01*
X212390904Y-97797904D01*
X212343285Y-97893142D01*
X212295666Y-97940761D01*
X212200428Y-97988380D01*
X212105190Y-97988380D01*
X212009952Y-97940761D01*
X211962333Y-97893142D01*
X211914714Y-97797904D01*
X211867095Y-97607428D01*
X211867095Y-97369333D01*
X211914714Y-97178857D01*
X211962333Y-97083619D01*
X212009952Y-97036000D01*
X212105190Y-96988380D01*
X213390904Y-97988380D02*
X212819476Y-97988380D01*
X213105190Y-97988380D02*
X213105190Y-96988380D01*
X213009952Y-97131238D01*
X212914714Y-97226476D01*
X212819476Y-97274095D01*
%TO.C,Q102*%
X200120380Y-98083619D02*
X200025142Y-98036000D01*
X199929904Y-97940761D01*
X199787047Y-97797904D01*
X199691809Y-97750285D01*
X199596571Y-97750285D01*
X199644190Y-97988380D02*
X199548952Y-97940761D01*
X199453714Y-97845523D01*
X199406095Y-97655047D01*
X199406095Y-97321714D01*
X199453714Y-97131238D01*
X199548952Y-97036000D01*
X199644190Y-96988380D01*
X199834666Y-96988380D01*
X199929904Y-97036000D01*
X200025142Y-97131238D01*
X200072761Y-97321714D01*
X200072761Y-97655047D01*
X200025142Y-97845523D01*
X199929904Y-97940761D01*
X199834666Y-97988380D01*
X199644190Y-97988380D01*
X201025142Y-97988380D02*
X200453714Y-97988380D01*
X200739428Y-97988380D02*
X200739428Y-96988380D01*
X200644190Y-97131238D01*
X200548952Y-97226476D01*
X200453714Y-97274095D01*
X201644190Y-96988380D02*
X201739428Y-96988380D01*
X201834666Y-97036000D01*
X201882285Y-97083619D01*
X201929904Y-97178857D01*
X201977523Y-97369333D01*
X201977523Y-97607428D01*
X201929904Y-97797904D01*
X201882285Y-97893142D01*
X201834666Y-97940761D01*
X201739428Y-97988380D01*
X201644190Y-97988380D01*
X201548952Y-97940761D01*
X201501333Y-97893142D01*
X201453714Y-97797904D01*
X201406095Y-97607428D01*
X201406095Y-97369333D01*
X201453714Y-97178857D01*
X201501333Y-97083619D01*
X201548952Y-97036000D01*
X201644190Y-96988380D01*
X202358476Y-97083619D02*
X202406095Y-97036000D01*
X202501333Y-96988380D01*
X202739428Y-96988380D01*
X202834666Y-97036000D01*
X202882285Y-97083619D01*
X202929904Y-97178857D01*
X202929904Y-97274095D01*
X202882285Y-97416952D01*
X202310857Y-97988380D01*
X202929904Y-97988380D01*
%TO.C,Q103*%
X200200380Y-101131619D02*
X200105142Y-101084000D01*
X200009904Y-100988761D01*
X199867047Y-100845904D01*
X199771809Y-100798285D01*
X199676571Y-100798285D01*
X199724190Y-101036380D02*
X199628952Y-100988761D01*
X199533714Y-100893523D01*
X199486095Y-100703047D01*
X199486095Y-100369714D01*
X199533714Y-100179238D01*
X199628952Y-100084000D01*
X199724190Y-100036380D01*
X199914666Y-100036380D01*
X200009904Y-100084000D01*
X200105142Y-100179238D01*
X200152761Y-100369714D01*
X200152761Y-100703047D01*
X200105142Y-100893523D01*
X200009904Y-100988761D01*
X199914666Y-101036380D01*
X199724190Y-101036380D01*
X201105142Y-101036380D02*
X200533714Y-101036380D01*
X200819428Y-101036380D02*
X200819428Y-100036380D01*
X200724190Y-100179238D01*
X200628952Y-100274476D01*
X200533714Y-100322095D01*
X201724190Y-100036380D02*
X201819428Y-100036380D01*
X201914666Y-100084000D01*
X201962285Y-100131619D01*
X202009904Y-100226857D01*
X202057523Y-100417333D01*
X202057523Y-100655428D01*
X202009904Y-100845904D01*
X201962285Y-100941142D01*
X201914666Y-100988761D01*
X201819428Y-101036380D01*
X201724190Y-101036380D01*
X201628952Y-100988761D01*
X201581333Y-100941142D01*
X201533714Y-100845904D01*
X201486095Y-100655428D01*
X201486095Y-100417333D01*
X201533714Y-100226857D01*
X201581333Y-100131619D01*
X201628952Y-100084000D01*
X201724190Y-100036380D01*
X202390857Y-100036380D02*
X203009904Y-100036380D01*
X202676571Y-100417333D01*
X202819428Y-100417333D01*
X202914666Y-100464952D01*
X202962285Y-100512571D01*
X203009904Y-100607809D01*
X203009904Y-100845904D01*
X202962285Y-100941142D01*
X202914666Y-100988761D01*
X202819428Y-101036380D01*
X202533714Y-101036380D01*
X202438476Y-100988761D01*
X202390857Y-100941142D01*
%TO.C,Q104*%
X210534380Y-101131619D02*
X210439142Y-101084000D01*
X210343904Y-100988761D01*
X210201047Y-100845904D01*
X210105809Y-100798285D01*
X210010571Y-100798285D01*
X210058190Y-101036380D02*
X209962952Y-100988761D01*
X209867714Y-100893523D01*
X209820095Y-100703047D01*
X209820095Y-100369714D01*
X209867714Y-100179238D01*
X209962952Y-100084000D01*
X210058190Y-100036380D01*
X210248666Y-100036380D01*
X210343904Y-100084000D01*
X210439142Y-100179238D01*
X210486761Y-100369714D01*
X210486761Y-100703047D01*
X210439142Y-100893523D01*
X210343904Y-100988761D01*
X210248666Y-101036380D01*
X210058190Y-101036380D01*
X211439142Y-101036380D02*
X210867714Y-101036380D01*
X211153428Y-101036380D02*
X211153428Y-100036380D01*
X211058190Y-100179238D01*
X210962952Y-100274476D01*
X210867714Y-100322095D01*
X212058190Y-100036380D02*
X212153428Y-100036380D01*
X212248666Y-100084000D01*
X212296285Y-100131619D01*
X212343904Y-100226857D01*
X212391523Y-100417333D01*
X212391523Y-100655428D01*
X212343904Y-100845904D01*
X212296285Y-100941142D01*
X212248666Y-100988761D01*
X212153428Y-101036380D01*
X212058190Y-101036380D01*
X211962952Y-100988761D01*
X211915333Y-100941142D01*
X211867714Y-100845904D01*
X211820095Y-100655428D01*
X211820095Y-100417333D01*
X211867714Y-100226857D01*
X211915333Y-100131619D01*
X211962952Y-100084000D01*
X212058190Y-100036380D01*
X213248666Y-100369714D02*
X213248666Y-101036380D01*
X213010571Y-99988761D02*
X212772476Y-100703047D01*
X213391523Y-100703047D01*
%TO.C,U106*%
X155765714Y-77176380D02*
X155765714Y-77985904D01*
X155813333Y-78081142D01*
X155860952Y-78128761D01*
X155956190Y-78176380D01*
X156146666Y-78176380D01*
X156241904Y-78128761D01*
X156289523Y-78081142D01*
X156337142Y-77985904D01*
X156337142Y-77176380D01*
X157337142Y-78176380D02*
X156765714Y-78176380D01*
X157051428Y-78176380D02*
X157051428Y-77176380D01*
X156956190Y-77319238D01*
X156860952Y-77414476D01*
X156765714Y-77462095D01*
X157956190Y-77176380D02*
X158051428Y-77176380D01*
X158146666Y-77224000D01*
X158194285Y-77271619D01*
X158241904Y-77366857D01*
X158289523Y-77557333D01*
X158289523Y-77795428D01*
X158241904Y-77985904D01*
X158194285Y-78081142D01*
X158146666Y-78128761D01*
X158051428Y-78176380D01*
X157956190Y-78176380D01*
X157860952Y-78128761D01*
X157813333Y-78081142D01*
X157765714Y-77985904D01*
X157718095Y-77795428D01*
X157718095Y-77557333D01*
X157765714Y-77366857D01*
X157813333Y-77271619D01*
X157860952Y-77224000D01*
X157956190Y-77176380D01*
X159146666Y-77176380D02*
X158956190Y-77176380D01*
X158860952Y-77224000D01*
X158813333Y-77271619D01*
X158718095Y-77414476D01*
X158670476Y-77604952D01*
X158670476Y-77985904D01*
X158718095Y-78081142D01*
X158765714Y-78128761D01*
X158860952Y-78176380D01*
X159051428Y-78176380D01*
X159146666Y-78128761D01*
X159194285Y-78081142D01*
X159241904Y-77985904D01*
X159241904Y-77747809D01*
X159194285Y-77652571D01*
X159146666Y-77604952D01*
X159051428Y-77557333D01*
X158860952Y-77557333D01*
X158765714Y-77604952D01*
X158718095Y-77652571D01*
X158670476Y-77747809D01*
%TO.C,Q107*%
X200120380Y-126531619D02*
X200025142Y-126484000D01*
X199929904Y-126388761D01*
X199787047Y-126245904D01*
X199691809Y-126198285D01*
X199596571Y-126198285D01*
X199644190Y-126436380D02*
X199548952Y-126388761D01*
X199453714Y-126293523D01*
X199406095Y-126103047D01*
X199406095Y-125769714D01*
X199453714Y-125579238D01*
X199548952Y-125484000D01*
X199644190Y-125436380D01*
X199834666Y-125436380D01*
X199929904Y-125484000D01*
X200025142Y-125579238D01*
X200072761Y-125769714D01*
X200072761Y-126103047D01*
X200025142Y-126293523D01*
X199929904Y-126388761D01*
X199834666Y-126436380D01*
X199644190Y-126436380D01*
X201025142Y-126436380D02*
X200453714Y-126436380D01*
X200739428Y-126436380D02*
X200739428Y-125436380D01*
X200644190Y-125579238D01*
X200548952Y-125674476D01*
X200453714Y-125722095D01*
X201644190Y-125436380D02*
X201739428Y-125436380D01*
X201834666Y-125484000D01*
X201882285Y-125531619D01*
X201929904Y-125626857D01*
X201977523Y-125817333D01*
X201977523Y-126055428D01*
X201929904Y-126245904D01*
X201882285Y-126341142D01*
X201834666Y-126388761D01*
X201739428Y-126436380D01*
X201644190Y-126436380D01*
X201548952Y-126388761D01*
X201501333Y-126341142D01*
X201453714Y-126245904D01*
X201406095Y-126055428D01*
X201406095Y-125817333D01*
X201453714Y-125626857D01*
X201501333Y-125531619D01*
X201548952Y-125484000D01*
X201644190Y-125436380D01*
X202310857Y-125436380D02*
X202977523Y-125436380D01*
X202548952Y-126436380D01*
%TO.C,Q108*%
X210661380Y-126531619D02*
X210566142Y-126484000D01*
X210470904Y-126388761D01*
X210328047Y-126245904D01*
X210232809Y-126198285D01*
X210137571Y-126198285D01*
X210185190Y-126436380D02*
X210089952Y-126388761D01*
X209994714Y-126293523D01*
X209947095Y-126103047D01*
X209947095Y-125769714D01*
X209994714Y-125579238D01*
X210089952Y-125484000D01*
X210185190Y-125436380D01*
X210375666Y-125436380D01*
X210470904Y-125484000D01*
X210566142Y-125579238D01*
X210613761Y-125769714D01*
X210613761Y-126103047D01*
X210566142Y-126293523D01*
X210470904Y-126388761D01*
X210375666Y-126436380D01*
X210185190Y-126436380D01*
X211566142Y-126436380D02*
X210994714Y-126436380D01*
X211280428Y-126436380D02*
X211280428Y-125436380D01*
X211185190Y-125579238D01*
X211089952Y-125674476D01*
X210994714Y-125722095D01*
X212185190Y-125436380D02*
X212280428Y-125436380D01*
X212375666Y-125484000D01*
X212423285Y-125531619D01*
X212470904Y-125626857D01*
X212518523Y-125817333D01*
X212518523Y-126055428D01*
X212470904Y-126245904D01*
X212423285Y-126341142D01*
X212375666Y-126388761D01*
X212280428Y-126436380D01*
X212185190Y-126436380D01*
X212089952Y-126388761D01*
X212042333Y-126341142D01*
X211994714Y-126245904D01*
X211947095Y-126055428D01*
X211947095Y-125817333D01*
X211994714Y-125626857D01*
X212042333Y-125531619D01*
X212089952Y-125484000D01*
X212185190Y-125436380D01*
X213089952Y-125864952D02*
X212994714Y-125817333D01*
X212947095Y-125769714D01*
X212899476Y-125674476D01*
X212899476Y-125626857D01*
X212947095Y-125531619D01*
X212994714Y-125484000D01*
X213089952Y-125436380D01*
X213280428Y-125436380D01*
X213375666Y-125484000D01*
X213423285Y-125531619D01*
X213470904Y-125626857D01*
X213470904Y-125674476D01*
X213423285Y-125769714D01*
X213375666Y-125817333D01*
X213280428Y-125864952D01*
X213089952Y-125864952D01*
X212994714Y-125912571D01*
X212947095Y-125960190D01*
X212899476Y-126055428D01*
X212899476Y-126245904D01*
X212947095Y-126341142D01*
X212994714Y-126388761D01*
X213089952Y-126436380D01*
X213280428Y-126436380D01*
X213375666Y-126388761D01*
X213423285Y-126341142D01*
X213470904Y-126245904D01*
X213470904Y-126055428D01*
X213423285Y-125960190D01*
X213375666Y-125912571D01*
X213280428Y-125864952D01*
%TO.C,Q105*%
X210661380Y-72429619D02*
X210566142Y-72382000D01*
X210470904Y-72286761D01*
X210328047Y-72143904D01*
X210232809Y-72096285D01*
X210137571Y-72096285D01*
X210185190Y-72334380D02*
X210089952Y-72286761D01*
X209994714Y-72191523D01*
X209947095Y-72001047D01*
X209947095Y-71667714D01*
X209994714Y-71477238D01*
X210089952Y-71382000D01*
X210185190Y-71334380D01*
X210375666Y-71334380D01*
X210470904Y-71382000D01*
X210566142Y-71477238D01*
X210613761Y-71667714D01*
X210613761Y-72001047D01*
X210566142Y-72191523D01*
X210470904Y-72286761D01*
X210375666Y-72334380D01*
X210185190Y-72334380D01*
X211566142Y-72334380D02*
X210994714Y-72334380D01*
X211280428Y-72334380D02*
X211280428Y-71334380D01*
X211185190Y-71477238D01*
X211089952Y-71572476D01*
X210994714Y-71620095D01*
X212185190Y-71334380D02*
X212280428Y-71334380D01*
X212375666Y-71382000D01*
X212423285Y-71429619D01*
X212470904Y-71524857D01*
X212518523Y-71715333D01*
X212518523Y-71953428D01*
X212470904Y-72143904D01*
X212423285Y-72239142D01*
X212375666Y-72286761D01*
X212280428Y-72334380D01*
X212185190Y-72334380D01*
X212089952Y-72286761D01*
X212042333Y-72239142D01*
X211994714Y-72143904D01*
X211947095Y-71953428D01*
X211947095Y-71715333D01*
X211994714Y-71524857D01*
X212042333Y-71429619D01*
X212089952Y-71382000D01*
X212185190Y-71334380D01*
X213423285Y-71334380D02*
X212947095Y-71334380D01*
X212899476Y-71810571D01*
X212947095Y-71762952D01*
X213042333Y-71715333D01*
X213280428Y-71715333D01*
X213375666Y-71762952D01*
X213423285Y-71810571D01*
X213470904Y-71905809D01*
X213470904Y-72143904D01*
X213423285Y-72239142D01*
X213375666Y-72286761D01*
X213280428Y-72334380D01*
X213042333Y-72334380D01*
X212947095Y-72286761D01*
X212899476Y-72239142D01*
%TO.C,Q106*%
X200247380Y-72429619D02*
X200152142Y-72382000D01*
X200056904Y-72286761D01*
X199914047Y-72143904D01*
X199818809Y-72096285D01*
X199723571Y-72096285D01*
X199771190Y-72334380D02*
X199675952Y-72286761D01*
X199580714Y-72191523D01*
X199533095Y-72001047D01*
X199533095Y-71667714D01*
X199580714Y-71477238D01*
X199675952Y-71382000D01*
X199771190Y-71334380D01*
X199961666Y-71334380D01*
X200056904Y-71382000D01*
X200152142Y-71477238D01*
X200199761Y-71667714D01*
X200199761Y-72001047D01*
X200152142Y-72191523D01*
X200056904Y-72286761D01*
X199961666Y-72334380D01*
X199771190Y-72334380D01*
X201152142Y-72334380D02*
X200580714Y-72334380D01*
X200866428Y-72334380D02*
X200866428Y-71334380D01*
X200771190Y-71477238D01*
X200675952Y-71572476D01*
X200580714Y-71620095D01*
X201771190Y-71334380D02*
X201866428Y-71334380D01*
X201961666Y-71382000D01*
X202009285Y-71429619D01*
X202056904Y-71524857D01*
X202104523Y-71715333D01*
X202104523Y-71953428D01*
X202056904Y-72143904D01*
X202009285Y-72239142D01*
X201961666Y-72286761D01*
X201866428Y-72334380D01*
X201771190Y-72334380D01*
X201675952Y-72286761D01*
X201628333Y-72239142D01*
X201580714Y-72143904D01*
X201533095Y-71953428D01*
X201533095Y-71715333D01*
X201580714Y-71524857D01*
X201628333Y-71429619D01*
X201675952Y-71382000D01*
X201771190Y-71334380D01*
X202961666Y-71334380D02*
X202771190Y-71334380D01*
X202675952Y-71382000D01*
X202628333Y-71429619D01*
X202533095Y-71572476D01*
X202485476Y-71762952D01*
X202485476Y-72143904D01*
X202533095Y-72239142D01*
X202580714Y-72286761D01*
X202675952Y-72334380D01*
X202866428Y-72334380D01*
X202961666Y-72286761D01*
X203009285Y-72239142D01*
X203056904Y-72143904D01*
X203056904Y-71905809D01*
X203009285Y-71810571D01*
X202961666Y-71762952D01*
X202866428Y-71715333D01*
X202675952Y-71715333D01*
X202580714Y-71762952D01*
X202533095Y-71810571D01*
X202485476Y-71905809D01*
%TD*%
M02*
