%TF.GenerationSoftware,KiCad,Pcbnew,5.1.9+dfsg1-1+deb11u1*%
%TF.CreationDate,2023-10-22T21:48:40+02:00*%
%TF.ProjectId,mainboard,6d61696e-626f-4617-9264-2e6b69636164,231022*%
%TF.SameCoordinates,Original*%
%TF.FileFunction,Copper,L2,Bot*%
%TF.FilePolarity,Positive*%
%FSLAX46Y46*%
G04 Gerber Fmt 4.6, Leading zero omitted, Abs format (unit mm)*
G04 Created by KiCad (PCBNEW 5.1.9+dfsg1-1+deb11u1) date 2023-10-22 21:48:40*
%MOMM*%
%LPD*%
G01*
G04 APERTURE LIST*
%TA.AperFunction,NonConductor*%
%ADD10C,0.300000*%
%TD*%
%TA.AperFunction,Profile*%
%ADD11C,0.100000*%
%TD*%
%TA.AperFunction,ComponentPad*%
%ADD12R,1.300000X1.300000*%
%TD*%
%TA.AperFunction,ComponentPad*%
%ADD13C,1.300000*%
%TD*%
%TA.AperFunction,ComponentPad*%
%ADD14C,1.397000*%
%TD*%
%TA.AperFunction,ComponentPad*%
%ADD15C,1.998980*%
%TD*%
%TA.AperFunction,ComponentPad*%
%ADD16R,1.998980X1.998980*%
%TD*%
%TA.AperFunction,ComponentPad*%
%ADD17O,1.699260X3.500120*%
%TD*%
%TA.AperFunction,ComponentPad*%
%ADD18O,1.600000X2.300000*%
%TD*%
%TA.AperFunction,ComponentPad*%
%ADD19C,6.400000*%
%TD*%
%TA.AperFunction,ComponentPad*%
%ADD20O,1.700000X1.700000*%
%TD*%
%TA.AperFunction,ComponentPad*%
%ADD21R,1.700000X1.700000*%
%TD*%
%TA.AperFunction,ComponentPad*%
%ADD22R,1.050000X1.500000*%
%TD*%
%TA.AperFunction,ComponentPad*%
%ADD23O,1.050000X1.500000*%
%TD*%
%TA.AperFunction,ComponentPad*%
%ADD24O,2.400000X1.600000*%
%TD*%
%TA.AperFunction,ComponentPad*%
%ADD25R,2.400000X1.600000*%
%TD*%
%TA.AperFunction,ComponentPad*%
%ADD26O,1.800000X1.800000*%
%TD*%
%TA.AperFunction,ComponentPad*%
%ADD27R,1.800000X1.800000*%
%TD*%
%TA.AperFunction,ViaPad*%
%ADD28C,0.600000*%
%TD*%
%TA.AperFunction,Conductor*%
%ADD29C,0.500000*%
%TD*%
%TA.AperFunction,Conductor*%
%ADD30C,1.000000*%
%TD*%
%TA.AperFunction,Conductor*%
%ADD31C,2.000000*%
%TD*%
G04 APERTURE END LIST*
D10*
X148760571Y-100604857D02*
X147260571Y-100604857D01*
X148332000Y-101104857D01*
X147260571Y-101604857D01*
X148760571Y-101604857D01*
X148760571Y-102319142D02*
X147260571Y-102319142D01*
X148332000Y-102819142D01*
X147260571Y-103319142D01*
X148760571Y-103319142D01*
X148760571Y-104819142D02*
X148760571Y-103962000D01*
X148760571Y-104390571D02*
X147260571Y-104390571D01*
X147474857Y-104247714D01*
X147617714Y-104104857D01*
X147689142Y-103962000D01*
X147260571Y-106104857D02*
X147260571Y-105819142D01*
X147332000Y-105676285D01*
X147403428Y-105604857D01*
X147617714Y-105462000D01*
X147903428Y-105390571D01*
X148474857Y-105390571D01*
X148617714Y-105462000D01*
X148689142Y-105533428D01*
X148760571Y-105676285D01*
X148760571Y-105962000D01*
X148689142Y-106104857D01*
X148617714Y-106176285D01*
X148474857Y-106247714D01*
X148117714Y-106247714D01*
X147974857Y-106176285D01*
X147903428Y-106104857D01*
X147832000Y-105962000D01*
X147832000Y-105676285D01*
X147903428Y-105533428D01*
X147974857Y-105462000D01*
X148117714Y-105390571D01*
X148760571Y-106890571D02*
X147260571Y-106890571D01*
X147260571Y-107247714D01*
X147332000Y-107462000D01*
X147474857Y-107604857D01*
X147617714Y-107676285D01*
X147903428Y-107747714D01*
X148117714Y-107747714D01*
X148403428Y-107676285D01*
X148546285Y-107604857D01*
X148689142Y-107462000D01*
X148760571Y-107247714D01*
X148760571Y-106890571D01*
X147260571Y-109747714D02*
X147617714Y-109747714D01*
X147474857Y-109390571D02*
X147617714Y-109747714D01*
X147474857Y-110104857D01*
X147903428Y-109533428D02*
X147617714Y-109747714D01*
X147903428Y-109962000D01*
X147403428Y-111747714D02*
X147332000Y-111819142D01*
X147260571Y-111962000D01*
X147260571Y-112319142D01*
X147332000Y-112462000D01*
X147403428Y-112533428D01*
X147546285Y-112604857D01*
X147689142Y-112604857D01*
X147903428Y-112533428D01*
X148760571Y-111676285D01*
X148760571Y-112604857D01*
X147260571Y-113533428D02*
X147260571Y-113676285D01*
X147332000Y-113819142D01*
X147403428Y-113890571D01*
X147546285Y-113962000D01*
X147832000Y-114033428D01*
X148189142Y-114033428D01*
X148474857Y-113962000D01*
X148617714Y-113890571D01*
X148689142Y-113819142D01*
X148760571Y-113676285D01*
X148760571Y-113533428D01*
X148689142Y-113390571D01*
X148617714Y-113319142D01*
X148474857Y-113247714D01*
X148189142Y-113176285D01*
X147832000Y-113176285D01*
X147546285Y-113247714D01*
X147403428Y-113319142D01*
X147332000Y-113390571D01*
X147260571Y-113533428D01*
X147403428Y-114604857D02*
X147332000Y-114676285D01*
X147260571Y-114819142D01*
X147260571Y-115176285D01*
X147332000Y-115319142D01*
X147403428Y-115390571D01*
X147546285Y-115462000D01*
X147689142Y-115462000D01*
X147903428Y-115390571D01*
X148760571Y-114533428D01*
X148760571Y-115462000D01*
X147260571Y-115962000D02*
X147260571Y-116890571D01*
X147832000Y-116390571D01*
X147832000Y-116604857D01*
X147903428Y-116747714D01*
X147974857Y-116819142D01*
X148117714Y-116890571D01*
X148474857Y-116890571D01*
X148617714Y-116819142D01*
X148689142Y-116747714D01*
X148760571Y-116604857D01*
X148760571Y-116176285D01*
X148689142Y-116033428D01*
X148617714Y-115962000D01*
D11*
X145288000Y-130810000D02*
X187706000Y-130810000D01*
X186690000Y-67818000D02*
X140208000Y-67818000D01*
X74803000Y-67818000D02*
X140335000Y-67818000D01*
X74803000Y-130810000D02*
X74803000Y-67818000D01*
X145415000Y-130810000D02*
X74803000Y-130810000D01*
X235331000Y-130810000D02*
X187579000Y-130810000D01*
X235331000Y-67818000D02*
X235331000Y-130810000D01*
X186563000Y-67818000D02*
X235331000Y-67818000D01*
D12*
%TO.P,C104,1*%
%TO.N,Net-(C104-Pad1)*%
X183642000Y-118999000D03*
D13*
%TO.P,C104,2*%
%TO.N,Net-(C104-Pad2)*%
X188642000Y-118999000D03*
%TD*%
D14*
%TO.P,R110,1*%
%TO.N,Net-(R110-Pad1)*%
X184912000Y-113284000D03*
%TO.P,R110,2*%
%TO.N,Net-(P108-Pad1)*%
X192532000Y-113284000D03*
%TD*%
%TO.P,R105,1*%
%TO.N,Net-(R105-Pad1)*%
X165227000Y-90424000D03*
%TO.P,R105,2*%
%TO.N,/+3.3V*%
X165227000Y-82804000D03*
%TD*%
%TO.P,R106,1*%
%TO.N,Net-(R106-Pad1)*%
X172212000Y-90424000D03*
%TO.P,R106,2*%
%TO.N,/+3.3V*%
X172212000Y-82804000D03*
%TD*%
%TO.P,R107,1*%
%TO.N,Net-(R107-Pad1)*%
X169037000Y-90424000D03*
%TO.P,R107,2*%
%TO.N,/+3.3V*%
X169037000Y-82804000D03*
%TD*%
%TO.P,R108,1*%
%TO.N,Net-(R108-Pad1)*%
X162052000Y-90424000D03*
%TO.P,R108,2*%
%TO.N,/+3.3V*%
X162052000Y-82804000D03*
%TD*%
%TO.P,R109,1*%
%TO.N,GND*%
X162052000Y-101219000D03*
%TO.P,R109,2*%
%TO.N,Net-(R108-Pad1)*%
X162052000Y-93599000D03*
%TD*%
D13*
%TO.P,C101,2*%
%TO.N,GND*%
X111577000Y-119888000D03*
D12*
%TO.P,C101,1*%
%TO.N,/+12V*%
X108077000Y-119888000D03*
%TD*%
D13*
%TO.P,C102,2*%
%TO.N,GND*%
X111577000Y-105918000D03*
D12*
%TO.P,C102,1*%
%TO.N,Net-(C102-Pad1)*%
X108077000Y-105918000D03*
%TD*%
%TO.P,C103,1*%
%TO.N,/+5V*%
X117602000Y-92964000D03*
D13*
%TO.P,C103,2*%
%TO.N,GND*%
X117602000Y-97964000D03*
%TD*%
D15*
%TO.P,D101,2*%
%TO.N,Net-(D101-Pad2)*%
X84963000Y-102872540D03*
D16*
%TO.P,D101,1*%
%TO.N,/+12V*%
X95123000Y-102872540D03*
%TD*%
D15*
%TO.P,D102,2*%
%TO.N,GND*%
X95123000Y-107947460D03*
D16*
%TO.P,D102,1*%
%TO.N,Net-(D101-Pad2)*%
X84963000Y-107947460D03*
%TD*%
D15*
%TO.P,D103,2*%
%TO.N,Net-(D103-Pad2)*%
X84963000Y-113032540D03*
D16*
%TO.P,D103,1*%
%TO.N,/+12V*%
X95123000Y-113032540D03*
%TD*%
D15*
%TO.P,D104,2*%
%TO.N,GND*%
X95123000Y-118107460D03*
D16*
%TO.P,D104,1*%
%TO.N,Net-(D103-Pad2)*%
X84963000Y-118107460D03*
%TD*%
D15*
%TO.P,D105,2*%
%TO.N,Net-(D105-Pad2)*%
X84963000Y-80012540D03*
D16*
%TO.P,D105,1*%
%TO.N,Net-(C102-Pad1)*%
X95123000Y-80012540D03*
%TD*%
D15*
%TO.P,D106,2*%
%TO.N,GND*%
X95123000Y-85087460D03*
D16*
%TO.P,D106,1*%
%TO.N,Net-(D105-Pad2)*%
X84963000Y-85087460D03*
%TD*%
D15*
%TO.P,D107,2*%
%TO.N,Net-(D107-Pad2)*%
X84963000Y-90172540D03*
D16*
%TO.P,D107,1*%
%TO.N,Net-(C102-Pad1)*%
X95123000Y-90172540D03*
%TD*%
D15*
%TO.P,D108,2*%
%TO.N,GND*%
X95123000Y-95247460D03*
D16*
%TO.P,D108,1*%
%TO.N,Net-(D107-Pad2)*%
X84963000Y-95247460D03*
%TD*%
D17*
%TO.P,U101,GND*%
%TO.N,GND*%
X109601000Y-93218000D03*
%TO.P,U101,VI*%
%TO.N,Net-(C102-Pad1)*%
X107061000Y-93218000D03*
%TO.P,U101,VO*%
%TO.N,/+5V*%
X112141000Y-93218000D03*
%TD*%
D15*
%TO.P,D109,2*%
%TO.N,Net-(D109-Pad2)*%
X122679460Y-113284000D03*
D16*
%TO.P,D109,1*%
%TO.N,Net-(D109-Pad1)*%
X122679460Y-123444000D03*
%TD*%
D15*
%TO.P,D110,2*%
%TO.N,Net-(D109-Pad2)*%
X127759460Y-113284000D03*
D16*
%TO.P,D110,1*%
%TO.N,Net-(D110-Pad1)*%
X127759460Y-123444000D03*
%TD*%
D15*
%TO.P,D111,2*%
%TO.N,Net-(D109-Pad2)*%
X122684540Y-109474000D03*
D16*
%TO.P,D111,1*%
%TO.N,Net-(D111-Pad1)*%
X122684540Y-99314000D03*
%TD*%
D15*
%TO.P,D112,2*%
%TO.N,Net-(D109-Pad2)*%
X127764540Y-109474000D03*
D16*
%TO.P,D112,1*%
%TO.N,Net-(D112-Pad1)*%
X127764540Y-99314000D03*
%TD*%
D14*
%TO.P,R101,1*%
%TO.N,Net-(D109-Pad1)*%
X132207000Y-113284000D03*
%TO.P,R101,2*%
%TO.N,Net-(P101-Pad2)*%
X132207000Y-120904000D03*
%TD*%
%TO.P,R102,1*%
%TO.N,Net-(D110-Pad1)*%
X135382000Y-113284000D03*
%TO.P,R102,2*%
%TO.N,Net-(P101-Pad3)*%
X135382000Y-120904000D03*
%TD*%
%TO.P,R103,1*%
%TO.N,Net-(D111-Pad1)*%
X139192000Y-113284000D03*
%TO.P,R103,2*%
%TO.N,Net-(P101-Pad4)*%
X139192000Y-120904000D03*
%TD*%
%TO.P,R104,1*%
%TO.N,Net-(D112-Pad1)*%
X142367000Y-113284000D03*
%TO.P,R104,2*%
%TO.N,Net-(P101-Pad5)*%
X142367000Y-120904000D03*
%TD*%
D18*
%TO.P,U102,1*%
%TO.N,Net-(D109-Pad1)*%
X125222000Y-94869000D03*
%TO.P,U102,2*%
%TO.N,Net-(D109-Pad2)*%
X127762000Y-94869000D03*
%TO.P,U102,3*%
%TO.N,N/C*%
X130302000Y-94869000D03*
%TO.P,U102,4*%
%TO.N,GND*%
X130302000Y-87249000D03*
%TO.P,U102,5*%
%TO.N,Net-(R105-Pad1)*%
X127762000Y-87249000D03*
%TO.P,U102,6*%
%TO.N,Net-(U102-Pad6)*%
X125222000Y-87249000D03*
%TD*%
%TO.P,U103,1*%
%TO.N,Net-(D110-Pad1)*%
X137287000Y-94869000D03*
%TO.P,U103,2*%
%TO.N,Net-(D109-Pad2)*%
X139827000Y-94869000D03*
%TO.P,U103,3*%
%TO.N,N/C*%
X142367000Y-94869000D03*
%TO.P,U103,4*%
%TO.N,GND*%
X142367000Y-87249000D03*
%TO.P,U103,5*%
%TO.N,Net-(R106-Pad1)*%
X139827000Y-87249000D03*
%TO.P,U103,6*%
%TO.N,Net-(U103-Pad6)*%
X137287000Y-87249000D03*
%TD*%
%TO.P,U104,1*%
%TO.N,Net-(D111-Pad1)*%
X125222000Y-81534000D03*
%TO.P,U104,2*%
%TO.N,Net-(D109-Pad2)*%
X127762000Y-81534000D03*
%TO.P,U104,3*%
%TO.N,N/C*%
X130302000Y-81534000D03*
%TO.P,U104,4*%
%TO.N,GND*%
X130302000Y-73914000D03*
%TO.P,U104,5*%
%TO.N,Net-(R107-Pad1)*%
X127762000Y-73914000D03*
%TO.P,U104,6*%
%TO.N,Net-(U104-Pad6)*%
X125222000Y-73914000D03*
%TD*%
%TO.P,U105,1*%
%TO.N,Net-(D112-Pad1)*%
X137287000Y-81534000D03*
%TO.P,U105,2*%
%TO.N,Net-(D109-Pad2)*%
X139827000Y-81534000D03*
%TO.P,U105,3*%
%TO.N,N/C*%
X142367000Y-81534000D03*
%TO.P,U105,4*%
%TO.N,GND*%
X142367000Y-73914000D03*
%TO.P,U105,5*%
%TO.N,Net-(R108-Pad1)*%
X139827000Y-73914000D03*
%TO.P,U105,6*%
%TO.N,Net-(U105-Pad6)*%
X137287000Y-73914000D03*
%TD*%
D15*
%TO.P,D113,2*%
%TO.N,Net-(D113-Pad2)*%
X219966540Y-96647000D03*
D16*
%TO.P,D113,1*%
%TO.N,Net-(D113-Pad1)*%
X219966540Y-86487000D03*
%TD*%
D15*
%TO.P,D114,2*%
%TO.N,Net-(D114-Pad2)*%
X223776540Y-99187000D03*
D16*
%TO.P,D114,1*%
%TO.N,Net-(D113-Pad1)*%
X223776540Y-89027000D03*
%TD*%
D15*
%TO.P,D115,2*%
%TO.N,Net-(D115-Pad2)*%
X219961460Y-101727000D03*
D16*
%TO.P,D115,1*%
%TO.N,Net-(D113-Pad1)*%
X219961460Y-111887000D03*
%TD*%
D15*
%TO.P,D116,2*%
%TO.N,Net-(D116-Pad2)*%
X224406460Y-104267000D03*
D16*
%TO.P,D116,1*%
%TO.N,Net-(D113-Pad1)*%
X224406460Y-114427000D03*
%TD*%
D14*
%TO.P,R111,1*%
%TO.N,Net-(R111-Pad1)*%
X184912000Y-98044000D03*
%TO.P,R111,2*%
%TO.N,Net-(Q101-Pad2)*%
X192532000Y-98044000D03*
%TD*%
%TO.P,R112,1*%
%TO.N,Net-(R112-Pad1)*%
X184912000Y-105664000D03*
%TO.P,R112,2*%
%TO.N,Net-(Q102-Pad2)*%
X192532000Y-105664000D03*
%TD*%
%TO.P,R113,1*%
%TO.N,Net-(R113-Pad1)*%
X184912000Y-110744000D03*
%TO.P,R113,2*%
%TO.N,Net-(Q103-Pad2)*%
X192532000Y-110744000D03*
%TD*%
%TO.P,R114,1*%
%TO.N,Net-(R114-Pad1)*%
X184912000Y-108204000D03*
%TO.P,R114,2*%
%TO.N,Net-(Q104-Pad2)*%
X192532000Y-108204000D03*
%TD*%
D19*
%TO.P,REF\u002A\u002A,1*%
%TO.N,N/C*%
X230251000Y-72898000D03*
%TD*%
%TO.P,REF\u002A\u002A,1*%
%TO.N,N/C*%
X230251000Y-125730000D03*
%TD*%
%TO.P,REF\u002A\u002A,1*%
%TO.N,N/C*%
X79883000Y-72898000D03*
%TD*%
%TO.P,REF\u002A\u002A,1*%
%TO.N,N/C*%
X79883000Y-125730000D03*
%TD*%
D20*
%TO.P,P101,5*%
%TO.N,Net-(P101-Pad5)*%
X142367000Y-125984000D03*
%TO.P,P101,4*%
%TO.N,Net-(P101-Pad4)*%
X139827000Y-125984000D03*
%TO.P,P101,3*%
%TO.N,Net-(P101-Pad3)*%
X137287000Y-125984000D03*
%TO.P,P101,2*%
%TO.N,Net-(P101-Pad2)*%
X134747000Y-125984000D03*
D21*
%TO.P,P101,1*%
%TO.N,Net-(D109-Pad2)*%
X132207000Y-125984000D03*
%TD*%
D20*
%TO.P,P102,2*%
%TO.N,GND*%
X95123000Y-125857000D03*
D21*
%TO.P,P102,1*%
%TO.N,/+12V*%
X97663000Y-125857000D03*
%TD*%
%TO.P,P103,1*%
%TO.N,Net-(D103-Pad2)*%
X79883000Y-112014000D03*
D20*
%TO.P,P103,2*%
%TO.N,Net-(D101-Pad2)*%
X79883000Y-109474000D03*
%TD*%
%TO.P,P104,2*%
%TO.N,Net-(D105-Pad2)*%
X79883000Y-86106000D03*
D21*
%TO.P,P104,1*%
%TO.N,Net-(D107-Pad2)*%
X79883000Y-88646000D03*
%TD*%
%TO.P,P105,1*%
%TO.N,GND*%
X164592000Y-125984000D03*
D20*
%TO.P,P105,2*%
%TO.N,Net-(P105-Pad2)*%
X167132000Y-125984000D03*
%TO.P,P105,3*%
%TO.N,Net-(P105-Pad3)*%
X169672000Y-125984000D03*
%TD*%
D21*
%TO.P,P106,1*%
%TO.N,GND*%
X183515000Y-125984000D03*
D20*
%TO.P,P106,2*%
%TO.N,Net-(C104-Pad2)*%
X186055000Y-125984000D03*
%TD*%
%TO.P,P107,2*%
%TO.N,Net-(P107-Pad2)*%
X168402000Y-72644000D03*
D21*
%TO.P,P107,1*%
%TO.N,GND*%
X165862000Y-72644000D03*
%TD*%
%TO.P,P108,1*%
%TO.N,Net-(P108-Pad1)*%
X190627000Y-125984000D03*
D20*
%TO.P,P108,2*%
%TO.N,GND*%
X193167000Y-125984000D03*
%TD*%
D21*
%TO.P,P109,1*%
%TO.N,Net-(D113-Pad1)*%
X230759000Y-94107000D03*
D20*
%TO.P,P109,2*%
%TO.N,Net-(D113-Pad2)*%
X230759000Y-96647000D03*
%TO.P,P109,3*%
%TO.N,Net-(D114-Pad2)*%
X230759000Y-99187000D03*
%TO.P,P109,4*%
%TO.N,Net-(D115-Pad2)*%
X230759000Y-101727000D03*
%TO.P,P109,5*%
%TO.N,Net-(D116-Pad2)*%
X230759000Y-104267000D03*
%TD*%
D22*
%TO.P,Q101,1*%
%TO.N,Net-(D113-Pad2)*%
X210439000Y-94107000D03*
D23*
%TO.P,Q101,3*%
%TO.N,Net-(Q101-Pad3)*%
X212979000Y-94107000D03*
%TO.P,Q101,2*%
%TO.N,Net-(Q101-Pad2)*%
X211709000Y-94107000D03*
%TD*%
%TO.P,Q102,2*%
%TO.N,Net-(Q102-Pad2)*%
X201231500Y-94107000D03*
%TO.P,Q102,3*%
%TO.N,Net-(Q102-Pad3)*%
X202501500Y-94107000D03*
D22*
%TO.P,Q102,1*%
%TO.N,Net-(D114-Pad2)*%
X199961500Y-94107000D03*
%TD*%
%TO.P,Q103,1*%
%TO.N,Net-(D115-Pad2)*%
X202438000Y-103949500D03*
D23*
%TO.P,Q103,3*%
%TO.N,Net-(Q103-Pad3)*%
X199898000Y-103949500D03*
%TO.P,Q103,2*%
%TO.N,Net-(Q103-Pad2)*%
X201168000Y-103949500D03*
%TD*%
%TO.P,Q104,2*%
%TO.N,Net-(Q104-Pad2)*%
X211709000Y-103949500D03*
%TO.P,Q104,3*%
%TO.N,Net-(Q104-Pad3)*%
X210439000Y-103949500D03*
D22*
%TO.P,Q104,1*%
%TO.N,Net-(D116-Pad2)*%
X212979000Y-103949500D03*
%TD*%
D24*
%TO.P,U106,16*%
%TO.N,Net-(U106-Pad16)*%
X156972000Y-118364000D03*
%TO.P,U106,15*%
%TO.N,Net-(P105-Pad2)*%
X156972000Y-115824000D03*
%TO.P,U106,14*%
%TO.N,Net-(P105-Pad3)*%
X156972000Y-113284000D03*
%TO.P,U106,13*%
%TO.N,Net-(U106-Pad13)*%
X156972000Y-110744000D03*
%TO.P,U106,28*%
%TO.N,Net-(P107-Pad2)*%
X177292000Y-90424000D03*
%TO.P,U106,12*%
%TO.N,Net-(U106-Pad12)*%
X156972000Y-108204000D03*
%TO.P,U106,27*%
%TO.N,Net-(U106-Pad27)*%
X177292000Y-92964000D03*
%TO.P,U106,11*%
%TO.N,Net-(U106-Pad11)*%
X156972000Y-105664000D03*
%TO.P,U106,26*%
%TO.N,/+5V*%
X177292000Y-95504000D03*
%TO.P,U106,10*%
%TO.N,Net-(U106-Pad10)*%
X156972000Y-103124000D03*
%TO.P,U106,25*%
%TO.N,Net-(R111-Pad1)*%
X177292000Y-98044000D03*
%TO.P,U106,9*%
%TO.N,Net-(U106-Pad9)*%
X156972000Y-100584000D03*
%TO.P,U106,24*%
%TO.N,Net-(R106-Pad1)*%
X177292000Y-100584000D03*
%TO.P,U106,8*%
%TO.N,Net-(U106-Pad8)*%
X156972000Y-98044000D03*
%TO.P,U106,23*%
%TO.N,Net-(R107-Pad1)*%
X177292000Y-103124000D03*
%TO.P,U106,7*%
%TO.N,Net-(U106-Pad7)*%
X156972000Y-95504000D03*
%TO.P,U106,22*%
%TO.N,Net-(R112-Pad1)*%
X177292000Y-105664000D03*
%TO.P,U106,6*%
%TO.N,Net-(U106-Pad6)*%
X156972000Y-92964000D03*
%TO.P,U106,21*%
%TO.N,Net-(R114-Pad1)*%
X177292000Y-108204000D03*
%TO.P,U106,5*%
%TO.N,Net-(R108-Pad1)*%
X156972000Y-90424000D03*
%TO.P,U106,20*%
%TO.N,Net-(R113-Pad1)*%
X177292000Y-110744000D03*
%TO.P,U106,4*%
%TO.N,GND*%
X156972000Y-87884000D03*
%TO.P,U106,19*%
%TO.N,Net-(R110-Pad1)*%
X177292000Y-113284000D03*
%TO.P,U106,3*%
%TO.N,Net-(U106-Pad3)*%
X156972000Y-85344000D03*
%TO.P,U106,18*%
%TO.N,Net-(R105-Pad1)*%
X177292000Y-115824000D03*
%TO.P,U106,2*%
%TO.N,/+3.3V*%
X156972000Y-82804000D03*
%TO.P,U106,17*%
%TO.N,Net-(C104-Pad1)*%
X177292000Y-118364000D03*
D25*
%TO.P,U106,1*%
%TO.N,Net-(U106-Pad1)*%
X156972000Y-80264000D03*
%TD*%
D26*
%TO.P,Q107,3*%
%TO.N,Net-(Q103-Pad3)*%
X198628000Y-108712000D03*
%TO.P,Q107,2*%
%TO.N,Net-(D115-Pad2)*%
X201168000Y-108712000D03*
D27*
%TO.P,Q107,1*%
%TO.N,GND*%
X203708000Y-108712000D03*
%TD*%
%TO.P,Q108,1*%
%TO.N,GND*%
X214249000Y-108712000D03*
D26*
%TO.P,Q108,2*%
%TO.N,Net-(D116-Pad2)*%
X211709000Y-108712000D03*
%TO.P,Q108,3*%
%TO.N,Net-(Q104-Pad3)*%
X209169000Y-108712000D03*
%TD*%
D27*
%TO.P,Q105,1*%
%TO.N,GND*%
X209169000Y-89408000D03*
D26*
%TO.P,Q105,2*%
%TO.N,Net-(D113-Pad2)*%
X211709000Y-89408000D03*
%TO.P,Q105,3*%
%TO.N,Net-(Q101-Pad3)*%
X214249000Y-89408000D03*
%TD*%
%TO.P,Q106,3*%
%TO.N,Net-(Q102-Pad3)*%
X203835000Y-89408000D03*
%TO.P,Q106,2*%
%TO.N,Net-(D114-Pad2)*%
X201295000Y-89408000D03*
D27*
%TO.P,Q106,1*%
%TO.N,GND*%
X198755000Y-89408000D03*
%TD*%
D28*
%TO.N,Net-(R108-Pad1)*%
X146812000Y-72644000D03*
%TD*%
D29*
%TO.N,Net-(C104-Pad1)*%
X177292000Y-118364000D02*
X183007000Y-118364000D01*
X183007000Y-118364000D02*
X183642000Y-118999000D01*
%TO.N,Net-(C104-Pad2)*%
X186055000Y-125984000D02*
X186055000Y-119761000D01*
X186817000Y-118999000D02*
X188642000Y-118999000D01*
X186055000Y-119761000D02*
X186817000Y-118999000D01*
D30*
%TO.N,GND*%
X142367000Y-73914000D02*
X144780000Y-73914000D01*
X142367000Y-87249000D02*
X143510000Y-87249000D01*
X144780000Y-69596000D02*
X144907000Y-69469000D01*
X144780000Y-85979000D02*
X144780000Y-73914000D01*
X144780000Y-73914000D02*
X144780000Y-69596000D01*
X143510000Y-87249000D02*
X144780000Y-85979000D01*
X130302000Y-73914000D02*
X132842000Y-73914000D01*
X130302000Y-87249000D02*
X131953000Y-87249000D01*
X132842000Y-86360000D02*
X132842000Y-73914000D01*
X132842000Y-73914000D02*
X132842000Y-69469000D01*
X131953000Y-87249000D02*
X132842000Y-86360000D01*
X156972000Y-87884000D02*
X153162000Y-87884000D01*
X151892000Y-86614000D02*
X151892000Y-69469000D01*
X153162000Y-87884000D02*
X151892000Y-86614000D01*
X206502000Y-73025000D02*
X206502000Y-69723000D01*
X206502000Y-69723000D02*
X206248000Y-69469000D01*
D31*
X203581000Y-69469000D02*
X206248000Y-69469000D01*
X206248000Y-69469000D02*
X206375000Y-69596000D01*
D30*
X193167000Y-125984000D02*
X193167000Y-128524000D01*
X193167000Y-128524000D02*
X193802000Y-129159000D01*
X165862000Y-72644000D02*
X165862000Y-69469000D01*
X206502000Y-85979000D02*
X206502000Y-73025000D01*
D31*
X121412000Y-69469000D02*
X120777000Y-70104000D01*
X203581000Y-69469000D02*
X165862000Y-69469000D01*
X165862000Y-69469000D02*
X151892000Y-69469000D01*
X151892000Y-69469000D02*
X144907000Y-69469000D01*
X144907000Y-69469000D02*
X132842000Y-69469000D01*
X132842000Y-69469000D02*
X121412000Y-69469000D01*
X109601000Y-97409000D02*
X117047000Y-97409000D01*
X117047000Y-97409000D02*
X117602000Y-97964000D01*
X109601000Y-93218000D02*
X109601000Y-88900000D01*
X109601000Y-88900000D02*
X111887000Y-86614000D01*
X111887000Y-86614000D02*
X117602000Y-86614000D01*
X117602000Y-86614000D02*
X119507000Y-84709000D01*
X119507000Y-84709000D02*
X119507000Y-71374000D01*
X119507000Y-71374000D02*
X120777000Y-70104000D01*
D30*
X164592000Y-129159000D02*
X164592000Y-125984000D01*
D31*
X165862000Y-129159000D02*
X164592000Y-129159000D01*
X164592000Y-129159000D02*
X149352000Y-129159000D01*
X111577000Y-126944000D02*
X113792000Y-129159000D01*
X113792000Y-129159000D02*
X149352000Y-129159000D01*
X111577000Y-126944000D02*
X111577000Y-119888000D01*
X193802000Y-129159000D02*
X183515000Y-129159000D01*
X183515000Y-129159000D02*
X165862000Y-129159000D01*
D30*
X206502000Y-112014000D02*
X206502000Y-129159000D01*
D31*
X95123000Y-95247460D02*
X101216460Y-95247460D01*
X104584500Y-112585500D02*
X111513500Y-112585500D01*
X102743000Y-110744000D02*
X104584500Y-112585500D01*
X102743000Y-96774000D02*
X102743000Y-110744000D01*
X101216460Y-95247460D02*
X102743000Y-96774000D01*
X93726000Y-118107460D02*
X93726000Y-117602000D01*
X93726000Y-117602000D02*
X92075000Y-115951000D01*
X92075000Y-87122000D02*
X92075000Y-86868000D01*
X93855540Y-85087460D02*
X95123000Y-85087460D01*
X92075000Y-86868000D02*
X93855540Y-85087460D01*
X111513500Y-119761000D02*
X111513500Y-112585500D01*
X111513500Y-112585500D02*
X111513500Y-105981500D01*
D30*
X111513500Y-105981500D02*
X111577000Y-105918000D01*
D31*
X111577000Y-105918000D02*
X111577000Y-101734500D01*
X109601000Y-99758500D02*
X109601000Y-97409000D01*
X109601000Y-97409000D02*
X109601000Y-93218000D01*
X111577000Y-101734500D02*
X109601000Y-99758500D01*
X93599000Y-95247460D02*
X92075000Y-95247460D01*
X92075000Y-107947460D02*
X92075000Y-99314000D01*
X92075000Y-99314000D02*
X92075000Y-95247460D01*
X92075000Y-95247460D02*
X92075000Y-93218000D01*
X95123000Y-125730000D02*
X95123000Y-118107460D01*
X92075000Y-87122000D02*
X92075000Y-93218000D01*
X93599000Y-95247460D02*
X95123000Y-95247460D01*
X92075000Y-107947460D02*
X95123000Y-107947460D01*
X92075000Y-109474000D02*
X92075000Y-107947460D01*
X92075000Y-109474000D02*
X92075000Y-115951000D01*
X95123000Y-118107460D02*
X93726000Y-118107460D01*
D30*
X183515000Y-125984000D02*
X183515000Y-129159000D01*
X200152000Y-85979000D02*
X206502000Y-85979000D01*
X198755000Y-87376000D02*
X200152000Y-85979000D01*
X198755000Y-89408000D02*
X198755000Y-87376000D01*
X209169000Y-87376000D02*
X209169000Y-89408000D01*
X208026000Y-85979000D02*
X209169000Y-87376000D01*
X206502000Y-85979000D02*
X208026000Y-85979000D01*
D31*
X205867000Y-129159000D02*
X193802000Y-129159000D01*
D30*
X204597000Y-112014000D02*
X206502000Y-112014000D01*
X203708000Y-111125000D02*
X204597000Y-112014000D01*
X203708000Y-108712000D02*
X203708000Y-111125000D01*
X214249000Y-111125000D02*
X214249000Y-108712000D01*
X212852000Y-112014000D02*
X214249000Y-111125000D01*
X206502000Y-112014000D02*
X212852000Y-112014000D01*
%TO.N,Net-(P107-Pad2)*%
X168402000Y-72644000D02*
X175260000Y-72644000D01*
X177292000Y-73660000D02*
X177292000Y-90424000D01*
X176276000Y-72644000D02*
X177292000Y-73660000D01*
X175260000Y-72644000D02*
X176276000Y-72644000D01*
D29*
%TO.N,Net-(P108-Pad1)*%
X190627000Y-125984000D02*
X190627000Y-120904000D01*
X192532000Y-118999000D02*
X192532000Y-113284000D01*
X190627000Y-120904000D02*
X192532000Y-118999000D01*
%TO.N,Net-(R110-Pad1)*%
X184912000Y-113284000D02*
X177292000Y-113284000D01*
%TO.N,Net-(P105-Pad2)*%
X167132000Y-125984000D02*
X167132000Y-117094000D01*
X165862000Y-115824000D02*
X156972000Y-115824000D01*
X167132000Y-117094000D02*
X165862000Y-115824000D01*
%TO.N,Net-(P105-Pad3)*%
X156972000Y-113284000D02*
X168402000Y-113284000D01*
X169672000Y-114554000D02*
X169672000Y-125984000D01*
X168402000Y-113284000D02*
X169672000Y-114554000D01*
%TO.N,Net-(R105-Pad1)*%
X165227000Y-90424000D02*
X165227000Y-107569000D01*
X173482000Y-115824000D02*
X177292000Y-115824000D01*
X165227000Y-107569000D02*
X173482000Y-115824000D01*
D30*
%TO.N,/+3.3V*%
X172212000Y-82804000D02*
X169037000Y-82804000D01*
X169037000Y-82804000D02*
X165227000Y-82804000D01*
X165227000Y-82804000D02*
X162052000Y-82804000D01*
X162052000Y-82804000D02*
X156972000Y-82804000D01*
D29*
%TO.N,Net-(R106-Pad1)*%
X172212000Y-90424000D02*
X172212000Y-99314000D01*
X173482000Y-100584000D02*
X177292000Y-100584000D01*
X172212000Y-99314000D02*
X173482000Y-100584000D01*
%TO.N,Net-(R107-Pad1)*%
X169037000Y-90424000D02*
X169037000Y-101854000D01*
X170307000Y-103124000D02*
X177292000Y-103124000D01*
X169037000Y-101854000D02*
X170307000Y-103124000D01*
%TO.N,Net-(R108-Pad1)*%
X146812000Y-72644000D02*
X146812000Y-89154000D01*
X146812000Y-89154000D02*
X148082000Y-90424000D01*
X148082000Y-90424000D02*
X156972000Y-90424000D01*
X156972000Y-90424000D02*
X162052000Y-90424000D01*
X162052000Y-90424000D02*
X162052000Y-93599000D01*
D31*
%TO.N,Net-(C102-Pad1)*%
X98139250Y-90170000D02*
X105664000Y-90170000D01*
X105664000Y-90170000D02*
X107061000Y-91567000D01*
X107061000Y-91567000D02*
X107061000Y-93218000D01*
X98139250Y-90170000D02*
X95125540Y-90170000D01*
D30*
X95125540Y-90170000D02*
X95123000Y-90172540D01*
D31*
X98139250Y-88677750D02*
X98139250Y-90170000D01*
X108077000Y-105918000D02*
X108077000Y-101790500D01*
X108077000Y-101790500D02*
X107061000Y-100774500D01*
X107061000Y-100774500D02*
X107061000Y-93218000D01*
D30*
X98139250Y-88677750D02*
X98171000Y-88646000D01*
D31*
X96649540Y-80012540D02*
X95123000Y-80012540D01*
X98171000Y-81534000D02*
X96649540Y-80012540D01*
X98171000Y-85090000D02*
X98171000Y-81534000D01*
X98171000Y-88646000D02*
X98171000Y-85090000D01*
%TO.N,/+5V*%
X112141000Y-93218000D02*
X117348000Y-93218000D01*
X117348000Y-93218000D02*
X117602000Y-92964000D01*
%TO.N,Net-(D101-Pad2)*%
X84963000Y-103380540D02*
X84963000Y-107947460D01*
X84963000Y-107947460D02*
X83436460Y-109474000D01*
X83436460Y-109474000D02*
X79883000Y-109474000D01*
%TO.N,Net-(D103-Pad2)*%
X84963000Y-113032540D02*
X83944460Y-112014000D01*
X83944460Y-112014000D02*
X79883000Y-112014000D01*
X84963000Y-118107460D02*
X84963000Y-113032540D01*
%TO.N,Net-(D105-Pad2)*%
X84963000Y-85087460D02*
X84963000Y-80012540D01*
X79883000Y-86106000D02*
X83944460Y-86106000D01*
X83944460Y-86106000D02*
X84963000Y-85087460D01*
%TO.N,Net-(D107-Pad2)*%
X79883000Y-88646000D02*
X83436460Y-88646000D01*
X83436460Y-88646000D02*
X84963000Y-90172540D01*
X84963000Y-90172540D02*
X84963000Y-95247460D01*
D30*
%TO.N,Net-(D109-Pad2)*%
X132207000Y-125984000D02*
X121412000Y-125984000D01*
X121412000Y-113284000D02*
X122679460Y-113284000D01*
X120142000Y-114554000D02*
X121412000Y-113284000D01*
X120142000Y-124714000D02*
X120142000Y-114554000D01*
X121412000Y-125984000D02*
X120142000Y-124714000D01*
X122679460Y-113284000D02*
X127759460Y-113284000D01*
X127759460Y-113284000D02*
X127764540Y-113278920D01*
X127764540Y-113278920D02*
X127764540Y-109474000D01*
X127764540Y-109474000D02*
X122684540Y-109474000D01*
D29*
%TO.N,Net-(D109-Pad1)*%
X132207000Y-113284000D02*
X132207000Y-105664000D01*
X132207000Y-105664000D02*
X130937000Y-104394000D01*
X130937000Y-104394000D02*
X126492000Y-104394000D01*
X126492000Y-104394000D02*
X125222000Y-103124000D01*
X125222000Y-103124000D02*
X125222000Y-94869000D01*
D30*
X132207000Y-113284000D02*
X132207000Y-115189000D01*
X122682000Y-117729000D02*
X122682000Y-123441460D01*
X123952000Y-116459000D02*
X122682000Y-117729000D01*
X130937000Y-116459000D02*
X123952000Y-116459000D01*
X132207000Y-115189000D02*
X130937000Y-116459000D01*
X122682000Y-123441460D02*
X122679460Y-123444000D01*
D29*
%TO.N,Net-(D110-Pad1)*%
X135382000Y-113284000D02*
X135382000Y-99949000D01*
X137287000Y-98044000D02*
X137287000Y-94869000D01*
X135382000Y-99949000D02*
X137287000Y-98044000D01*
D30*
X127759460Y-123444000D02*
X127759460Y-119636540D01*
X135382000Y-117094000D02*
X135382000Y-113284000D01*
X134112000Y-118364000D02*
X135382000Y-117094000D01*
X129032000Y-118364000D02*
X134112000Y-118364000D01*
X127759460Y-119636540D02*
X129032000Y-118364000D01*
D29*
%TO.N,Net-(D111-Pad1)*%
X122684540Y-99314000D02*
X122684540Y-82801460D01*
X123952000Y-81534000D02*
X125222000Y-81534000D01*
X122684540Y-82801460D02*
X123952000Y-81534000D01*
%TO.N,Net-(D112-Pad1)*%
X134747000Y-82804000D02*
X136017000Y-81534000D01*
X134747000Y-97409000D02*
X134747000Y-82804000D01*
X134112000Y-98044000D02*
X134747000Y-97409000D01*
X136017000Y-81534000D02*
X137287000Y-81534000D01*
X127764540Y-99314000D02*
X132842000Y-99314000D01*
X132842000Y-99314000D02*
X134112000Y-98044000D01*
D30*
%TO.N,Net-(P101-Pad2)*%
X132207000Y-120904000D02*
X134112000Y-122809000D01*
X134747000Y-123444000D02*
X134747000Y-125984000D01*
X134112000Y-122809000D02*
X134747000Y-123444000D01*
%TO.N,Net-(P101-Pad3)*%
X135382000Y-120904000D02*
X137287000Y-122809000D01*
X137287000Y-122809000D02*
X137287000Y-125984000D01*
%TO.N,Net-(P101-Pad4)*%
X139192000Y-120904000D02*
X139827000Y-121539000D01*
X139827000Y-121539000D02*
X139827000Y-125984000D01*
%TO.N,Net-(P101-Pad5)*%
X142367000Y-120904000D02*
X142367000Y-125984000D01*
%TO.N,Net-(D113-Pad2)*%
X211709000Y-90932000D02*
X211709000Y-89027000D01*
X211074000Y-96647000D02*
X219966540Y-96647000D01*
X210439000Y-96012000D02*
X211074000Y-96647000D01*
X219966540Y-96647000D02*
X230759000Y-96647000D01*
X210439000Y-92202000D02*
X211709000Y-90932000D01*
X210439000Y-95377000D02*
X210439000Y-96012000D01*
X210439000Y-94107000D02*
X210439000Y-92202000D01*
X210439000Y-94107000D02*
X210439000Y-95377000D01*
%TO.N,Net-(D113-Pad1)*%
X224406460Y-114427000D02*
X220599000Y-114427000D01*
X219961460Y-113789460D02*
X219961460Y-111887000D01*
X220599000Y-114427000D02*
X219961460Y-113789460D01*
X223776540Y-89027000D02*
X223776540Y-86487000D01*
X219966540Y-86487000D02*
X223776540Y-86487000D01*
X223776540Y-86487000D02*
X230759000Y-86487000D01*
X230759000Y-86487000D02*
X230759000Y-94107000D01*
%TO.N,Net-(D114-Pad2)*%
X223776540Y-99187000D02*
X230759000Y-99187000D01*
X201295000Y-91186000D02*
X201295000Y-89408000D01*
X199961500Y-92519500D02*
X201295000Y-91186000D01*
X200914000Y-99187000D02*
X199961500Y-98234500D01*
X199961500Y-98234500D02*
X199961500Y-92519500D01*
X223776540Y-99187000D02*
X200914000Y-99187000D01*
%TO.N,Net-(D115-Pad2)*%
X217424000Y-101727000D02*
X219961460Y-101727000D01*
X217043000Y-101346000D02*
X217424000Y-101727000D01*
X203327000Y-101346000D02*
X217043000Y-101346000D01*
X201168000Y-108712000D02*
X201168000Y-106045000D01*
X201168000Y-106045000D02*
X202438000Y-104775000D01*
X219961460Y-101727000D02*
X230759000Y-101727000D01*
X202438000Y-102235000D02*
X203327000Y-101346000D01*
X202438000Y-103632000D02*
X202438000Y-102235000D01*
X202438000Y-104775000D02*
X202438000Y-103632000D01*
%TO.N,Net-(D116-Pad2)*%
X211709000Y-106172000D02*
X211709000Y-108712000D01*
X224406460Y-104267000D02*
X214884000Y-104267000D01*
X214884000Y-104267000D02*
X214249000Y-103632000D01*
X211709000Y-108077000D02*
X211709000Y-108712000D01*
X230759000Y-104267000D02*
X224406460Y-104267000D01*
X212979000Y-104902000D02*
X211709000Y-106172000D01*
X212979000Y-103632000D02*
X212979000Y-104902000D01*
X214249000Y-103632000D02*
X212979000Y-103632000D01*
D29*
%TO.N,Net-(Q103-Pad2)*%
X201168000Y-103632000D02*
X201168000Y-102108000D01*
X195707000Y-110744000D02*
X192532000Y-110744000D01*
X196342000Y-110109000D02*
X195707000Y-110744000D01*
X196342000Y-109474000D02*
X196342000Y-110109000D01*
X196342000Y-101854000D02*
X196342000Y-109474000D01*
X196977000Y-101219000D02*
X196342000Y-101854000D01*
X200279000Y-101219000D02*
X196977000Y-101219000D01*
X201168000Y-102108000D02*
X200279000Y-101219000D01*
%TO.N,Net-(R111-Pad1)*%
X184912000Y-98044000D02*
X177292000Y-98044000D01*
%TO.N,Net-(R112-Pad1)*%
X177292000Y-105664000D02*
X184912000Y-105664000D01*
%TO.N,Net-(R113-Pad1)*%
X184912000Y-110744000D02*
X177292000Y-110744000D01*
%TO.N,Net-(R114-Pad1)*%
X184912000Y-108204000D02*
X177292000Y-108204000D01*
D30*
%TO.N,Net-(Q101-Pad3)*%
X212979000Y-92837000D02*
X212979000Y-94107000D01*
X214249000Y-92075000D02*
X212979000Y-92837000D01*
X214249000Y-89408000D02*
X214249000Y-92075000D01*
%TO.N,Net-(Q102-Pad3)*%
X203835000Y-92133420D02*
X203835000Y-89408000D01*
X202501500Y-93154500D02*
X203835000Y-92133420D01*
X202501500Y-94424500D02*
X202501500Y-93154500D01*
%TO.N,Net-(Q103-Pad3)*%
X199898000Y-104775000D02*
X199898000Y-103632000D01*
X198628000Y-105791000D02*
X199898000Y-104775000D01*
X198628000Y-108712000D02*
X198628000Y-105791000D01*
%TO.N,Net-(Q104-Pad3)*%
X209169000Y-106045000D02*
X209169000Y-108712000D01*
X210439000Y-104902000D02*
X209169000Y-106045000D01*
X210439000Y-103632000D02*
X210439000Y-104902000D01*
D31*
%TO.N,/+12V*%
X98679000Y-119888000D02*
X108077000Y-119888000D01*
D30*
X107950000Y-119824500D02*
X108013500Y-119888000D01*
D31*
X95123000Y-113032540D02*
X98679000Y-113032540D01*
X97663000Y-125730000D02*
X97663000Y-124714000D01*
X97663000Y-124714000D02*
X98679000Y-123698000D01*
X98679000Y-123698000D02*
X98679000Y-119888000D01*
X98679000Y-119888000D02*
X98679000Y-119824500D01*
X98679000Y-119824500D02*
X98679000Y-113032540D01*
X98679000Y-113032540D02*
X98679000Y-104394000D01*
X98679000Y-104394000D02*
X97665540Y-103380540D01*
X97665540Y-103380540D02*
X95123000Y-103380540D01*
D30*
X94612460Y-103380540D02*
X95123000Y-103380540D01*
%TD*%
M02*
